<?xml version="1.0" encoding="UTF-8"?>
<svg id="Ebene_2" data-name="Ebene 2" xmlns="http://www.w3.org/2000/svg" viewBox="0 0 33.73 21.59">
  <defs>
    <style>
      .cls-1 {
        fill: #1d173f;
      }

      .cls-1, .cls-2 {
        opacity: .9;
      }
    </style>
  </defs>
  <g id="Ebene_1-2" data-name="Ebene 1">
    <g id="SachsenAlles" class="cls-2">
      <path id="Leipzig" class="cls-1" d="m5.67,10.65c-.83.95-1.61,1.62-2.17,2.06-1.08.84-1.76,1.13-1.84,1.84-.08.75.58,1.51.66,1.5,0,0,0,0,0,0,.03.03-1.12,1.01-1.69,2.02-.39.68-.98,2.2-.4,2.97.92,1.24,4.54.11,6.39-.73,1.86-.84,4.07-2.35,4.07-2.35.14-.16.74-.78,1.73-.88.78-.08,1.36.21,1.58.33.54.2,1.3.42,2.24.48,1.1.07,2-.1,2.61-.26.12-.05,1.23-.54,2.28.07.59.35.86.88.95,1.1.2.27.67.82,1.39.95,1.11.21,2.07-.67,2.53-1.1,1.11-1.04.76-1.6,1.62-2.24,1.1-.82,1.92-.07,3.67-.77.43-.17,2.19-.88,2.41-2.17.2-1.17-.9-2.58-2.71-3.37-.08-.53-.2-1.32-.33-2.28-.16-1.19-.24-1.79-.22-1.95.24-1.85,2.46-2.13,2.53-3.56.05-1.04-1.06-2.23-2.09-2.31-1.71-.14-3.63,2.72-3.63,2.72-1.34.41-2.4.43-3.12.37-.87-.07-1-.24-2.6-.5-1.48-.24-2.24-.36-2.94-.16-1.04.29-1.03.79-2.06,1.1-1.16.35-1.79-.1-2.94-.15-1.78-.07-3.16.91-4.19,1.64-2.71,1.92-3.52,4.76-3.74,5.63Z"/>
    </g>
  </g>
</svg>