<?xml version="1.0" encoding="UTF-8"?>
<svg id="Ebene_2" data-name="Ebene 2" xmlns="http://www.w3.org/2000/svg" viewBox="0 0 81.76 186.99">
  <g id="Ebene_1-2" data-name="Ebene 1">
    <g>
      <path d="m20.61,82.48s-.08.08-.12.12h0c-.33,0-.34.25-.36.48-.08.09-.19.17-.24.28-.18.41.07.9-.25,1.29-.04.08-.13.18-.11.24.1.32.23.64.35.96,0,.04,0,.08,0,.12,0,.28,0,.56,0,.83,0,.28,0,.56,0,.84,0,.04,0,.08,0,.12-.3.08-.61.16-.91.25-.09.03-.18.09-.24.16-.21.23-.49.44-.61.72-.18.42-.51.72-.69,1.16-.26.65-.42,1.32-.67,1.97-.26.67-.43,1.34-.48,2.06-.03.47-.02.97-.14,1.42-.22.82-.21,1.65-.22,2.49,0,.25-.03.55-.17.74-.3.41-.3.85-.31,1.31,0,.49-.05.99-.09,1.48-.03.33-.15.67-.13,1,.09,1.38-.4,2.72-.27,4.1.01.15-.07.31-.13.46-.27.66-.26,1.36-.34,2.05-.05.39-.09.79-.14,1.18-.03.26-.09.51-.09.76-.02.76.06,1.52-.22,2.25-.03.07-.02.16-.02.24,0,.62.04,1.24-.22,1.83-.05.12,0,.28-.02.42-.03.21-.08.43-.12.64-.03.15-.1.31-.11.46-.01.39-.09.75-.37,1.04-.06.07-.09.17-.11.27-.23.9-.26,1.84-.45,2.75-.12.6-.29,1.19-.4,1.8-.02.11-.07.23-.13.32-.26.4-.49.82-.8,1.18-.43.49-.85,1.03-1.39,1.38-.6.39-1.22.72-1.67,1.3-.12.15-.29.27-.45.39-.48.35-1.01.65-1.44,1.05-.83.77-1.65,1.56-2.41,2.39-.71.78-1.35,1.62-1.76,2.61-.15.37-.27.78-.52,1.07-.59.68-.68,1.5-.81,2.32-.08.47-.09.94-.36,1.36-.07.11-.11.26-.12.39-.05.77-.08,1.55-.13,2.32-.02.34-.06.67-.1,1-.04.35-.14.71-.1,1.06.05.47.18.93.3,1.39.19.75.44,1.48.61,2.24.16.73.48,1.41.86,2.01.75,1.2,1.38,2.46,2.04,3.71.06.12.09.26.15.39.24.53.48,1.05.72,1.58.37.81.75,1.62,1.1,2.45.11.25.15.54.19.81.11.7.05,1.42.33,2.1.08.2.07.49,0,.71-.21.7-.47,1.39-.71,2.08-.04.13-.06.27-.1.4-.13.37-.2.78-.43,1.09-.26.35-.4.72-.53,1.12-.1.32-.16.68-.34.94-.21.31-.29.64-.41.97-.3.78-.06,1.68-.55,2.42-.03.04-.02.12-.01.18.04,1.01.08,2.03.13,3.04,0,.13.11.26.13.39.07.43.21.86.17,1.28-.03.28,0,.5.12.73.11.21.2.44.29.65.31.7.63,1.38,1.36,1.74.09.04.15.13.23.19.68.51,1.46.81,2.29.97.54.1,1.09.17,1.62.37.36.14.77.18,1.16.24.43.07.87.09,1.3.16.87.15,1.73.24,2.61.2.48-.02.95-.11,1.42-.11,4.4,0,8.8-.01,13.2,0,.51,0,1.03.11,1.54.16.14.02.27.06.41.06,1.13.04,2.27-.05,3.41.11.8.11,1.63.1,2.44.13,1.29.05,2.59.08,3.88.12.71.03,1.43.07,2.12.29.13.04.27.05.41.06.68.09,1.37.17,2.05.28.84.13,1.68.3,2.52.43.96.16,1.93.26,2.88.45,1.03.21,2.04.5,3.06.72,1.28.27,2.56.5,3.84.77,1.11.23,2.21.47,3.31.71.4.09.8.22,1.2.32,1.05.27,2.04.76,3.14.88.47.05.94.13,1.4.26.84.24,1.67.52,2.5.78.42.13.84.35,1.25.35.91,0,1.77.25,2.64.42.45.09.88.19,1.34.2.44,0,.87.07,1.3.11.16.01.32.01.48,0,.96-.07,1.88-.3,2.77-.66.27-.11.55-.27.73-.49.62-.75,1.18-1.53,1.31-2.55.12-.9.45-1.79.46-2.69,0-1.05.15-2.09.09-3.15-.06-1.11-.25-2.21-.32-3.32-.04-.68-.16-1.37-.24-2.06-.07-.59-.23-1.17-.21-1.77,0-.15-.07-.31-.12-.46-.21-.6-.44-1.2-.35-1.85.06-.48-.17-.89-.28-1.33-.16-.65-.32-1.3-.43-1.96-.12-.74-.1-1.52-.29-2.24-.17-.64-.49-1.24-.55-1.92-.02-.23-.1-.46-.13-.69-.09-.67-.18-1.33-.27-2-.01-.08-.04-.16-.09-.22-.35-.39-.39-.85-.36-1.35,0-.17-.04-.35-.09-.52-.2-.74-.13-1.55-.61-2.22-.03-.04-.02-.12-.02-.18.02-.38-.13-.74-.18-1.1-.11-.74-.14-1.49-.25-2.24-.07-.46,0-.93-.36-1.32-.1-.11-.18-.3-.16-.44.13-.91-.24-1.76-.29-2.66-.03-.64-.25-1.28-.22-1.94,0-.09-.04-.21-.1-.28-.53-.6-.36-1.4-.58-2.09-.18-.54-.17-1.13-.27-1.7-.02-.15-.11-.29-.18-.43-.13-.24-.3-.47-.39-.72-.13-.33-.2-.68-.29-1.03-.19-.69-.4-1.37-.56-2.06-.15-.67-.15-1.38-.59-1.96-.06-.07-.07-.18-.1-.28-.11-.5-.36-.97-.29-1.51.02-.15-.08-.3-.12-.46-.04-.19-.08-.39-.11-.58-.1-.84-.3-1.68-.28-2.54,0-.3-.22-.59-.28-.9-.11-.54-.31-1.1-.24-1.63.07-.56-.05-1.06-.11-1.58-.02-.18-.05-.35-.05-.53-.01-.58.04-1.15-.21-1.71-.07-.15,0-.36-.04-.53-.09-.55-.07-1.16-.34-1.61-.28-.47-.37-.94-.5-1.43-.21-.75-.39-1.5-.59-2.24-.07-.25-.15-.49-.22-.73-.33-1.02-.67-2.04-.99-3.06-.21-.66-.29-1.39-.61-1.99-.41-.78-.33-1.62-.57-2.42-.18-.58-.24-1.2-.35-1.8-.12-.62-.26-1.23-.38-1.85-.14-.74-.28-1.48-.41-2.21-.11-.58-.19-1.17-.32-1.75-.14-.63-.31-1.26-.49-1.89-.13-.44-.31-.86-.44-1.3-.07-.24-.06-.51-.11-.76-.12-.58-.35-1.15-.37-1.73-.04-1.08-.35-2.11-.55-3.16-.18-.97-.53-1.91-.86-2.85-.3-.86-.66-1.71-1.03-2.54-.24-.54-.49-1.09-.95-1.48-.19-.16-.42-.28-.62-.43-.09-.07-.19-.13-.26-.22-.41-.55-.92-.97-1.57-1.21-.24-.09-.49-.16-.74-.25-.61-.23-1.05-.69-1.34-1.23-.32-.61-.49-1.3-.51-2,0-.15-.07-.31-.11-.46-.05-.21-.1-.42-.13-.64-.1-.69-.16-1.38-.28-2.06-.12-.68-.33-1.34-.42-2.02-.06-.45-.08-.89-.23-1.34-.26-.79-.38-1.61-.6-2.41-.28-1.01-.62-2.01-.91-3.03-.25-.87-.46-1.76-.69-2.64-.11-.4-.18-.81-.33-1.19-.73-1.85-1.48-3.69-2.22-5.53-.03-.07-.06-.15-.07-.23-.17-1.12-.62-2.16-.79-3.29-.07-.46-.17-.93-.18-1.4,0-.2-.06-.39-.09-.58-.05-.33-.1-.66-.15-1-.02-.16-.04-.31-.06-.47-.06-.41-.12-.82-.18-1.23-.02-.14-.02-.28-.05-.41-.14-.78-.31-1.55-.42-2.33-.11-.78-.12-1.58-.27-2.36-.11-.59-.26-1.16-.24-1.76,0-.09-.07-.19-.08-.28-.05-.31-.13-.62-.13-.94-.01-.82-.37-1.59-.27-2.42,0-.07-.07-.14-.08-.22-.05-.23-.11-.46-.13-.69-.09-.93-.17-1.85-.26-2.78,0-.06-.04-.11-.05-.17-.06-.39-.12-.78-.17-1.17-.02-.14-.02-.28-.04-.41-.14-.84-.33-1.67-.43-2.51-.11-.98-.24-1.96-.46-2.93-.12-.5-.19-1.01-.27-1.52-.1-.66-.18-1.33-.27-2-.01-.1-.09-.18-.11-.28-.04-.15-.07-.31-.1-.46-.09-.63-.17-1.25-.26-1.88,0-.04-.02-.08-.04-.11-.2-.3-.18-.64-.18-.98,0-.16,0-.32-.03-.48-.14-.66-.3-1.31-.44-1.96-.21-1-.41-2.01-.63-3.02-.14-.64-.32-1.27-.45-1.91-.16-.75-.32-1.51-.45-2.27-.11-.64-.18-1.29-.28-1.94-.07-.47-.14-.94-.24-1.4-.09-.37-.27-.71-.34-1.08-.22-1.08-1.04-1.75-1.78-2.41-.87-.77-1.92-1.33-3.09-1.62-.25-.06-.51-.09-.76-.13-.09-.08-.18-.16-.26-.24,0,0,0,0,0,0-.04-.04-.08-.08-.12-.12,0,0,0,0,0,0-.08-.04-.16-.08-.24-.12,0,0,0,0,0,0-.08-.12-.16-.25-.24-.37,0-.07,0-.15,0-.22-.12-.2-.24-.4-.36-.61h0s-.08-.08-.12-.12c0,0,0,0,0,0-.08-.08-.15-.15-.23-.23-.43-.19-.85-.44-1.3-.56-.85-.23-1.51.08-1.84.78-.19.11-.27.28-.24.5h0c-.05.04-.11.08-.16.12-.37.13-.63.47-.61.78.03.43-.09.74-.36,1.01-.47.46-.52,1.03-.41,1.6.1.53-.06.94-.29,1.4-.38.75-.69,1.54-.7,2.42,0,1-.07,2.01-.12,3.01-.01.24-.09.47-.11.7-.05.69-.07,1.39-.13,2.08-.07.87-.17,1.73-.24,2.6-.09,1.05-.17,2.1-.23,3.14-.03.52,0,1.04,0,1.56,0,.2-.05.39-.08.59-.05.37-.13.74-.15,1.12-.03.46,0,.92,0,1.38-.03.73.14,1.48-.22,2.18-.04.08,0,.2-.02.3-.03.33-.08.67-.1,1-.02.26-.04.53,0,.78.15.76.17,1.5-.09,2.24-.06.18-.05.39-.05.59,0,1.82,0,3.63,0,5.45,0,.18.02.37-.04.53-.29.78-.3,1.59-.31,2.4,0,.37.1.75.11,1.12.01,1.64.01,3.28,0,4.91,0,.29-.05.6-.14.88-.16.5-.26,1-.21,1.53.02.24.11.47.11.7.01,1.04,0,2.08,0,3.12,0,.25-.1.52-.05.76.07.37.05.71-.07,1.05-.19.51-.32,1.04-.22,1.58.15.86.21,1.7-.11,2.53-.03.09-.02.2-.02.3.01.76-.22,1.49-.38,2.22-.29,1.28-.65,2.54-.94,3.81-.17.77-.23,1.57-.39,2.34-.23,1.05-.38,2.1-.44,3.17,0,.16-.01.35-.11.45-.32.35-.36.77-.42,1.2-.12.78-.28,1.56-.42,2.33-.02.1,0,.2,0,.3-.04.35-.08.71-.12,1.06-.04.31-.09.63-.11.94-.11,1.52.22,3.06-.22,4.57-.09.3-.1.62-.26.9-.15.07-.42-.31-.48.12-.08,0-.15,0-.23,0-.21-.21-.32-.12-.39.12-.03,0-.05,0-.08,0-.05.04-.1.08-.14.13h0Z"/>
    </g>
  </g>
</svg>