<?xml version="1.0" encoding="UTF-8"?>
<svg id="Ebene_2" data-name="Ebene 2" xmlns="http://www.w3.org/2000/svg" viewBox="0 0 143.6 151.18">
  <defs>
    <style>
      .cls-1 {
        fill: #a0a0a0;
      }
    </style>
  </defs>
  <g id="Ebene_1-2" data-name="Ebene 1">
    <g>
      <path class="cls-1" d="m143.02,50c-.84-2.83-2.46-5.26-4.2-7.62-2.95-4-5.29-8.47-9.36-11.59-2.88-2.2-5.45-4.76-8.65-6.58-1.74-.99-3.26-2.4-4.78-3.73-1.41-1.23-2.65-2.64-4.04-3.89-1-.9-2.13-1.66-3.21-2.49-.85-.65-1.69-1.32-2.56-1.94-2.26-1.6-4.43-3.35-6.83-4.72-2.37-1.35-4.96-2.32-7.46-3.43-.34-.15-.75-.15-1.13-.21-.86-.41-1.71-.85-2.58-1.22-3.9-1.65-7.94-2.6-12.21-2.38-.79.04-1.59-.04-2.39-.05-2.56-.05-5.11-.1-7.67-.14-.2,0-.4.04-.59.1-2.62.74-5.24,1.48-7.87,2.22-2.21.57-4.38,1.21-5.78,3.25-.12.17-.4.26-.63.31-1.41.29-2.38,1.18-3.31,2.22-.57.64-1.27,1.2-2.01,1.63-1.74,1.02-3.53,1.93-5.31,2.89-1.12,1.37-2.24,2.74-3.35,4.1-1.58-.18-3.21-.56-4.62.5-1.16.87-2.45,1.12-3.82.94-3.47-.46-5.74,1.95-8.31,3.54-.83.52-1.57.93-2.54,1.06-.97.13-1.98.29-2.85.7-3.64,1.71-5.44,4.77-6.06,8.63-.18.61-.36,1.22-.54,1.84-.7.63-1.5,1.18-2.06,1.91-1.15,1.5-2.08,3.17-3.27,4.62-.79.96-1.21,1.92-1.15,3.13-1.6-.16-1.44,1.23-1.58,2.04-1.17,6.88.75,13.72,7.97,17.66,4.9,2.68,9.29,5.98,13.23,9.97,1.46,1.48,3.49,2.55,5.44,3.34,4.26,1.73,8.88,1.81,13.38,2.44,2.19.3,4.14.71,4.46,3.38-1.19,1.67-2.39,3.35-3.58,5.02-.91,1.72-1.74,3.49-2.74,5.16-1.36,2.25-2.42,2.34-4.58.82-2.28-1.61-4.64-3.05-7.57-3.24-3.02-.2-6.02-.57-9.04-.78-.58-.04-1.4.14-1.74.53-1.83,2.1-3.55,4.3-5.29,6.48-.52.64-.48,1.28.01,1.97.26.36.48.91.4,1.31-.46,2.26.36,4.16,1.55,5.97,1.73,2.64,1.49,3.19-1.68,3.82-1.84.36-3.7.64-5.51,1.09-.52.13-1.27.69-1.3,1.1-.04.5.48,1.14.92,1.55.42.39,1.04.56,1.58.83-.1,1.18-.39,2.39-.26,3.55.37,3.28,2.18,5.68,5.06,7.22,2.52,1.35,5.11,2.57,7.67,3.85,4.23,2.06,8.44,4.18,12.69,6.17,5.02,2.36,10.11,4.56,15.13,6.93,4.58,2.16,9.09,4.47,13.66,6.68,2.63,1.27,5.35,2.26,8.28,2.68,4.01.57,7.21-2.1,7.27-6.15.04-2.79-1.05-5.23-2.41-7.54-2.03-3.45-3.98-6.93-4.95-10.85-1.16-4.7-3.25-9-5.56-13.2-1.96-3.56-2.16-7.18-.57-10.93,1.81-4.25,4.12-8.2,7.06-11.77,2.6-3.16,5.78-5.01,10.07-4.71,1.97.14,4-.06,5.95-.4,5.6-.98,10.51-3.69,15.37-6.46,5.35-3.05,11.02-4.92,17.25-5.12,3.77-.12,7.44-.89,10.69-3.05,2.93-1.94,5.95-3.74,8.86-5.69,5.1-3.42,7.26-9.38,5.53-15.23Zm-123.81-15.75s0,0,0,0c0-.11,0-.22,0-.33,0,.11,0,.22,0,.33Zm8.53,13.16s0,0,0,0c.63-.28,1.27-.57,2.04-.91-.78.35-1.41.63-2.04.91Zm4.12-28.87c-.64.36-1.28.48-1.95.5.67-.01,1.31-.14,1.95-.5.87-.46,1.76-.81,2.68-.96-.93.15-1.81.51-2.68.96Zm-14.35,72.77h0c.15.13.31.25.46.38-.15-.13-.31-.25-.46-.38-.23.06-.46.11-.69.17.23-.06.46-.11.69-.17Zm-.75.92h0c-1.12,1.43-2.23,2.86-3.35,4.29,1.12-1.43,2.23-2.86,3.35-4.29Zm-2.4,25.62c-.24-.08-.47-.17-.71-.25h0c-.52-.28-1.03-.62-1.58-.84.55.22,1.05.56,1.58.84.24.08.47.17.71.25h0c.41.21.82.42,1.23.62-.41-.21-.82-.42-1.23-.62Zm2.14-8.2c-.72.18-1.44.35-2.16.53.72-.18,1.44-.35,2.16-.53,1.13-.26,2.26-.52,3.4-.78-1.13.26-2.26.52-3.4.78Zm7.96.04c0-.31-.01-.62-.02-.93,0,.31.01.62.02.93,0,0,0,0,0,0Zm2.1-9.78h0l3.36.7-3.36-.7Zm7.58,7.68c-.17-.3-.34-.6-.42-.74.08.14.25.44.42.74,0,0,0,0,0,0Zm2.68,4.99c-.11-.31-.2-.64-.3-.96.1.32.19.64.3.96.13.41.26.82.4,1.23-.13-.41-.26-.82-.4-1.23Zm4.87-17.53c.17.04.34.09.51.14-.17-.05-.34-.1-.51-.14-.25-1.12-.51-2.25-.76-3.37.25,1.12.51,2.25.76,3.37Zm.7,3.38c-.45.12-.86.27-1.24.46.38-.19.79-.34,1.24-.46.24-.06.48-.12.72-.18-.24.06-.48.12-.72.18Zm2.16,12.47c-.11.02-.21.05-.3.09.09-.03.19-.06.3-.09.18-.05.36-.08.54-.13-.18.04-.37.08-.54.13Zm2.34-100.95c-2.01.98-4.01,1.95-6.02,2.93-.72.87-1.43,1.74-2.15,2.61-.29.49-.58.98-.87,1.47.29-.49.58-.98.87-1.47.72-.87,1.43-1.74,2.15-2.61,2.01-.98,4.01-1.95,6.02-2.93.18-.14.35-.28.53-.42l-.53.42Zm25.45,134.26c.03.18.04.35.04.52,0-.17,0-.35-.04-.52h0Zm-12.41-60.08c.3-.43.61-.86.91-1.29-.3.43-.61.86-.91,1.29-.33.46-.66.93-.99,1.39.33-.46.66-.93.99-1.39Zm-1.73-8.22c0-.08,0-.16,0-.23,0,.08,0,.16,0,.23h0s0,0,0,0Zm.01,0c.23-.13.45-.27.68-.41-.22.14-.45.28-.68.41-.23.3-.5.59-.75.89.25-.3.52-.59.75-.89Zm-5.51-58h0c-.16-.07-.33-.16-.49-.24.16.08.32.17.49.24Zm.01,28.5h0c-.24.16-.48.33-.72.49.24-.16.48-.33.72-.49Zm-3.87,54.89c.17.48.33.95.5,1.43-.17-.48-.33-.95-.5-1.43h0Zm-.22,3.85c0,.72,0,1.44,0,2.16,0-.72,0-1.44,0-2.16.09-.19.21-.38.34-.56-.13.18-.25.37-.34.56Zm2.37,11.24c-.12.08-.24.16-.39.26.15-.1.27-.18.39-.26.16-.4.34-.8.49-1.21-.16.41-.33.81-.49,1.21Zm.98-30.87c-.65-.88-.97-1.52-.99-2.17.02.65.35,1.3.99,2.17,0,0,0,0,0,0Zm.45-7.54c-.65.5-1.29,1.02-1.96,1.48.68-.46,1.31-.98,1.96-1.48.24-.28.48-.57.73-.85.24-.17.48-.34.72-.51-.24-.55-.06-.91.3-1.08-.36.17-.54.53-.3,1.08-.24.17-.48.34-.72.51-.24.28-.48.57-.73.85Zm1.01,27.65c-.04-.39-.08-.78-.11-1.17.04.39.08.78.11,1.17,0,0,0,0,0,0Zm.75,1.41c.06.1.12.19.18.29.16.32.32.64.48.96-.16-.32-.32-.64-.48-.96l-.18-.29Zm4.73,16.84c-1.46-1.89-2.91-3.8-4.41-5.65,1.51,1.85,2.95,3.76,4.41,5.65.1.27.25.55.37.82-.12-.27-.27-.55-.37-.82Zm2.87,4.3c-.09.1-.18.2-.28.3h0c-.15-.18-.29-.36-.44-.54-.18-.1-.36-.19-.52-.3.16.11.34.2.52.3-.23-.88-.46-1.76-.7-2.64.08-.49.17-.98.25-1.48-.24-1.12-.51-2.22-.82-3.31.31,1.09.57,2.2.82,3.31.38,1.46.77,2.91,1.15,4.37Zm-2.63-39.56c-1.43,2.88-2.87,5.76-4.3,8.64-.15.23-.29.46-.41.69.12-.23.26-.46.41-.69,1.43-2.88,2.87-5.76,4.3-8.64.79-1.06,1.57-2.12,2.36-3.18-.79,1.06-1.57,2.12-2.36,3.18ZM70.04,1.69h0c-.13-.02-.26-.03-.4-.05.14.02.27.03.4.05Zm.41,65.37c-.16.16-.33.32-.49.48-.06.08-.12.15-.17.22.06-.06.11-.13.17-.22.16-.16.33-.32.49-.48Zm-4.33,8.86c-1.26.27-2.54.49-3.8.79,1.26-.3,2.53-.52,3.8-.79.31-.17.7-.27.92-.52-.22.25-.61.35-.92.52Zm3.84.92c-.16-.3-.32-.59-.48-.89.16.3.32.59.48.89.52-.29,1.1-.51,1.56-.88-.46.37-1.03.59-1.56.88Zm3.29-3.02c-.13-.02-.26-.04-.39-.06.13.02.26.04.39.06,0,.06.03.12.06.18-.03-.05-.05-.11-.06-.18Zm-.42-7s0,0,0,0c.16,0,.32,0,.48-.01-.16,0-.32,0-.48.01Zm11.2-30.97h0c-.14.03-.28.05-.43.06.14-.02.29-.04.43-.06Zm.04,40.78c-.55,0-1.1-.02-1.66-.02-.8.08-1.6.16-2.4.24-.07-.33-.15-.65-.22-.98l.22.98c.8-.08,1.6-.16,2.4-.24h0c.55,0,1.1.02,1.66.02.08-.09.17-.17.24-.26-.07.1-.16.18-.24.26Zm13.24-38.62c.75.88,1.5,1.77,2.24,2.65-.75-.88-1.5-1.77-2.25-2.65,0,0,0,0,0,0Zm-5.32.28c.78.24,1.56.48,2.33.72-.78-.24-1.56-.48-2.33-.72-.02-.13-.03-.25-.04-.36,0,.11.02.23.04.36Zm.24,32.59h0c-.27.21-.54.4-.81.57.28-.17.55-.37.81-.57Zm-.24,4.79c-.96.4-1.92.8-2.87,1.2.96-.4,1.92-.8,2.87-1.2.23-.14.45-.28.67-.42-.22.14-.45.28-.67.42Zm1.61-4.08c.75-.62,1.55-1.12,2.39-1.56-.83.44-1.64.94-2.39,1.56,0,0,0,0,0,0Zm13.8-25.69c.95-.69,1.89-1.41,2.83-2.12h0c-.94.71-1.87,1.43-2.83,2.12Zm2.57-21c-.82.52-1.63,1.05-2.46,1.55.83-.5,1.64-1.03,2.46-1.55.24.65.49,1.31.73,1.96-.24-.65-.49-1.31-.73-1.96Zm3.83,37.79c-.22.06-.45.12-.67.19.22-.07.45-.14.67-.19.09-.55.3-.98.61-1.31-.32.33-.52.76-.61,1.31Zm-1.22-9.79h0c.79-.15,1.58-.3,2.37-.45-.79.15-1.58.3-2.37.45Zm10.75,10.53c-1.17.39-2.34.78-3.51,1.17,1.17-.39,2.34-.78,3.51-1.17.47-.57.92-1.17,1.39-1.75-.47.58-.92,1.17-1.39,1.75Zm12.03-8.39c-.32.16-.64.32-.96.47-.01.23-.04.45-.09.65.05-.21.08-.42.09-.65.32-.16.64-.32.96-.47.16-.16.31-.31.47-.47-.16.16-.31.31-.47.47Zm1.69-4.76c0-.16,0-.33-.01-.49,0,.16,0,.33.01.49,0,0,0,0,0,0Zm.23-1.21c0-.24,0-.48,0-.72,0,.24,0,.48,0,.72.02.03.04.05.06.08-.02-.03-.04-.05-.06-.08Zm.22,1.79c.21.34.34.7.43,1.06-.09-.36-.21-.72-.43-1.06Z"/>
      <path class="cls-1" d="m60.64,123.81c-.08.49-.17.98-.25,1.48.23.88.46,1.76.7,2.64.15.18.29.36.44.54.09-.1.18-.2.28-.3-.38-1.46-.77-2.91-1.15-4.37Z"/>
    </g>
  </g>
</svg>