<?xml version="1.0" encoding="UTF-8"?>
<svg id="Ebene_2" data-name="Ebene 2" xmlns="http://www.w3.org/2000/svg" viewBox="0 0 125.84 79.63">
  <defs>
    <style>
      .cls-1 {
        fill: #1d173f;
        opacity: .9;
      }
    </style>
  </defs>
  <g id="Ebene_1-2" data-name="Ebene 1">
    <path id="Nordsachsen" class="cls-1" d="m113.29,45.12c.95-.94,1.93-1.54,2.69-1.91,0,0,.03-1.59.48-2.8.74-2,2.7-3.14,2.73-3.12,0,0,0,0,0,.02.02.03.02.03.02.03.01,0-.09-.88.12-1.5.12-.33.39-.76,1.1-1.16-.68-.36-1.08-1.08-1.01-1.81.09-.97.95-1.43,1.01-1.46-.2-.58-.59-1.5-1.37-2.41-.68-.79-1.39-1.28-1.89-1.57.22-.48,1.05-2.11,2.99-3.04,1.61-.77,3.08-.62,3.65-.54.24-.39.54-.99.71-1.77.36-1.69-.32-2.48-.4-3.96-.14-2.58,1.75-3.15,1.72-5.48-.01-.97-.36-2.38-2.03-4.1-.95-.28-2.1-.71-3.32-1.39-1.33-.74-2.39-1.57-3.21-2.33-.61-.57-1.41-.86-2.24-.88-1.46-.04-3.15-.21-4.99-.63-2.92-.66-5.3-1.75-7.1-2.79-1.01-.58-2.27-.6-3.23.06-.77.52-1.85,1.02-3.21,1.08-1.36.06-2.48-.33-3.28-.76-1.56-.84-3.38-1.17-5.07-.65-.48.15-.88.32-1.23.48-2.67,1.32-3.32,3.46-5.75,3.96-.5.1-.89.1-1,.1-1.35-.04-2.12-.79-2.77-1.09-1.73-.82-3.54,1.08-6.08,1.85-1.29.39-3.1.59-5.53-.07-1.13-.31-2.33-.17-3.37.35-1.27.63-2.97,1.28-5.04,1.57-2.02.29-3.78.15-5.12-.08-.96-.17-1.94-.06-2.85.31-1.32.54-3.13,1.09-5.32,1.23-2.17.14-4.02-.17-5.41-.54-1.16-.31-2.39-.14-3.43.44-.76.42-1.65.9-2.65,1.42-3.67,1.9-4.83,2.22-6.08,3.5-.9.92-2.08,2.57-2.55,5.57-.52.55-1.33,1.27-2.47,1.76-1.33.58-2.18.46-2.61,1.1-.13.19-.23.46-.22.85.2.9.29,2.1-.35,3.05-.58.88-1.28.82-2.17,1.61-1.53,1.36-.64,2.58-1.92,4.23-1.48,1.92-3.47,1.3-4.76,3.3-.59.92-.71,1.89-.73,2.58-.64.49-1.77,1.5-2.58,3.17-.96,2-.91,3.83-.84,4.65-1.76.05-3.26,1.14-3.72,2.66-.5,1.66.46,3.08.59,3.26-1.13.24-2,1.12-2.18,2.18-.21,1.28.61,2.62,1.98,3.04-.11.76-.09,1.63.33,2.44,1.1,2.14,4.02,2.01,8.13,3.83.81.36,1.65.79,2.51,1.3,1.05.63,2.29.86,3.51.72,1.92-.23,2.86.57,3.56,1.02.45.29,1.86,1.19,2.18,2.71.28,1.33-.5,2.01.07,3.04.39.7.91.68,1.26,1.39.38.78.15,1.67-.09,2.27,1.15.08,2.08.34,2.8.63,1.06.43,1.42.83,2.31,1.06.98.25,1.94.12,2.81-.16.08.5.15,1.25.03,2.14-.03.2-.06.37-.09.53h0c.82-.14,1.7-.32,2.61-.55,1.13-.28,2.18-.6,3.14-.93,2.63.83,3.88.44,4.53-.12.71-.61.76-1.46,1.63-1.74,1.08-.36,2.08.61,2.44.23.36-.38-.65-1.3-.35-2.32.3-1.02,1.57-.96,2.32-1.98.46-.62.78-1.7.19-3.72,1.13-1.26,2.95-2.88,5.5-3.49,5.34-1.27,9.13,3.02,13.13,1.28,1.22-.53,2.79-1.76,3.95-5.01-.97-.64-2.14-1.58-1.98-2.43.16-.82,1.43-.72,3.14-1.74,2.89-1.73,2.3-3.82,5-5,.99-.43,1.76-.45,2.78-1.31.95-.8,1.03-1.4,1.54-1.78.82-.6,2.64-.54,7.07,2.51,1.03.05,2.08.09,3.14.12,6.99.15,13.48-.47,19.36-1.51.26-1.06.94-3.17,2.82-5.03Zm-65.47-9.11c-.22,1.29-1.98,2-2.41,2.17-1.75.7-2.57-.05-3.67.77-.85.64-.51,1.2-1.62,2.24-.46.43-1.42,1.31-2.53,1.1-.73-.14-1.2-.69-1.39-.95-.1-.22-.36-.75-.95-1.1-1.04-.62-2.16-.13-2.28-.07-.6.16-1.51.33-2.61.26-.94-.06-1.7-.28-2.24-.48-.22-.12-.8-.41-1.58-.33-.98.1-1.58.72-1.73.88,0,0-2.21,1.51-4.07,2.35-1.86.84-5.47,1.97-6.39.73-.57-.77.02-2.29.4-2.97.57-1.01,1.72-1.99,1.69-2.02,0,0,0,0,0,0-.07,0-.74-.75-.66-1.5.08-.7.75-.99,1.84-1.84.56-.44,1.33-1.1,2.17-2.06.21-.87,1.03-3.71,3.74-5.63,1.03-.73,2.41-1.71,4.19-1.64,1.14.05,1.78.5,2.94.15,1.02-.31,1.01-.81,2.06-1.1.7-.2,1.46-.08,2.94.16,1.6.26,1.73.43,2.6.5.72.06,1.78.05,3.12-.37,0,0,1.93-2.85,3.63-2.72,1.03.08,2.14,1.27,2.09,2.31-.07,1.43-2.29,1.71-2.53,3.56-.02.16.06.76.22,1.95.13.96.25,1.74.33,2.28,1.81.79,2.91,2.21,2.71,3.37Z"/>
  </g>
</svg>