<?xml version="1.0" encoding="UTF-8"?>
<svg id="Ebene_2" data-name="Ebene 2" xmlns="http://www.w3.org/2000/svg" viewBox="0 0 228.88 106.99">
  <defs>
    <style>
      .cls-1 {
        fill: #1d173f;
      }

      .cls-1, .cls-2 {
        opacity: .9;
      }
    </style>
  </defs>
  <g id="Ebene_1-2" data-name="Ebene 1">
    <g id="SachsenAlles" class="cls-2">
      <path id="Sachsen_ost" data-name="Sachsen ost" class="cls-1" d="m228.88,36.85c-.49-1.16-.98-2.52-1.36-4.06-.72-2.9-.86-5.48-.8-7.48,1.64-2.22,1.6-5.2,0-7.19-1.3-1.62-3.47-2.37-5.62-1.98-.81-1.52-2.15-3.36-4.31-4.16-1.95-.72-2.95.5-5.47-.13-1.44-.36-2.46-1.12-4.5-2.63-1.2-.88-2.73-2.13-4.36-3.82.14-.56.28-1.31.27-2.21,0-.86-.13-1.59-.27-2.13-.92-.98-2.33-1.31-3.56-.84-1.1.42-1.89,1.43-2.06,2.63-.69.51-1.9,1.25-3.49,1.47-3.87.53-5.35-2.66-9.51-2.58-2.82.05-2.88,1.52-6.48,1.59-2.37.04-3.07-.58-5.15-.46-2.56.14-4.61,1.25-6.01,2.25-1.1.05-2.82.1-4.96.07-3.49-.05-3.62-.25-4.74-.03-3.47.69-4.05,3-6.1,2.61,0,0-.57-.11-3.86-3.12l-15.32-.51c-1.52,1.19-2.87,1.92-3.82,2.37-1.56.73-2.32.83-3.37,1.59-1.36.98-2.1,2.27-2.51,3.19-1.32.07-2.64.14-3.97.21-.05.62-.19,1.41-.52,2.28-.66,1.72-1.75,2.82-2.4,3.38-.27.2-.66.48-1.14.82-5.12,3.72-6.01,4.59-7.3,4.45-.49-.05-1.21-.26-2.03-1.08-.66-.65-1.64-.83-2.5-.49-2.21.89-5.24,1.77-8.89,1.89-1.48.05-2.84-.03-4.05-.18-1.2-.15-2.41-.1-3.6.13-.76.14-1.66.23-2.66.19-1.52-.07-2.8-.42-3.76-.8-.82-.32-1.73-.28-2.56.04-1.12.43-2.78.82-4.71.44-1.17-.23-2.12-.69-2.82-1.12-.65-.41-1.45-.47-2.17-.21-2.94,1.06-5.6.75-6.78-.71-.02-.02-.04-.05-.06-.08-.57-.75-1.57-1.01-2.43-.62-1.48.67-2.99.74-4.12.09-.35-.2-.82-.55-1.24-1.22.17-.82.17-1.51-.2-1.81-.41-.33-.97.06-1.72-.13-.4-.1-.74-.34-1.02-.65-.43-.47-1.09-.7-1.7-.51-1.28.4-2.67.26-3.82-.42-.54-.32-.95-.71-1.27-1.12-.84-1.07-2.27-1.42-3.54-.93-1.57.61-2.88.72-3.92.66-1.83-.11-3.3-.79-5.29-.13-1.18.4-2.03,1.1-2.58,1.65-.77.79-1.54,1.58-2.3,2.37-.69.71-1.83.75-2.56.08l-.98-.89c-.33-.3-.59-.68-.75-1.1l-.4-1.04c-.37-.95-1.35-1.51-2.36-1.33l-2.61.46c.5.29,1.22.78,1.89,1.57.78.91,1.17,1.83,1.37,2.41-.06.03-.92.49-1.01,1.46-.07.73.33,1.46,1.01,1.81-.71.39-.98.83-1.1,1.16-.22.61-.11,1.5-.12,1.5,0,0,0,0-.02-.03,0-.01,0-.02,0-.02-.02-.02-1.99,1.12-2.73,3.12-.45,1.2-.48,2.8-.48,2.8-.76.38-1.74.97-2.69,1.91-1.88,1.86-2.56,3.97-2.82,5.03-.18.29-.77,1.32-.6,2.72.17,1.42,1.01,2.28,1.26,2.52-.3.66-.64,1.57-.81,2.71-.23,1.57-.04,2.88.15,3.71-.29.43-.78,1.12-1.5,1.87-1.06,1.11-1.74,1.44-1.71,1.98.02.37.37.91,2.16,1.52-.37.24-1.68,1.13-2.25,2.9-.52,1.6-.12,2.95.03,3.39-.54.07-1.38.24-2.28.75-1.39.79-2.79,2.3-2.52,2.79.26.47,2.12.25,8.6-2.36.99.23,2.22.44,3.65.47,1.83.05,3.38-.2,4.54-.47.65-.23,1.75-.52,3.09-.39.67.07,1.24.22,1.69.39-.2.53-.4,1.21-.49,2-.18,1.42.03,2.6.23,3.37-.67.14-1.14.71-1.13,1.32,0,.72.69,1.37,1.53,1.31.78-.05,1.38.31,1.45.68.07.41-.48,1.07-1.45,1.16-.25.08-1.77.57-2.52,2.18-.85,1.84.06,3.55.16,3.72-1.13,1.24-1.52,2.91-.97,4.3.42,1.07,1.26,1.64,1.63,1.86-.04.33-.09.99.18,1.74.28.8.75,1.3,1,1.53-1.71,1.01-2.22,3.03-1.45,4.32.54.9,1.69,1.4,2.89,1.31.74.04,1.33.57,1.43,1.21.11.72-.47,1.24-.51,1.28-.1.14-.97,1.42-.48,2.86.45,1.3,1.82,2.19,3.36,2.11.26,1.76.93,2.82,1.5,3.47,1.06,1.19,2.25,1.47,2.93,2.55h.03c1.36-.46,2.83-.49,4.21-.09l1.75.51c2.09.61,4.29.46,6.36-.2,1.83-.59,3.79-.59,5.63-.01l3.72,1.17c1.63.51,3.4.31,4.86-.57l4.84-2.88c.79-.47,1.28-1.33,1.28-2.25.37-1.55,1.58-2.75,3.12-3.12,1.23-.13,2.56-.33,3.97-.62,2.39-.49,4.49-1.15,6.28-1.84,1.69.23,3.48.43,5.35.58,1.31.11,2.57.18,3.8.23.65.03,1.28-.1,1.87-.38,2.13-1.01,4.97-2.09,8.41-2.76,2.84-.55,5.41-.7,7.58-.65,2.04.04,4.02-.65,5.59-1.94l3.57-2.92c.96-.34,2.38-.73,4.13-.77,2.09-.05,3.76.4,4.8.77,1.23.09,3.31.09,5.7-.7,2.59-.87,4.35-2.27,5.28-3.13.2-.48.76-2.04.01-3.15-.32-.48-.81-.75-2.77-1.31-1.02-.29-2.37-.64-3.99-.95-.15-.07-.88-.42-1.07-1.13-.23-.87.42-1.99,1.68-2.42-.58-.12-1.42-.32-2.39-.68-1.53-.56-2.36-.87-2.56-1.44-.34-.96,1.11-2.56,3.43-3.98.83-2.34,3-3.66,4.9-3.29,1.75.34,2.63,2.01,2.76,2.26.52-.15,2.84-.73,5.16.55,1.41.78,2.18,1.89,2.52,2.47,2.12-.07,4.24-.14,6.37-.21,2.25-1.42,4.49-1.47,5.39-.45.18.2.47.63.48,1.47.99.14,2.75.54,4.54,1.77,1.24.85,2.07,1.81,2.58,2.51-.1,1.07-.37,2.31-.99,3.57-.78,1.58-1.58,2.08-1.85,3.37-.18.85-.11,1.98.66,3.44,1.23-.13,2.79-.16,4.56.13.83.14,1.58.33,2.25.53-.94,2.72-1.87,5.45-2.81,8.17.45.67,1.33,1.81,2.81,2.73,1.67,1.04,3.25,1.29,4.08,1.36.32.39.92,1.02,1.86,1.48.78.39,1.5.51,1.97.56.46.56,1.4,1.55,2.92,2.22,1.84.81,3.5.69,4.23.59.44-.24,1.09-.63,1.81-1.19,1.17-.9,1.86-1.72,2.22-2.11.82-.89,2.2-2.01,4.65-2.92.43-1.33.85-2.66,1.28-4,.99-1.2,2.36-2.6,4.19-3.92,3.19-2.32,6.32-3.34,8.39-3.83.59-1.4,1.73-3.53,3.83-5.48,1.09-1.02,2.18-1.74,3.11-2.25,5.06-3.7,6.46-6.89,6.78-9.16.12-.85.07-1.45.36-2.85.73-3.56,2.35-6.06,3.11-7.12,1.76-2.45,3.75-3.96,5.07-4.8-.26-1.99-.42-5.12.44-8.81.94-4.03,2.7-6.96,3.9-8.66Zm-143.13,27.87c-.62.5-.94.46-1.63.91-.82.53-1.36,1.24-1.72,1.86-.93.28-2.42.81-4.06,1.82-2.72,1.66-3.3,3.03-5.36,3.34-1.29.2-1.26-.32-3.97-.62-3.09-.35-3.84.24-5.69-.14-1.28-.27-3.06-.99-4.97-3.11-2-.59-3.63-.81-4.73-.91-1.68-.15-2.63-.05-3.54-.72-1.02-.75-1.35-2.02-1.48-2.92-2.65.77-5.25-.07-6.41-1.91-.81-1.3-.67-2.72-.57-3.3.29-.38,2.14-2.71,5.36-2.95,2.46-.18,4.24.95,4.77,1.32.37.16,1.93.8,3.68.14,1.01-.38,1.65-1.02,1.96-1.39.07-1.35.52-2.05.91-2.44.92-.93,2.13-.74,4.4-1.29,1.35-.33,2.4-.75,3.06-1.05.04-.21.22-.97.91-1.48.73-.54,1.75-.59,2.63-.14-.09-.3-.43-1.42.05-1.86.55-.52,2.1-.06,3.78,1.34.14.17.84,1,2.06,1.15,1.39.17,2.35-.69,2.49-.81,1.32-.97,2.81-.63,3.2.1.3.55.04,1.45-.62,2.15-.2.3-.75,1.2-.62,2.39.06.54.23.96.38,1.24.09.11.32.42.33.86.03.74-.56,1.2-.62,1.24-1.32.61-1.71,1.9-1.34,2.49.3.48,1.22.67,2.15.33.12.19.88,1.32,2.39,1.58,1.54.27,2.65-.58,2.82-.72.21.08,1.11.46,1.29,1.24.23,1.02-.95,1.97-1.29,2.25Z"/>
    </g>
  </g>
</svg>