<?xml version="1.0" encoding="UTF-8"?>
<svg id="Ebene_2" data-name="Ebene 2" xmlns="http://www.w3.org/2000/svg" viewBox="0 0 214.35 132.67">
  <defs>
    <style>
      .cls-1 {
        fill: #1d173f;
      }

      .cls-1, .cls-2 {
        opacity: .9;
      }
    </style>
  </defs>
  <g id="Ebene_1-2" data-name="Ebene 1">
    <g id="SachsenAlles" class="cls-2">
      <path id="Mittelsachsen" class="cls-1" d="m211.42,67.66c-.58-.65-1.24-1.71-1.5-3.47-1.54.08-2.92-.81-3.36-2.11-.5-1.45.38-2.73.48-2.86.04-.04.62-.55.51-1.28-.1-.64-.69-1.17-1.43-1.21-1.21.09-2.35-.41-2.89-1.31-.77-1.29-.26-3.32,1.45-4.32-.25-.23-.73-.73-1-1.53-.26-.75-.22-1.41-.18-1.74-.37-.22-1.21-.79-1.63-1.86-.55-1.39-.16-3.06.97-4.3-.1-.17-1.01-1.88-.16-3.72.74-1.61,2.27-2.1,2.52-2.18.97-.09,1.52-.75,1.45-1.16-.07-.37-.67-.73-1.45-.68-.84.06-1.52-.58-1.53-1.31,0-.6.46-1.18,1.13-1.32-.2-.77-.41-1.95-.23-3.37.1-.8.3-1.47.49-2-.45-.16-1.02-.32-1.69-.39-1.34-.13-2.44.15-3.09.39-1.16.27-2.71.52-4.54.47-1.43-.04-2.66-.24-3.65-.47-6.49,2.61-8.35,2.83-8.6,2.36-.27-.49,1.13-2.01,2.52-2.79.9-.51,1.74-.68,2.28-.75-.15-.44-.55-1.8-.03-3.39.57-1.77,1.88-2.66,2.25-2.9-1.79-.6-2.15-1.15-2.16-1.52-.03-.54.65-.87,1.71-1.98.72-.75,1.21-1.44,1.5-1.87-.19-.83-.38-2.14-.15-3.71.17-1.13.5-2.05.81-2.71-.25-.24-1.08-1.1-1.26-2.52-.17-1.4.42-2.43.6-2.72-5.89,1.04-12.37,1.66-19.36,1.51-1.06-.02-2.11-.06-3.14-.12-4.42-3.05-6.24-3.11-7.07-2.51-.51.38-.59.98-1.54,1.78-1.02.86-1.79.88-2.78,1.31-2.7,1.18-2.11,3.27-5,5-1.7,1.02-2.97.93-3.14,1.74-.17.84,1.01,1.78,1.98,2.43-1.16,3.25-2.74,4.48-3.95,5.01-4,1.74-7.8-2.55-13.13-1.28-2.56.61-4.37,2.23-5.5,3.49.59,2.02.27,3.1-.19,3.72-.76,1.01-2.02.96-2.32,1.98-.31,1.02.71,1.95.35,2.32-.36.38-1.36-.59-2.44-.23-.87.29-.91,1.14-1.63,1.74-.65.55-1.9.94-4.53.12-.96.33-2,.65-3.14.93-.91.23-1.78.41-2.61.55h0c-.11.51-.25.88-.37,1.38-.16.7-.29,1.73-.08,3.09-.83.34-2.1.81-3.68,1.2-1.79.44-2.8.49-4.48.73-4.14.58-3.86,1.11-7.15,1.52-3.41.43-4.14-.09-6.48.66-1.7.54-2.97,1.34-3.77,1.92-.35.37-1.73,1.77-3.96,1.98-.67.06-1.69-.75-2.2-.86-1.04-.22-2.09.14-2.88.86-1.25,1.13-1.9,2.2-2.71,2.25-1.72.11-2.7-.94-4.43-.59-1.44.29-2.43,1.36-3.03,2.17-.23.14-.48.28-.74.41-1.06.51-2.07.71-2.85.77-.41.03-.59.53-.3.82,1.14,1.15,1.25,1.73,1.11,2.04-.39.87-2.76.05-5.42,1.39-1.03.52-1.74,1.18-2.17,1.63-.4.76-.84,1.88-.4,2.79.6,1.26,2.32,1.07,2.71,2.25.34,1.04-.83,1.72-.73,3.17.08,1.13.88,1.99,1.49,2.51l-3.84,2.53c-1.04.57-2.72,1.32-4.91,1.63-2.01.29-3.73.1-4.95-.14-.46-.09-.92.09-1.21.46-.64.81-1.57,1.31-2.57,1.35-.57.02-1.06-.11-1.45-.28-.56-.24-1.19-.08-1.55.4-.44.59-1.04,1.15-1.85,1.43-1.01.36-1.74.09-2.04.59-.39.64.64,1.43.72,3.28.03.61.06,1.36-.32,1.74-1.14,1.14-5.44-1.6-5.79-1.82-3.04,1.48-5.63,1.39-6.15.46-.48-.87.68-2.86,2.91-4.56.06-.09.88-1.43.2-2.91-.68-1.47-2.23-1.71-2.34-1.72-.99.3-2.44.87-3.94,1.99-1.22.91-2.07,1.89-2.62,2.64-1.88,1.3-3.78,2.6-5.71,3.91-1.97,1.33-3.92,2.64-5.87,3.92-.08.71-.05,1.66.52,2.42.5.68,1.06.71,1.45,1.26.38.54.58,1.52-.27,3.47-1.65,1.11-3.3,2.22-4.95,3.33-.14,0-1.71-.06-2.71,1.26-.99,1.29-.55,2.77-.51,2.9,1.14-.7,2.55-.48,3.28.4.54.65.66,1.59.33,2.44-.26,1.87-.52,3.74-.78,5.62.34,1.19,1.01,2.71,2.43,3.64,1.21.79,2.18.64,4.08,1.23,1.1.34,2.62.97,4.32,2.2.31-.08,1.67-.41,3.1.34,1.26.67,1.78,1.76,1.92,2.09-1.59,2.25-1.43,4.62-.34,5.44.73.55,1.8.35,2.3.21.81.12,1.47.7,1.67,1.44.24.89-.22,1.88-1.12,2.32-.13.33-.3.92-.2,1.64.2,1.5,1.41,2.31,1.62,2.44-.24.97-.47,1.94-.71,2.9-.81,1.63,0,3.35,1.07,3.71,1.07.36,2.74-.52,3.09-2.3l3.53-4.47c.67-.16,1.61-.49,2.5-1.22,1.6-1.32,1.77-2.93,2.57-4.43.78-1.45,1.78-2.13,5.55-4.36,3.75-2.22,7.05-4.09,9.77-5.6.98-.03,2.56-.16,4.37-.74,2.98-.96,4.18-2.37,7-3.83,1.36-.71,3.49-1.62,6.44-2.17,4.55.03,9.1.05,13.65.08.12.2.93,1.48,2.45,1.7,1.5.22,3.07-.68,3.81-2.25l9.83-2.63c.23.25.87.87,1.89,1.05,1.71.3,2.96-.92,3.09-1.05.93,1.17,2.35,2.7,4.38,4.09,1.53,1.05,2.99,1.73,4.17,2.17,1.07.04,2.4,0,3.89-.32,2.94-.61,5.08-1.94,6.32-2.87.8-1.38,2.25-3.48,4.64-5.39,2.04-1.63,4.04-2.53,5.44-3.04,1.08.35,3.09.85,5.59.53,2.25-.29,3.93-1.12,4.87-1.68.61.37,1.62.87,2.92,1.02,1.49.16,3.57-.13,9.32-4.49,1.54-1.17,3.64-2.86,6.02-5.08.99.24,3.76.77,6.8-.54,1.99-.85,3.26-2.13,3.92-2.91,1.47-.38,2.96-.76,4.47-1.12,1.28-.32,2.56-.62,3.83-.92.08.35.7,2.81,3.18,4.09,2.59,1.34,5.07.26,5.38.12,3.57-3.4,7.14-6.79,10.71-10.19,1.1-.49,2.1-.94,3.2-1.43l6.56-.55c1.05-.09,2.08-.3,3.07-.63l3.02-1.01c-.68-1.08-1.87-1.36-2.93-2.55Zm-60.13-12.13c-.06,0-.11-.02-.17-.03.06,0,.11.02.17.03Zm-.9-.08s-.08,0-.11,0c.04,0,.07,0,.11,0Zm-5.79,2.06c-1.58.12-2.59-.48-4.21,0-1.01.3-1.73.87-2.17,1.28-1.69,1.84-4.21,2.54-6.38,1.79-2.35-.81-3.29-2.95-3.45-3.32-1.21-1.19-2.32-1.67-3.07-1.9-2.28-.69-3.79.22-6.89-.4-.97-.19-1.73-.46-2.17-.64.24-.5.51-1.25.51-2.17,0-1.28-.54-1.6-.38-2.3.25-1.16,2-1.44,4.6-2.55,1-.43,2.43-1.11,4.09-2.17-.12-.2-.25-.41-.39-.63h0c2.24-.88,4-1.58,5.05-2,5.54-2.2,7.43-2.99,9.16-2.12.92.46,1.48,1.23,1.81,1.81-.03.36,0,.86.31,1.25,1.09,1.32,4.36-.5,5.42.69.32.36.52,1.08-.06,2.68-.01.11-.08.89.5,1.5.46.48,1.03.55,1.18.56,1.36.61,1.79,1.29,1.93,1.81.28,1.05-.55,1.8-.87,3.74-.07.44-.1.84-.11,1.21h0c-.17.04-.32.08-.44.11-1.63,1.36-3,1.71-3.96,1.79Zm5.03-2.01s-.02,0-.03,0c0,0,.02,0,.03,0Z"/>
    </g>
  </g>
</svg>