<svg width="29" height="28" viewBox="0 0 29 28" fill="none" xmlns="http://www.w3.org/2000/svg">
<g clip-path="url(#clip0_612_1784)">
<path d="M28.1576 28H8.29394C8.23544 27.9657 8.16525 27.9428 8.10676 27.9085C7.80261 27.7713 7.60374 27.5312 7.52185 27.2111C7.48676 27.0853 7.49845 26.9367 7.49845 26.8109C7.49845 20.6256 7.49845 14.4402 7.49845 8.2548C7.49845 8.16333 7.49845 8.0833 7.49845 7.99183C7.52185 7.47734 7.94299 7.07717 8.45771 7.05431C8.5513 7.05431 8.65658 7.05431 8.75017 7.05431C15.0789 7.05431 21.396 7.05431 27.7248 7.05431C27.8183 7.05431 27.9002 7.05431 27.9938 7.05431C28.4033 7.07717 28.6957 7.28297 28.8829 7.6374C28.918 7.69457 28.9414 7.76317 28.9765 7.82034V27.1997C28.8946 27.3597 28.8127 27.5312 28.7074 27.6684C28.567 27.8514 28.3448 27.9314 28.1342 28.0114L28.1576 28ZM17.4771 16.7611C17.3133 16.7611 17.1729 16.7611 17.0442 16.7611C16.6933 16.7611 16.3306 16.7383 15.9914 16.784C14.225 17.0127 13.0668 18.6019 13.3008 20.1797C13.4763 21.3916 14.1548 22.2491 15.3246 22.6721C16.4944 23.0951 17.5824 22.8779 18.5182 22.0547C19.2084 21.4488 19.536 20.6713 19.536 19.7795C19.536 18.3846 19.536 16.9784 19.536 15.5835C19.536 15.5035 19.536 15.4234 19.536 15.3091C19.6413 15.3548 19.7231 15.3891 19.7933 15.4234C20.2028 15.6178 20.6122 15.8236 21.0216 16.018C21.1269 16.0637 21.2322 16.1209 21.3375 16.1552C21.7118 16.2581 22.0511 16.1895 22.3436 15.9265C22.6243 15.6635 22.7296 15.3434 22.6477 14.9661C22.5658 14.6345 22.367 14.4173 22.0628 14.2687C21.4662 13.9829 20.8813 13.6856 20.2847 13.3998C19.8401 13.1825 19.3956 12.9539 18.9394 12.7481C18.4831 12.5423 17.9801 12.6566 17.6759 13.0225C17.5122 13.2283 17.4537 13.4569 17.4537 13.7199C17.4537 14.6345 17.4537 15.5378 17.4537 16.4524C17.4537 16.5439 17.4537 16.6239 17.4537 16.7497L17.4771 16.7611Z" fill="white"/>
<path d="M3.82517 4.20743C3.82517 4.20743 3.88367 4.10453 3.91876 4.04737C4.10593 3.67007 4.41009 3.46427 4.84292 3.4414C4.91311 3.4414 4.9716 3.4414 5.04179 3.4414C11.394 3.4414 17.7578 3.4414 24.11 3.4414C24.2737 3.4414 24.4375 3.4414 24.5896 3.48714C25.0692 3.62434 25.3617 4.08167 25.3032 4.58473C25.2447 5.05349 24.8236 5.43079 24.3322 5.45365C24.2386 5.45365 24.1334 5.45365 24.0398 5.45365C18.0971 5.45365 12.1426 5.45365 6.19992 5.45365C6.10634 5.45365 6.00105 5.45365 5.88407 5.45365C5.88407 5.56799 5.88407 5.65945 5.88407 5.75092C5.88407 11.5819 5.88407 17.4014 5.88407 23.2323C5.88407 23.3581 5.88407 23.4953 5.86067 23.6096C5.76709 24.0327 5.39274 24.3528 4.9716 24.3985C4.49198 24.4443 4.09423 24.2156 3.89536 23.7926C3.87197 23.7354 3.83687 23.6782 3.81348 23.6325C3.81348 17.1613 3.81348 10.6786 3.81348 4.20743H3.82517Z" fill="white"/>
<path d="M-2.04854e-05 0.766027C-2.04854e-05 0.766027 0.0584708 0.663128 0.0935656 0.605962C0.26904 0.228665 0.584893 0.0228665 1.01773 0C1.08792 0 1.14641 0 1.2166 0C7.56876 0 13.9326 0 20.2848 0C20.4485 0 20.6123 0 20.7644 0.045733C21.244 0.182932 21.5365 0.640261 21.478 1.14332C21.4195 1.61209 20.9984 1.98938 20.507 2.01225C20.4135 2.01225 20.3082 2.01225 20.2146 2.01225C14.2719 2.01225 8.31745 2.01225 2.37473 2.01225C2.28114 2.01225 2.17586 2.01225 2.05887 2.01225C2.05887 2.12658 2.05887 2.21805 2.05887 2.30951C2.05887 8.14047 2.05887 13.96 2.05887 19.7909C2.05887 19.9167 2.05887 20.0539 2.03548 20.1682C1.94189 20.5913 1.56755 20.9114 1.14641 20.9571C0.666781 21.0029 0.26904 20.7742 0.0701691 20.3512C0.0467726 20.294 0.0116778 20.2368 -0.0117188 20.1911C-2.04854e-05 13.7199 -2.04854e-05 7.23724 -2.04854e-05 0.766027Z" fill="white"/>
</g>
<defs>
<clipPath id="clip0_612_1784">
<rect width="29" height="28" fill="white"/>
</clipPath>
</defs>
</svg>
