<svg width="25" height="25" viewBox="0 0 25 25" fill="none" xmlns="http://www.w3.org/2000/svg">
<path d="M21.1102 24.1097C20.7502 23.9797 20.4902 23.6997 20.2302 23.4297C18.4502 21.5797 16.6602 19.7397 14.8802 17.8997C14.7002 17.7197 14.5402 17.5297 14.4402 17.2897C14.3402 17.0597 14.3102 16.8297 14.4802 16.5997C14.5702 16.4797 14.5702 16.3397 14.5302 16.1997C14.4602 15.9097 14.2802 15.6797 14.0702 15.4497C11.8502 17.1297 9.37018 17.7197 6.65018 17.0897C4.46018 16.5797 2.72018 15.3497 1.47018 13.4897C-0.829821 10.0597 -0.409821 5.4697 2.58018 2.5097C5.76018 -0.630299 10.7002 -0.820299 14.1002 1.9197C15.9102 3.3797 16.9802 5.2897 17.2602 7.6097C17.5402 9.9197 16.9502 11.9997 15.5802 13.8897C15.8102 14.1497 16.0602 14.3597 16.4002 14.4397C16.5402 14.4697 16.6802 14.4597 16.8002 14.3697C16.9402 14.2597 17.1002 14.2597 17.2702 14.3097C17.5902 14.3997 17.8202 14.6097 18.0402 14.8397C18.4102 15.2097 18.7702 15.5897 19.1402 15.9697C20.5702 17.4497 22.0002 18.9197 23.4302 20.3997C23.5402 20.5097 23.6502 20.6197 23.7502 20.7397C24.1402 21.1897 24.1302 21.7797 23.7302 22.2097C23.4702 22.4897 23.1802 22.7497 22.9102 23.0197C22.7602 23.1697 22.6002 23.3097 22.4502 23.4597C22.1902 23.7197 21.9302 23.9797 21.5802 24.1097H21.1102ZM8.67018 2.6997C5.31018 2.7397 2.70018 5.3797 2.70018 8.6697C2.70018 11.9897 5.34018 14.6397 8.67018 14.6397C11.9602 14.6397 14.6402 12.0297 14.6402 8.6697C14.6402 5.3397 12.0102 2.7297 8.68018 2.6897L8.67018 2.6997Z" fill="white"/>
</svg>
