<?xml version="1.0" encoding="UTF-8"?>
<svg id="Ebene_2" data-name="Ebene 2" xmlns="http://www.w3.org/2000/svg" viewBox="0 0 151.19 157.56">
  <defs>
    <style>
      .cls-1 {
        fill: #777;
      }
    </style>
  </defs>
  <g id="Ebene_1-2" data-name="Ebene 1">
    <path class="cls-1" d="m150.34,139.37c-.03-.07-.04-.15-.06-.23.48-1,.23-1.57-.81-2.19-3.82-2.28-8.22-2.77-12.37-4.04l-6.95-.96c.55-.44.53-.47-.28-.84-2.76-1.26-5.59-2.39-8.24-3.85-1.68-.93-3.14-2.29-4.58-3.59-.59-.53-.88-1.4-1.31-2.11.1-.1.21-.19.31-.29.39.15.78.29,1.15.45.88.38,1.72.85,2.63,1.13,4.7,1.45,8.95-.07,11.31-4.07,1.18-2.01,1.25-4.27,1.14-6.52-.09-1.87.76-3.01,2.4-3.72.92-.39,1.88-.74,2.69-1.3,2.83-1.95,4.15-4.71,3.8-8.13-.28-2.7.34-4.97,2.5-6.73.34-.28.64-.6.93-.93,1.59-1.79,2.53-3.8,2.58-6.27.05-2.28-.66-4.32-1.53-6.34-.59-1.38-.56-2.72.11-4.05.28-.57.59-1.13.85-1.72,1.82-4.19,1.74-8.14-1.53-11.66-1.73-1.86-2.58-3.92-1.52-6.44.05-.11.07-.23.08-.35.66-5.09-.13-8.53-5.6-11.14-.1-1.2-1.03-1.29-1.92-1.44,0-1.9.03-3.8,0-5.7-.07-3.21-1.74-5.46-4.42-7.02-.59-.34-1.4-.77-1.56.5-.08-.56-.16-1.12-.24-1.68-.39.24-.78.48-1.18.72-.03-.06-.05-.12-.06-.18-.15-.1-.29-.2-.44-.3-.72.08-1.44.17-2.16.25,0,.32,0,.64-.01.96.14,0,.29-.02.43-.03.02-.03.03-.09.06-.1-.03.01-.04.07-.06.1-.14,0-.29.02-.43.03,0-.32,0-.64.01-.96.72-.08,1.44-.17,2.16-.25-.09-.16-.18-.31-.27-.47l.4-.14c-.56-.28-1.12-.26-1.66-.36-.46-.09-.9-.3-1.35-.46-.48,0-.96,0-1.44,0-.24.09-.47.17-.71.26.24-.09.47-.17.71-.26.48,0,.96,0,1.44,0,.96-.09,1.2-.55.88-1.48-.24-.7-.34-1.48-.39-2.23-.3-3.86-2.73-7.03-6.28-8.08-.62-.18-1.37-.53-1.63.52-.48,0-.96,0-1.44,0-1.12-.02-2.24-.03-3.36-.05-.35-.08-.71-.15-1.05-.24-.45-.13-.9-.28-1.35-.43-.4.16-.8.32-1.2.48-.15,1.22-.3,2.43-.44,3.65.14-1.22.29-2.44.44-3.65.4-.16.8-.32,1.2-.48,1.75-.91,1.53-.6.69-2.2-.42-.81-.83-1.63-1.33-2.39-1.25-1.9-2.99-3.15-5.22-3.69-.76-.19-1.07.07-.86.86-2.06-.23-4.12-.49-6.19-.65-.32-.02-.67.43-1.01.67-.24-.03-.48-.06-.72-.09-.4-.3-.79-.59-1.19-.89.48-.44.46-.87,0-1.32-.82-.8-1.55-1.73-2.47-2.4-1.19-.88-2.5-1.65-3.97-1.52.08.87.15,1.62.21,2.37,0,.16,0,.32,0,.48.27.01.53.05.76.12-.24-.06-.49-.1-.76-.12,0-.16,0-.32,0-.48-.25-.39-.5-.78-.79-1.22-.14.19-.24.35-.35.5l-.29-.28c-.09.34-.18.69-.27,1.03h0c.09-.34.18-.69.27-1.03-.81-.21-1.61-.45-2.43-.61-.69-.14-1.41-.18-2.11-.27-.53.24-1.11.42-1.57.75-.53.38-1.39.6-1.1,1.58-.01.65-.02,1.3-.03,1.95-.23-.71-.66-1.44-.63-2.14.02-.74-.19-.81-.76-.73.04-.48.76-1.06-.13-1.41-1.63-.64-3.28-1.25-4.94-1.81-.34-.11-.77.03-1.18.05.29.78.51,1.38.73,1.97,0,.08,0,.16,0,.24h0c0-.08,0-.16,0-.24-.56-.49-1.11-.98-1.67-1.46-.08.07-.16.15-.24.22.08.16.16.31.24.47-.55-.16-1.09-.32-1.64-.48-.9.03-1.8.06-2.7.08-.07,0-.15-.03-.22-.06-.19-.13-.37-.35-.56-.36-.87-.04-2.1,1.01-2.35,1.88-.18.63-.45,1.24-.68,1.86,0,.64,0,1.28,0,1.91.08.16.16.3.23.44-.07-.14-.15-.28-.23-.44,0-.64,0-1.28,0-1.91-.02-.69.01-1.43-1-1.38-1.41.06-2.81.14-4.21.2-.71.03-.99.28-.53.95-.9-.26-1.8-.62-2.72-.75-.42-.06-.9.3-1.36.47.57.09,1.13.18,1.7.27.16.05.31.12.44.19-.14-.07-.28-.14-.44-.19-.57-.09-1.13-.18-1.7-.27-1,.19-1.99.42-3,.56-1.29.19-1.69.83-1.22,2.03.1.25.07.54.1.81-.16.24-.35.47-.49.72-.16.31-.29.64-.43.96-.13-.57-.27-1.13-.48-2.02-.55.64-.95,1.05-1.28,1.51-.74,1.03-1.5,1.93-2.92,2.06-.31.03-.56.71-.83,1.09-.44.14-.88-1.15-1.32,0l-1.11-.22c-.55-.02-1.1-.04-1.65-.06-.7-.84-2.53-.66-3.58.35-.15.07-.31.14-.46.2-.09,0-.18,0-.27,0-.3.14-.78.21-.86.42-.17.46-.1,1-.17,1.5-.14.94.71,1.94-.17,2.84,0,.27,0,.55-.01.82,0-.27.01-.55.01-.82-.15-.47-.3-.95-.54-1.67-.38.44-.73.67-.84.99-.62,1.88-1.28,3.73-2.94,4.99-.77-.14-1.54-.33-2.32-.42-.58-.07-1.16-.01-1.03.85-.07.02-.15.04-.22.07-.25-.02-.49-.04-.74-.06-.15-.22-.27-.59-.47-.64-2.24-.52-3.22.16-3.54,2.43-.06.43,0,.88-.09,1.3-.08.36-.3.68-.46,1.02,0-.16.04-.33,0-.47-.16-.44-.36-.87-.54-1.31-.32.31-.82.58-.92.95-.45,1.75-.81,3.53-1.17,5.3-.15.77-.05,1.63-.36,2.31-.47,1.04-.27,1.5.83,1.61-.47.16-.93.43-1.4.46-1.15.07-2.3.01-3.45.04-.36,0-.94-.04-.46.63-.4.42-.8.85-1.2,1.27-.68.29-.89.74-.77,1.5.09.59-.09,1.23-.15,1.85-.24-.73-.48-1.46-.78-2.4-.33.42-.65.65-.74.94-.41,1.31-.97,2.63-1.06,3.97-.14,2.08.15,4.19.1,6.29-.02.9.22,1.17,1.05,1.03h0c.47.3.95.61,1.42.91-1.27.28-2.53.55-3.8.83-.43-.78-1.1-.56-1.68-.31-1.46.62.11,1.7-.31,2.52-.06.12.24.45.4.65.04.05.23-.02.35-.03,0,.15,0,.31-.01.46-.06.23-.13.46-.19.7-.17.41-.33.82-.5,1.24-.27-.79-.54-1.59-.86-2.54-.28.38-.67.68-.74,1.05-.36,1.73-.84,3.48-.87,5.23-.03,1.52.48,3.04.75,4.57.28,1.57.37,1.63,1.96,1.28-.4.48-.8.95-1.2,1.43l-.25,1.18c.1.96.21,1.93.31,2.89,0,0,0,0,0,0-.1-.96-.21-1.93-.31-2.89-.09.41-.18.81-.27,1.22-.39.16-.77.32-1.16.48-.44-.7-.76-.21-.94.16-.32.64-.59,1.31-.78,2-1.04,3.85-.24,7.41,1.72,10.79.3.65.63,1.28.9,1.94.62,1.53-.08,2.98-.28,4.46-.68,5.07.26,9.47,5.04,12.31,1.75,1.04,2.33,2.64,2.53,4.6.18,1.83.75,3.63,1.15,5.44.39.5.75,1.03,1.17,1.51,1.3,1.5,2.93,2.38,4.87,2.83,2.55.59,3.19,1.46,3.31,4.06.27,5.6,3.67,9.21,9.22,9.78.36.04.73,0,1.07.07.77.17,1.71.19,2.23.65.74.66,1.23.52,1.85.02-.51.61-1.06,1.19-1.52,1.84-.17.25-.12.65-.16.99.79-.55,1.57-1.1,2.36-1.66-.79.55-1.57,1.1-2.36,1.66-.35.31-.7.63-1.05.94-.18-.12-.51-.35-.53-.34-.53.67-1.03,1.35-1.54,2.04-1.12.32-2.24.64-3.35.96-.1-.16-.16-.43-.29-.47-.73-.23-2.46.67-2.83,1.45-.32.15-.63.3-.95.45v-.82c-1.3.53-2.47.97-3.62,1.5-.29.13-.47.52-.7.79-.32.16-.64.32-.96.48-.04-.15-.08-.31-.12-.46-.77.31-1.55.61-2.3.96-.09.04,0,.45,0,.69-.07.09-.15.18-.22.26-.23.07-.46.15-.69.22-1.06.47-2.12.94-3.18,1.41,1.06-.47,2.12-.95,3.18-1.41-.65.22-1.3.44-1.95.66-.43-.03-.91-.21-1.28-.08-2.05.75-4.08,1.59-6.11,2.39-.95.37-1.9.73-2.85,1.09.03.15.07.29.1.44.73-.14,1.46-.27,2.18-.41,1.21.08,2.42.17,3.64.25-.16.39-.32.79-.48,1.18-2.4.4-3.48,1.44-3.02,3.26.7,2.78,2.06,5.16,5.11,5.91,1.42.35,2.91.66,4.36.62,5.09-.15,10.18-.45,15.27-.71,2.66-.14,5.32-.32,7.98-.48,5.04-.31,10.09-.62,15.13-.92,2.94-.18,5.88-.34,8.82-.51,5.2-.31,10.41-.62,15.61-.93-.15-.26-.3-.51-.46-.79.37-.16.66-.28.94-.4,5.37-.31,10.74-.61,16.11-.93,5.53-.32,11.06-.65,16.58-.99,5.17-.31,10.34-.64,15.51-.94,4.61-.27,9.23-.43,13.84-.77,2.1-.15,4.2-.49,6.25-.96,2.36-.54,3.9-2.19,5.04-4.29.89-1.64.26-3.09-.41-4.56Zm-4.1-72.56c-.09-.47-.22-.93-.39-1.38.17.45.31.91.39,1.38Zm-9.42,14.26c-.11-.7-.24-1.4-.37-2.09,1.1-.15,2.19-.31,3.29-.46-1.1.15-2.19.31-3.29.46.13.7.26,1.39.37,2.09Zm-.38-3.04h0c1.02.01,2.04.02,3.06.03-1.02-.01-2.04-.02-3.06-.03Zm5.45-12.94s0,0,0,0c-.03-.35-.05-.71-.08-1.06l.08,1.06Zm-.24-4.55h0c0-.25-.03-.48-.07-.71.04.22.07.46.07.71Zm0,20.85c-.08.39-.17.79-.25,1.18-.32.48-.64.96-.97,1.44-.62.32-1.22.67-1.84,1,.61-.33,1.22-.68,1.84-1l.97-1.44c.08-.39.17-.79.25-1.18Zm-.49-14.16c.07-.19.15-.37.22-.56-.07.19-.15.37-.22.56-.32.24-.63.49-.94.73.31-.24.62-.49.94-.73Zm-3.1-19.14s0,0,0,0c0-.64,0-1.28-.01-1.92,0,.64,0,1.28.01,1.92Zm.69,18.89c.26-.2.48-.41.68-.64-.2.23-.42.44-.68.64-.39.21-.77.44-1.17.62.4-.18.78-.41,1.17-.62Zm1.69,7.95c.25,1.2.49,2.4.74,3.59-.25-1.2-.49-2.4-.74-3.59-.96-.24-1.91-.48-2.87-.73.96.24,1.91.48,2.87.73Zm-3.36-23.65c-.08.13-.15.25-.23.38-.1.07-.21.13-.29.21.09-.08.19-.14.29-.21l.23-.38Zm-.74-6.31c.08,1.51.16,3.03.25,4.54-.08-1.51-.16-3.03-.25-4.54-.09,0-.18,0-.27,0,.09,0,.18,0,.27,0Zm-2.84,31.84c1.1-.23,2.19-.48,3.29-.68-1.1.21-2.19.45-3.29.68.07.5.15.99.22,1.49,0,0,0,0,0,0-.07-.5-.15-.99-.22-1.49-.16-.15-.31-.3-.47-.46.16.15.31.3.47.46Zm-2.46,21.55c0-.11-.02-.25-.03-.37,0,.12.03.26.03.37h0Zm-.03-.38c0-.13,0-.23.05-.28-.06.05-.06.16-.05.28Zm-.87-66.92v-.72c0,.24,0,.48,0,.72.09.4.17.8.26,1.21.28.14.54.31.79.5-.25-.19-.51-.36-.79-.5h0c-.09-.4-.17-.8-.26-1.21-.38.32-.76.63-1.14.95.38-.32.76-.63,1.14-.95Zm-.96,5.73c.33-.39.66-.77.99-1.16.08-.25.17-.51.25-.76-.08.25-.17.51-.25.76.04.07.06.15.1.22-.03-.07-.06-.15-.1-.22-.33.39-.66.77-.99,1.16-.41.19-.81.4-1.22.61.4-.21.81-.42,1.22-.61Zm-110.01-4.71c-.08.7-.14,1.4-.22,2.09h0c.08-.7.15-1.4.22-2.09Zm-2.86,2.76c.27.07.54.15.8.22.78.06,1.13.43,1.33.92-.19-.49-.55-.86-1.33-.92-.27-.07-.54-.15-.8-.22,0,0,0,0,0,0Zm-.26,36.22c.02-.55.04-1.1.06-1.66.07-2.24.13-4.48.2-6.71-.07,2.24-.13,4.48-.2,6.71h0c-.02.55-.04,1.1-.06,1.66-.14,0-.28,0-.42,0,.14,0,.28,0,.42,0Zm-1.17-35.95c-.38.96-.77,1.92-1.15,2.88.38-.96.77-1.92,1.15-2.88h0Zm-1.22,1c.08-.39.16-.79.24-1.18-.08.39-.16.79-.24,1.18-.08.11-.17.21-.25.31.08-.11.17-.21.25-.31Zm.5,8.58l1.44.18c-.48-.06-.96-.12-1.44-.18-.48-.15-.96-.3-1.44-.45.48.15.96.3,1.44.45Zm1.3,34.91c-.11-.53-.22-1.05-.33-1.58-.06-.65-.17-1.3-.22-1.95.05.65.15,1.3.22,1.95.11.53.22,1.05.33,1.58Zm-7.04,5.63h0c-.57.07-1.14.15-1.71.22-.08.09-.15.17-.23.26.08-.09.15-.17.23-.26.03-.7.05-1.15.22-1.43-.17.28-.19.72-.22,1.43.57-.07,1.14-.15,1.71-.22Zm-.02-3.38c-.13-.12-.25-.25-.37-.38.12.12.25.25.37.38.96.08,1.92.17,2.88.25-.96-.08-1.92-.17-2.88-.25Zm2.22-1.19c1.35.28,2.68.65,4.01.98h0c-1.34-.33-2.67-.69-4.01-.98Zm1.62-15.56c.4-.32.79-.64,1.19-.95.22-.13.42-.29.61-.48-.19.19-.39.36-.61.48-.4.32-.79.64-1.19.95Zm-.25-23.75c.1.18.21.33.32.47-.12-.14-.22-.29-.32-.47h0Zm-.25,7.69c.32.08.64.16.96.24.25.56.49,1.12.74,1.68-.25-.56-.49-1.12-.74-1.68-.32-.08-.64-.16-.96-.24h0c-.08,0-.16,0-.24,0,.08,0,.16,0,.24,0Zm1.04,3.1c-.05-.15-.09-.3-.13-.45h0c.04.15.08.3.13.45Zm-1.85.76c-.04.15-.1.3-.15.45,0,.16.02.32.03.48,0-.16-.02-.32-.03-.48.05-.15.11-.3.15-.45Zm-.36,6.23c.21-.06.42-.13.62-.2-.21.06-.42.14-.62.2-.2.06-.39.09-.58.11.19-.02.38-.05.58-.11Zm3.58.9c-1.45.29-2.88.67-4.32,1.02h0c1.44-.35,2.87-.73,4.32-1.02Zm-7.21,7.16c.15.03.31.05.46.08.57-.07,1.14-.24,1.71-.29-.57.05-1.14.22-1.71.29,0,0,0,0,0,0-.15-.03-.31-.05-.46-.08-.16.02-.33.04-.49.06h0c.16-.02.33-.04.49-.06-.48-.46-.96-.92-1.44-1.38.48.46.96.92,1.44,1.38Zm-.47,9.87c.24.08.48.16.71.24-.24-.08-.48-.16-.71-.24-.56-.24-1.12-.48-1.68-.72.56.24,1.12.48,1.68.72Zm-.96,5.52c.4-.16.8-.32,1.2-.48.48,0,.96,0,1.43,0h-1.43c-.4.16-.8.32-1.2.48h0c-.36-.34-.69-.68-.98-1.05.3.36.63.71.98,1.05Zm-1.44-11.77s0-.07,0-.1c0,.03,0,.07,0,.1-.02.06-.05.13-.07.19.02-.06.05-.13.07-.19Zm6.95,23.02c-.8-.23-1.6-.47-2.41-.7h0c-.64-.24-1.27-.49-1.91-.73-.56-.56-1.12-1.11-1.68-1.67-.04-1.77-.06-3.55-.11-5.32-.01-.54-.08-1.08-.13-1.63-.33-.35-.64-.7-.92-1.07.28.36.59.72.92,1.07.04.54.11,1.08.13,1.63.05,1.77.08,3.55.11,5.32.56.56,1.12,1.11,1.68,1.67.64.24,1.27.49,1.91.73.8.23,1.6.47,2.41.7.21.01.4.01.6,0-.19,0-.39,0-.6,0Zm1.67,11.27c-.08-.88-.16-1.76-.24-2.64.08.88.16,1.76.24,2.64l.67.56c-.22-.19-.45-.37-.67-.56Zm4.32-5.5c-.95-.08-1.89-.15-2.84-.23.95.08,1.89.15,2.84.23h0Zm.05,8.21c.05.22.14.42.25.6-.11-.19-.2-.39-.25-.6Zm.62-5.09h0c.14,0,.29.03.43.05-.14-.01-.3-.05-.43-.05Zm1.73-4.78c-1.44.08-2.88.17-4.32.25,1.44-.08,2.88-.17,4.32-.25.02.08.06.16.1.24-.04-.08-.08-.16-.1-.24Zm-.34-10.29c-1.47.55-2.94,1.09-4.42,1.64,1.47-.55,2.94-1.09,4.42-1.64-.05-.41-.11-.82-.16-1.23l-.51-1.17c-.32-1.04-.65-2.08-.97-3.12-.07-.33-.14-.66-.22-.99h0c.07.33.14.66.22.99.32,1.04.65,2.08.97,3.12.17.39.34.78.51,1.17.05.41.11.82.16,1.23.35.7.69,1.41,1.04,2.11-.35-.7-.69-1.41-1.04-2.11Zm1.58,15.75s0,0,0,0c.14-.08.27-.15.4-.23l-.4.23Zm.64-46.24c-.08-.09-.17-.18-.25-.26.08.09.17.18.25.26h0Zm.79-2.6h0c.06-.25.11-.5.17-.76-.06.25-.11.5-.17.76Zm-9.39,92.97c-.12.34-.24.68-.37,1.01.13-.34.25-.67.37-1.01h.6c-.2,0-.4,0-.6,0Zm6.23-.27h0c-.4.01-.8.03-1.2.04l1.2-.04c.2-.03.4-.06.6-.1-.2.03-.4.06-.6.1Zm5.76-.43h0c.31-.02.61-.04.92-.06-.31.02-.61.04-.92.06Zm-11.06-.55c4.64-.31,9.28-.63,13.92-.95,0,0,0,0,0,0-4.64.32-9.28.64-13.92.95Zm13.95-6.9c-.23.22-.45.39-.66.46.21-.07.43-.24.66-.46-.47.09-.82.08-1.06-.04.24.12.59.13,1.06.04.24-.07.57-.13.85-.19-.28.06-.61.12-.85.19Zm3.33.46c-.15.03-.3.07-.43.12.13-.05.28-.09.43-.12,0-.19,0-.37.01-.54-.02.17-.01.35-.01.54Zm98.96-6.54c1.67.26,3.34.52,5.01.78-1.67-.26-3.34-.52-5.01-.78-.06-.01-.11-.03-.17-.04l.17.04Zm-6.94-.4c.49-.22.99-.43,1.48-.67-.48.24-.99.45-1.48.67h0c-.15.03-.3.05-.44.05.14,0,.29-.02.44-.05Zm-5.99-.01c0,.08,0,.16,0,.24,0-.08,0-.16,0-.24-.1-.14-.19-.3-.29-.45.1.15.19.31.29.45Zm.97-24.64c.31-.58.62-1.16.94-1.74h0c-.31.58-.62,1.16-.94,1.74Zm7.86-24.72c-.23.97-.46,1.93-.69,2.9.23-.97.46-1.93.69-2.9h0Zm-2.6-9.1c.09.16.18.32.27.47-.09.31-.17.62-.26.93.09-.31.17-.62.26-.93-.09-.16-.18-.32-.27-.47Zm.03,3.86c.14-.72.28-1.44.42-2.16-.14.72-.28,1.44-.42,2.16-.02.54-.03,1.07-.05,1.61,0,.12.02.23.03.34-.01-.11-.02-.23-.03-.34h0c.02-.54.03-1.07.05-1.61Zm1.53,8.93c.06-.02.11-.05.17-.09-.05.03-.11.06-.17.09-.61,1.17-1.21,2.34-1.82,3.51.61-1.17,1.21-2.34,1.82-3.51Zm-.44-12.76c.05-2.41.07-4.82.1-7.23,0,0,0,0,0,0-.03,2.41-.06,4.82-.1,7.23Zm-1.31-18.74c.22,1.68.44,3.37.66,5.05-.22-1.68-.44-3.37-.66-5.05.73-1.6,1.46-3.21,2.18-4.81h0c-.73,1.6-1.46,3.21-2.18,4.81Zm2.62-9.07c-.22-.24-.4-.57-.53-.96-.48-.96-.97-1.92-1.45-2.88.48.96.97,1.92,1.45,2.88.12.39.31.71.53.96Zm-2.75-10.45c.35.21.71.41,1.06.61-.36-.2-.71-.41-1.07-.61-.38-.37-.76-.74-1.14-1.1.38.37.76.74,1.14,1.1Zm-.63,50.48c-.13-.55-.46-1.1-.68-1.65.35-1.1.69-2.21,1.04-3.31-.35,1.1-.69,2.21-1.04,3.31.21.55.55,1.1.68,1.65Zm-.98-14.17c.16,0,.32,0,.48.01.09.04.18.07.26.09-.08-.02-.16-.05-.26-.09-.16,0-.32,0-.48-.01Zm0-44.55c.08.4.17.79.25,1.19-.08-.4-.17-.79-.25-1.19-.2.42-.42.82-.63,1.24.21-.41.43-.82.63-1.24Zm.97,19.87c-.55.35-1.1.69-1.65,1.04.07.09.13.18.2.27.56,1.8,1.12,3.6,1.68,5.39-.56-1.8-1.12-3.6-1.68-5.39-.07-.09-.13-.18-.2-.27.55-.35,1.1-.69,1.65-1.04Zm-.99,54.17c0,.24.04.44.09.61-.05-.17-.08-.38-.09-.61-.29-.84-.65-1.66-.9-2.5.25.84.62,1.66.9,2.5Zm-.84,7.08c-.04.33-.06.66-.1.99.24.36.47.72.71,1.08,1.12-.1,2.25-.19,3.37-.29.16-.24.32-.48.48-.72-.18-1.14-.35-2.28-.53-3.43h0c.18,1.14.35,2.28.53,3.43.06,0,.12,0,.18,0-.06,0-.12,0-.18,0-.16.24-.32.48-.48.72-1.12.1-2.25.19-3.37.29-.24-.36-.47-.72-.71-1.08-.13.14-.24.31-.36.47.12-.16.24-.32.36-.47.04-.33.07-.66.1-.99Zm-.21-84.85c-.05-.41-.17-.82-.38-1.2.21.38.33.79.38,1.2Zm-1.57-6.6c0,.4,0,.8,0,1.2h0c0-.4,0-.8,0-1.2Zm-.48,6.45c.25-.71.5-1.41.75-2.12,0-.56,0-1.13-.01-1.69,0,.56,0,1.13.01,1.69h0c-.25.71-.5,1.41-.75,2.12-.32.36-.68.63-1.06.84.38-.21.73-.48,1.06-.84Zm.26,20.12c.19.35.41.68.62,1.02-.2-.34-.42-.68-.62-1.02-1-1.56-1.99-3.12-2.99-4.68,1,1.56,1.99,3.12,2.99,4.68Zm-2.89,4.34c.56-.24,1.12-.47,1.68-.71-.34-.53-.73-1.03-1.02-1.59.3.55.68,1.06,1.02,1.59.17-.03.33-.05.51-.08-.18.03-.35.05-.51.08-.56.24-1.12.47-1.68.71l-1.18.44c.39-.15.79-.29,1.18-.44Zm-2.64,2.19c-2.07.7-4.14,1.4-6.21,2.1,2.08-.61,4.16-1.22,6.24-1.83,2.23-.76,4.45-1.52,6.68-2.28-2.23.76-4.45,1.52-6.68,2.28-2.08.61-4.16,1.22-6.24,1.83-.03.01-.06.02-.08.03.03-.01.06-.02.08-.03,2.07-.7,4.14-1.4,6.21-2.1Zm-8.97,26.92c.37-.91.73-1.82,1.1-2.72.38-.82.76-1.63,1.15-2.45-.38.82-.76,1.63-1.14,2.45-.37.91-.73,1.82-1.1,2.72Zm.83,43.73h0c-.07-.31-.11-.63-.17-.94.06.31.1.63.17.94Zm-.53-50.04c.08.08.16.17.24.25.08-.02.17-.05.25-.07-.08.02-.17.05-.25.07l-.24-.25Zm1.03-8.9c-.1-1.96-.2-3.92-.28-5.88.09,1.96.19,3.92.28,5.88,0,2.07,0,4.14,0,6.21,0-2.07,0-4.14,0-6.21Zm.27,7.68s0,0,0,0c-.1-.22-.21-.45-.31-.67.11.22.21.45.32.67Zm1.84,47.21c.07.16.15.31.22.47-.07-.16-.15-.31-.22-.47-.55-.83-1.09-1.66-1.64-2.51.55.84,1.1,1.67,1.64,2.51Zm-.94-6.48h0c.2.16.43.29.67.42-.24-.13-.47-.26-.67-.42Zm2.17,11.96h0c-.47-.8-.95-1.59-1.42-2.39.47.8.95,1.59,1.42,2.39Zm-2.18-17.25c1.04-.79,2.08-1.59,3.12-2.38.08-.15.16-.31.24-.46.95-1.04,1.91-2.08,2.86-3.12.16.03.31.05.47.08,0,0,0,0,0,0-.16-.03-.31-.05-.47-.08-.95,1.04-1.91,2.08-2.86,3.12-.08.15-.16.31-.24.46-1.04.79-2.08,1.59-3.12,2.38Zm.24-14.37c.88.72,1.76,1.44,2.64,2.15.88.72,1.76,1.44,2.63,2.16-.88-.72-1.76-1.44-2.64-2.16-.88-.72-1.76-1.44-2.64-2.15Zm4.3-19.71c-1.44-.29-2.89-.59-4.33-.88,1.44.29,2.89.59,4.33.88,1.68.42,3.36.84,5.04,1.25-1.68-.42-3.36-.84-5.04-1.25Zm-.71-1.62c.44.12.88.24,1.32.36-.44-.12-.88-.24-1.32-.36l-.95-.24c-.62.05-1.02-.13-1.26-.45.25.32.65.49,1.26.45,0-.11.02-.24.03-.36,0,.12-.03.25-.03.36.32.08.64.16.95.24Zm4.49-16.68c.74-.27,1.48-.54,2.22-.82.16-.08.33-.15.49-.23-.16.08-.33.15-.49.23-.74.28-1.48.55-2.22.82Zm-9.76-32.19c.48.4.96.79,1.44,1.19.16-.02.35-.01.52-.02-.17,0-.36,0-.52.02-.48-.4-.96-.79-1.44-1.19l-1.67-1.22c.56.41,1.11.81,1.67,1.22Zm-.21,6.72c.05-.06.1-.12.15-.18l-.15.18c.02.08.04.17.05.25.06,0,.11-.01.16-.04-.05.03-.1.04-.16.04-.02.07-.06.14-.09.21.04-.07.07-.14.09-.21-.02-.08-.04-.17-.05-.25Zm-2.4-19.72c.12.3.31.6.4.9-.09-.3-.28-.6-.4-.9,0-.07,0-.15-.01-.22,0,.07.01.14.01.22Zm-.74,6.03h0c.09.65.17,1.3.26,1.96.42-.55.85-1.1,1.27-1.64l-.37-1.28h0c.12.43.24.85.37,1.28-.42.55-.85,1.1-1.27,1.64-.22.15-.45.3-.67.44.22-.15.45-.3.67-.44-.09-.65-.17-1.3-.26-1.96Zm-.13,11.01s0,0,0,0c-.13.01-.26.03-.38.04.13-.01.26-.03.38-.04Zm-1.53,5.54c.08-.08.16-.16.23-.24-.08.08-.16.16-.23.24-.16.2-.32.4-.48.6.16-.2.32-.4.48-.6Zm1.43,4.07c.4-.48.8-.96,1.19-1.44.48-.64.96-1.29,1.43-1.93.11-.15.23-.31.35-.47-.12.16-.23.32-.35.47-.48.64-.96,1.29-1.43,1.93-.4.48-.8.96-1.19,1.44-.65.8-1.31,1.59-1.97,2.4.65-.8,1.31-1.6,1.97-2.4Zm-3.72-11.97c.36.08.72.16,1.08.24-.36-.08-.72-.16-1.08-.24-.27-.14-.53-.28-.8-.42.27.14.53.28.8.42Zm1.57,21.95c1.29,2.04,2.57,4.08,3.86,6.12.56.85,1.13,1.69,1.69,2.54.3-.01.6-.03.9-.04,0,0,0,0,0,0,.09.4.18.81.27,1.21-.09-.4-.18-.81-.27-1.21-.3.01-.6.03-.9.04-.56-.85-1.13-1.69-1.69-2.54-1.29-2.04-2.57-4.08-3.86-6.12-1.02-1.34-2.04-2.67-3.07-4.01l3.07,4.01Zm.49,63.57c.54.88,1.08,1.75,1.62,2.63.08.1.16.2.24.3h0c-.08-.1-.16-.2-.24-.3-.25.12-.49.29-.74.43.25-.14.49-.31.74-.43-.54-.88-1.08-1.75-1.62-2.63Zm.19-21.04c.02-.48.05-.96.07-1.45.47-.88.93-1.77,1.4-2.65-.47.88-.93,1.77-1.4,2.65-.02.48-.05.96-.07,1.45Zm-.69.94c.09-.17.19-.33.28-.5-.49-.47-.98-.95-1.47-1.42-.1.02-.19.05-.29.07h0c-.21-.11-.41-.22-.62-.33.21.11.42.21.62.33l.29-.07c.49.47.98.95,1.47,1.42h0c-.09.17-.19.33-.28.5Zm.01,16.13c-.32-.58-.64-1.17-.97-1.75-1.22-1.64-2.45-3.28-3.66-4.94,1.21,1.65,2.44,3.29,3.66,4.94.33.58.64,1.17.97,1.75Zm-1.8-18.53c.12,0,.25-.01.37-.02h0c-.12,0-.25.01-.37.02,0,0,0,0,0,0Zm1.07.24c.09-.07.18-.15.27-.22.16-.16.32-.33.48-.49h0s0,0,0,0c-.16.16-.32.33-.48.49-.09.07-.18.15-.27.22Zm-2.58-73.34c.03-.23.04-.48.07-.71-.02.24-.04.48-.07.71h0Zm.22,4.31c-.11.01-.22.02-.33.03h0c.11-.01.22-.02.33-.03Zm-.99,74.55c.2-.23.39-.47.58-.7-.2.23-.39.47-.58.7,0,0-.01,0-.02,0,0,0,.02,0,.02,0Zm-.31-7.99s.05.09.08.14c-.02-.05-.05-.1-.08-.14h0Zm-3.99-.17c-.88-.64-1.76-1.28-2.63-1.92-.16-.21-.32-.32-.46-.37.15.05.3.16.46.37.88.64,1.76,1.28,2.63,1.92,1.32.94,2.63,1.89,3.96,2.81-1.33-.93-2.64-1.87-3.96-2.81Zm1.1,23.5c-.19-.33-.41-.65-.62-.97.22-.31.45-.62.67-.93-.22.31-.45.62-.67.93.21.32.42.64.62.97Zm0-14.34c.19-.18.37-.36.57-.53.08-.09.16-.18.24-.27-.08-.08-.17-.15-.25-.23.08.08.17.15.25.23.31-.24.62-.48.93-.71h0c-.31.24-.62.48-.93.71-.08.09-.16.18-.24.27-.19.17-.38.35-.57.53Zm-1.98,10.18c-.11.35-.22.7-.32,1.05,0,0,0,0,0,0,.11-.35.22-.7.32-1.05Zm-2.42-6.87c-.02-.08-.04-.16-.06-.23-.48-.84-.96-1.69-1.44-2.53.48.84.96,1.69,1.44,2.53.32-.24.63-.48.95-.72.05-.06.1-.12.16-.18-.06.06-.1.12-.16.18-.32.24-.63.48-.95.72.02.08.04.15.06.23Zm-1.48,16.77c-.06-.06-.12-.13-.19-.19.06.06.13.12.19.19h0Zm1.92,1.48h0c-1.02.14-2.05.28-3.07.41,1.02-.14,2.05-.28,3.07-.41Zm-.5-59.63c.78,1.4,1.57,2.81,2.35,4.21-1.8.66-3.61,1.32-5.41,1.98,1.8-.66,3.61-1.32,5.41-1.98-.78-1.4-1.57-2.81-2.35-4.21Zm-1.22-3.56c.6-.77,1.17-1.57,1.75-2.36h0c.24-.21.48-.43.73-.64h0c-.24.21-.48.43-.73.64-.58.79-1.15,1.59-1.75,2.36Zm1.57,8.96c-.26.11-.51.21-.77.32,0,0,0,0,0,0,.25-.11.51-.21.77-.32Zm.89,1.01c.72-.17,1.44-.34,2.16-.51-.72.17-1.44.34-2.16.51-.88.32-1.76.64-2.64.95.88-.32,1.76-.64,2.64-.95Zm2.1-1.39c.02.15.05.29.07.43.07.15.13.3.2.45-.07-.15-.13-.3-.2-.45-.02-.14-.04-.28-.07-.43Zm-3.79,6.7c-.17.31-.35.62-.52.93h0c.17-.31.35-.62.52-.93Zm1.52,25.52c.06.07.23.06.34.08.52.79.78,1.18.74,1.55.04-.37-.22-.76-.74-1.55-.12-.03-.28-.01-.34-.08Zm5.43-78.53c.08-1.36.16-2.72.23-4.08h0c-.08,1.36-.16,2.72-.23,4.08-.26.24-.51.38-.74.44.23-.06.48-.2.74-.44Zm-3.28,68.03c-1.29-.95-2.57-1.9-3.86-2.85,1.29.95,2.57,1.9,3.86,2.85.62.41,1.23.86,1.88,1.23-.65-.38-1.25-.82-1.88-1.23Zm.17-14.08h0l1.66.4-1.66-.4Zm1.6-21.33c-.22.31-.44.61-.66.92-.65.8-1.31,1.59-1.97,2.39.65-.8,1.31-1.59,1.97-2.39.22-.3.43-.61.66-.92Zm-1.61-33.1c.13.05.25.11.37.18-.12-.07-.25-.13-.37-.18-1.13-.42-2.27-.83-3.43-1.26,1.16.43,2.3.84,3.43,1.26Zm-2.16-4.32c.08-.48.17-.96.25-1.44-.08.48-.17.96-.25,1.44-.49.32-.98.63-1.47.95.49-.32.98-.63,1.47-.95Zm-5.49,2.8l1.44-1.37c-.48.46-.96.92-1.44,1.37h0Zm5.49,7.14c.96.41,1.92.82,2.89,1.24.14-.69.4-1,.76-.93-.36-.06-.61.24-.76.94,0,0,0,0,0,0-.96-.41-1.92-.83-2.89-1.24-1.99-.69-3.99-1.38-5.98-2.07,1.99.69,3.99,1.38,5.98,2.07Zm-6.22-2.58c.08.09.16.18.24.26-.08-.09-.16-.18-.24-.26-1.44-.14-2.88-.27-4.33-.41,1.44.14,2.88.27,4.33.41h0Zm.23,6.78c-.08.56-.16,1.12-.24,1.68-.16.88-.32,1.76-.47,2.64-.09.55-.17,1.1-.25,1.65.09-.55.16-1.1.25-1.65.16-.88.32-1.76.47-2.64.08-.56.16-1.12.24-1.68Zm-3.17,41.88s0,0,0,0c.43.11.85.22,1.28.32.15-.08.3-.17.45-.25-.15.08-.3.17-.45.25-.1.05-.21.16-.31.15.1,0,.2-.1.31-.15-.43-.11-.85-.22-1.28-.32Zm-1.48-39.13c.43.05.87.09,1.3.13h0c-.16.56-.32,1.12-.48,1.68.16-.56.32-1.12.48-1.68-.43-.04-.87-.08-1.3-.13Zm-1.41-4.84c1.06.02,2.11.07,3.17.17.02-.07.03-.15.04-.22l.07-.29c-.02.1-.05.2-.07.29-.01.07-.03.15-.04.22.05.11.11.21.16.32-.05-.11-.11-.21-.16-.32-1.06-.1-2.11-.16-3.17-.17Zm1.17,44.79c.28.06.56.12.85.18-.07,1.06-.14,2.13-.2,3.19.07-1.06.14-2.13.2-3.19-.28-.06-.56-.12-.85-.18Zm-12.31,25.95c.13-.32.26-.65.4-.97-.14.32-.27.65-.4.97,0,0,0,0,0,0Zm-.29-14.95h0c.09-.04.19-.07.29-.1-.1.03-.2.07-.29.1Zm-2.89-1c.17.25.33.5.5.75h0c-.17-.25-.33-.5-.5-.75,1.4-1.42,2.81-2.85,4.21-4.27.13,0,.26-.02.39-.03-.13,0-.26.02-.39.03-1.4,1.42-2.81,2.85-4.21,4.27Zm2.42,3.38c-.16-.16-.32-.32-.48-.48-.16.16-.33.31-.49.47.16-.16.33-.31.49-.47.17-.39.35-.78.52-1.18.14-.23.27-.45.41-.68-.14.23-.27.45-.41.68l-.52,1.18c.16.16.32.32.48.48Zm-1.1,34.56c-.12-.03-.23-.06-.35-.09-.4,0-.8,0-1.2,0,.4,0,.8,0,1.2,0,.27-.81.53-1.62.79-2.43-.26.81-.52,1.62-.79,2.43.12.03.24.06.35.09Zm-3.91-22.4c-.33,1.06-.66,2.12-.99,3.17-.32.55-.63,1.11-.94,1.66.31-.55.63-1.11.94-1.66.33-1.06.66-2.12.99-3.17-.7,1.38-1.41,2.76-2.11,4.13.7-1.38,1.41-2.76,2.11-4.13.3-.73.6-1.45.9-2.18-.3.73-.6,1.45-.9,2.18Zm.26,6.05c-.02.08-.04.16-.07.24.02-.08.04-.16.07-.24h0Zm-.66,15.27h0c-.37.65-.74,1.3-1.12,1.95.37-.65.75-1.3,1.12-1.95Zm-1.54,5.87c0,.06,0,.12,0,.18,0-.06,0-.12,0-.18-.31-.08-.61-.16-.92-.24.31.08.61.16.92.24Zm-1.05-5.51c.29.07.59.13.87.21h0c-.29-.08-.59-.13-.87-.21Zm4.87,13.14c.14.23.3.43.46.61.17.17.34.31.54.4-.2-.09-.37-.23-.54-.4-.17-.17-.32-.38-.46-.6-.39-.32-.79-.64-1.18-.97.39.32.79.64,1.18.97Zm-5.53-62.35c.81.18,1.62.35,2.43.52l.85.22c-.28-.07-.56-.15-.85-.22-.81-.18-1.62-.35-2.43-.52Zm.96,15.35h0c-.51-1.02-1.02-2.04-1.54-3.06.51,1.02,1.02,2.04,1.54,3.06Zm1.68-57.17c-.05-.11-.11-.22-.16-.34-.19-.59-.39-1.18-.61-1.85.22.66.41,1.26.61,1.85,0,0,0,0,0,0,.05.11.11.22.16.34Zm-.69,31.04c0,.09,0,.17-.01.26h0c0-.09,0-.17.01-.26Zm6.63,14.38c-1.29-.07-2.59-.15-3.88-.22,1.29.06,2.59.14,3.88.22.1,0,.2.02.3.02,0,.08,0,.17.01.25,0-.08,0-.17-.01-.25-.1,0-.2-.02-.3-.02-1.93.02-3.87.02-5.8.06,1.93-.03,3.87-.04,5.8-.06Zm-3.27-1.37c.17.16.34.31.51.47h0c-.17-.16-.34-.31-.51-.47Zm3.15-.53c.23,0,.47,0,.7.02h0c-.23,0-.47-.01-.7-.02Zm-.77,4.2c-.4.4-.82.78-1.21,1.19.39-.41.8-.79,1.21-1.19,0,0,0,0,0,0Zm1.7-5.35c.38-.66.76-1.32,1.14-1.98h0c-.38.66-.76,1.32-1.14,1.98Zm2.57,9.75c-.22-.37-.43-.75-.65-1.12-.19.22-.38.44-.56.66h0c.19-.22.38-.44.56-.66.23.06.46.13.7.19-.23-.06-.46-.13-.7-.19.22.37.43.75.65,1.12Zm-1.61-.89s0,0,0,0c.17-.13.3-.26.39-.4-.09.14-.21.27-.39.4,0,0,0,0,0,0Zm2.37,4.29h0c-.9.3-1.8.59-2.69.91.89-.32,1.79-.61,2.69-.91Zm5.75-17.27h0c-.35-.48-.71-.97-1.06-1.45-.27.48-.54.96-.81,1.44.27-.48.54-.96.81-1.44.18-.77.36-1.54.55-2.31-.18.77-.36,1.54-.55,2.31.35.48.71.97,1.06,1.45Zm-.25,16.79c-.46-.09-.93-.18-1.39-.26-.12-.06-.23-.13-.36-.2.13.07.24.13.36.2.46.09.93.18,1.39.26Zm-1.2-7.47c-.23.16-.46.31-.69.47-.06.18-.1.37-.13.57.03-.2.06-.39.13-.57.23-.16.46-.31.69-.47Zm-.46,27.23c-.27.71-.42,1.47-.5,2.26.1,0,.19,0,.29,0-.1,0-.19,0-.29,0-.24,0-.48.01-.71.02.24,0,.48-.01.71-.02.07-.79.22-1.55.5-2.26Zm-3.13-64.1c-.57.08-1.15.17-1.72.25.57-.08,1.15-.17,1.72-.25.83-.04,1.66-.08,2.49-.13-.83.04-1.66.09-2.49.13Zm1.2,46.95c0-.07-.02-.14-.04-.2h0c.02.07.03.13.04.2Zm-1.01-19.15h-.1s.1,0,.1,0Zm-.7,19.12c.15-.63.31-1.25.46-1.88-.15.63-.31,1.25-.46,1.88-.54,1.94-1.07,3.88-1.61,5.81.54-1.94,1.07-3.88,1.61-5.81Zm-1.26,5.99c.49-1.74.98-3.49,1.46-5.23-.49,1.74-.98,3.49-1.46,5.23-.05.02-.1.04-.15.06.05-.02.1-.04.15-.06Zm1.54,1.21c-.17,0-.34-.02-.51-.03-.16-.06-.32-.12-.48-.18.16.06.32.12.48.18.17,0,.34.02.51.03Zm-1.21,16.14c.24.04.47.07.71.11-.24-.04-.47-.07-.71-.11-.04-.01-.07-.02-.11-.03l.11.03Zm.25-2.14c2.7-.28,5.41-.53,8.11-.78.54-.07,1.08-.15,1.62-.22-.54.07-1.08.15-1.62.22-2.7.26-5.41.5-8.11.78Zm6.67-36.87c0-.71.01-1.42.02-2.13,0,.71-.01,1.42-.02,2.13,0,0,0,0,0,0Zm1.42,15.03c.09.16.17.32.26.47l1.2,3.11c.08.08.14.17.19.28-.05-.1-.12-.19-.19-.28h0c-.4-1.04-.8-2.08-1.2-3.11-.09-.16-.17-.32-.26-.47Zm.69-16.61c.19.1.38.21.57.31h0c-.19-.1-.38-.21-.57-.31Zm.78,10.07h0c0,.1,0,.19,0,.29,0-.1,0-.19,0-.29Zm.27,11.79c.05.09.1.18.14.27-.05-.09-.1-.18-.14-.27-.17-.47-.34-.94-.51-1.41.17.47.34.94.51,1.41Zm-.28-23.74c-.31.32-.62.64-.94.96-.25-.25-.51-.49-.76-.74.25.25.51.49.76.74.31-.32.62-.64.94-.96h0c.32.31.64.62.96.92-.32-.31-.64-.62-.96-.92Zm-3.33-51.29s0,0,0,0c-.4.39-.8.78-1.2,1.17.4-.39.8-.78,1.2-1.17Zm-2.89,1.42c1.84.24,3.68.47,5.52.71.08.01.15.01.23,0h0c1.44.35,2.87.69,4.31,1.04-1.44-.35-2.87-.69-4.31-1.04-.08.01-.15.01-.23,0l.02.1c.31.8.62,1.6.97,2.52-.35-.92-.66-1.72-.97-2.52,0,0-.02-.1-.02-.1-1.84-.24-3.68-.47-5.52-.71-1.03,0-2.06,0-3.09,0-.17-.05-.33-.1-.51-.15.17.05.34.1.51.15,1.03,0,2.06,0,3.09,0Zm-1.2-8.38h0c-.19-.07-.39-.14-.61-.22.22.08.41.15.61.22Zm-4.02,0c1.34,0,2.68,0,4.02,0-1.34,0-2.68,0-4.02,0h0Zm.51,49.63h0c.11.49.22.99.33,1.48-.11-.49-.22-.99-.33-1.48Zm.23,4.14s0,0,0,0c-.05-.18-.1-.36-.14-.54.05.18.1.36.14.54Zm-1.26,1.84c.79.96,1.58,1.92,2.38,2.88-.79-.96-1.58-1.92-2.38-2.88-.3-.24-.59-.48-.89-.72.3.24.59.48.89.72Zm-.2,2.15c.31.09.61.18.92.28-.31-.09-.61-.18-.92-.28-.56-.48-1.12-.95-1.68-1.43l1.68,1.43Zm-1.17-.58c-1.25-.83-2.35-1.56-3.46-2.3h0c1.11.73,2.21,1.47,3.46,2.3Zm-1.29-1.5c-1.57-1.45-3.15-2.9-4.72-4.35,1.13-1.22,2.26-2.44,3.39-3.66-1.13,1.22-2.26,2.44-3.39,3.66,1.57,1.45,3.15,2.9,4.72,4.35Zm-.96-17.76c-.09.1-.18.2-.27.3.09-.1.18-.2.27-.3-.24-1.11-.48-2.22-.72-3.33.24,1.11.48,2.22.72,3.33Zm-2.38-14.86c-.07-.16-.13-.33-.2-.49-.12-.29-.23-.57-.35-.86.12.29.23.57.35.86,0,0,0,0,0,0,.07.16.13.33.2.49.04.15.08.3.13.44-.04-.15-.08-.3-.13-.44Zm-2.86-12.01c.97-.28,1.93-.57,2.9-.85-.97.28-1.93.58-2.9.85,0-.09,0-.18-.01-.26,0,.09,0,.18.01.26Zm-1.67,3.79h0c.24.43.49.86.73,1.28-.24-.43-.49-.86-.73-1.28Zm-.24-9.75s0,.01,0,.01h0c-.09-.02-.18-.02-.27-.03.09,0,.18.01.27.02Zm.02,2.44c.29-.08.54-.1.72.01-.18-.11-.43-.09-.72-.01-.8.62-1.61,1.23-2.39,1.88.78-.65,1.59-1.25,2.39-1.88Zm.18,69.35c-.09-.2-.24-.41-.43-.62-.68-1.34-1.37-2.67-2.03-4.02.66,1.35,1.35,2.68,2.03,4.02.19.21.34.42.43.62Zm3.21,2.28c.71-.79,1.41-1.59,2.12-2.38-.71.79-1.41,1.59-2.12,2.38-2.01,1.85-4.02,3.71-6.04,5.55,2.02-1.84,4.03-3.7,6.04-5.55Zm-4.14,21.31c.16-.32.33-.65.49-.97h0c-.16.32-.33.65-.49.97Zm.25,15.31c0,.07,0,.13,0,.2-.36-.1-.72-.2-1.1-.31.39.11.75.21,1.1.31,0-.07,0-.13,0-.2Zm-3.83,7.05c-.06-.42,0-.85,0-1.28.18-.4.35-.8.53-1.2-.18.4-.35.8-.53,1.2,0,.43-.06.86,0,1.28Zm-1.26-13.96c-.14.46-.29.92-.43,1.37.14-.46.29-.92.43-1.37.65-1.38,1.3-2.76,1.94-4.14-.65,1.38-1.3,2.76-1.94,4.14Zm.55,12.68c-.09.07-.17.15-.26.22-.07-.17-.14-.35-.21-.54.08.19.15.36.21.54.09-.07.17-.15.26-.22Zm-.91,2.91s0,0,0,0c-.23-.05-.46-.09-.61-.12.15.03.38.08.61.12Zm-.3-17.54c-.12.31-.25.62-.38.95.13-.33.26-.64.38-.95.8-1.6,1.6-3.19,2.4-4.79l-2.4,4.79Zm-3.12-26.83c.06.12.12.24.19.35-.06-.12-.12-.24-.19-.35-.09-.1-.19-.2-.28-.3.09.1.19.2.28.3Zm-.56-8.2h0c.11.09.21.17.32.26-.11-.09-.21-.17-.32-.26Zm1.74,43.64c.15-.47.26-.82.37-1.08-.11.26-.22.61-.37,1.08-.49.9-.98,1.81-1.46,2.71l1.46-2.71Zm.74,11.96c.24-.77.48-1.54.72-2.31-.24.77-.48,1.54-.72,2.31-.34,0-.68.02-1.02.03.34,0,.68-.02,1.02-.03Zm-.02-38.01c0-.1,0-.2,0-.31.18-.42.35-.83.53-1.25-.18.42-.35.83-.53,1.25,0,.1,0,.2,0,.31Zm0-19.75c.4-.12.81-.23,1.21-.35.07.29.14.58.22.87-.07-.29-.14-.58-.22-.87-.4.12-.81.23-1.21.35Zm2.13-63.69c0-.08.01-.15.02-.23,0,.08-.01.15-.02.23-.13.08-.27.15-.4.23.13-.08.27-.15.4-.23Zm-.65,34.08h0c-.1-.27-.21-.53-.31-.8.1.27.21.53.31.8Zm1.88,20.53c.07,0,.14,0,.21,0-.07,0-.14,0-.21,0-1.82-.47-3.64-.93-5.46-1.41,1.82.48,3.64.94,5.46,1.41Zm-2.39-2.16h0c-1.44-.31-2.89-.62-4.33-.92,0,0,0,0,0,0-1.52-.41-3.04-.81-4.56-1.22,1.52.41,3.04.81,4.56,1.22,1.44.31,2.89.62,4.33.92Zm-3.84,13.41c-.16-.29-.32-.57-.47-.86-.64.13-1.28.26-1.91.39.64-.13,1.28-.26,1.91-.39.16.29.32.57.47.86Zm1.14-25.85c-.32.58-.62,1.12-.92,1.66-.51,1.1-1.03,2.19-1.54,3.29.51-1.1,1.03-2.19,1.54-3.29.3-.54.6-1.08.92-1.66Zm-4.51-12.2c.16.16.32.31.48.47.41.39.81.79,1.22,1.18.72.64,1.44,1.28,2.16,1.92.1.18.21.32.32.43-.11-.11-.22-.25-.32-.43l-2.16-1.92-1.22-1.18c-.16-.16-.32-.31-.48-.47-.22-.17-.43-.34-.65-.51.22.17.43.34.65.51Zm-.97,16.55c-.79,1.82-1.59,3.64-2.38,5.46-.08.01-.15.03-.23.04.08-.01.15-.03.23-.04.79-1.82,1.59-3.64,2.38-5.46Zm-1.63,13.83c.06.97.13,1.94.2,2.91h0c-.06-.97-.13-1.94-.2-2.91Zm.04,2.9c-.19-1.83-.38-3.67-.57-5.5-.02-.25-.04-.49-.05-.74.02.25.03.49.05.74.19,1.83.38,3.67.57,5.5Zm-1.97-32.36c.4.4.8.81,1.2,1.21.31.24.63.48.94.73-.31-.24-.63-.48-.94-.73-.4-.4-.8-.81-1.2-1.21Zm1.43-24.66c-.16.25-.32.5-.48.75.08,1.27.16,2.53.24,3.8.46-.18.92-.36,1.38-.54-.46.18-.92.36-1.38.54-.08-1.27-.16-2.53-.24-3.8.16-.25.32-.5.48-.75Zm-2.63,9.58c.27.1.55.2.86.31-.31-.11-.58-.21-.86-.31-.22-.22-.45-.44-.67-.67.22.22.45.44.67.66Zm-1.95,6.26c.34-.37.67-.76,1-1.14-.33.38-.66.77-1,1.14.88-.66,1.77-1.32,2.65-1.97.24-.24.48-.48.71-.72,1.05-.95,2.09-1.89,3.14-2.84-.08-.08-.17-.17-.25-.25.08.08.17.17.25.25h0c-1.05.95-2.09,1.89-3.14,2.84-.24.24-.48.48-.71.72-.88.66-1.77,1.32-2.65,1.97-.31.33-.63.66-.94.99.31-.33.63-.66.94-.99Zm1.96,71.03c.3.3.61.58.95.84-.16.16-.32.32-.48.48.16-.16.32-.32.48-.48-.34-.27-.65-.55-.95-.84Zm-.93-24.16c.31-.13.62-.28.93-.41.34-.05.61-.15.8-.3-.19.15-.46.24-.8.3-.31.13-.62.27-.93.41Zm.57,26.32s-.08.08-.12.12c-.05.11-.1.2-.16.27.05-.07.11-.16.16-.27l.12-.12Zm.81-36.19c.01.36.02.72.04,1.07.16,1.57.33,3.13.47,4.7-.14-1.57-.31-3.13-.47-4.7-.02-.36-.03-.72-.04-1.07Zm-3.12-35.24c-.08-.04-.15-.08-.21-.11h0c.06.03.14.07.21.11Zm1.8,4.85c-1.29,1.61-2.5,3.12-3.7,4.62-.42.54-.82,1.09-1.21,1.65.38-.56.79-1.11,1.21-1.65,1.2-1.51,2.41-3.01,3.7-4.62Zm-2.96,20.7l-.59-.09c.2.03.39.06.59.09.37.08.74.16,1.11.24-.37-.08-.74-.16-1.11-.24Zm.12,1.81c-.85-.11-1.69-.37-2.53-.56h0c.84.19,1.68.45,2.53.56Zm.61-26.52v-.02s0,.01,0,.02c-.22.08-.47.13-.7.2.23-.07.48-.12.7-.2Zm.16,4c-.96,1.13-1.89,2.29-2.83,3.44-.52.77-1.05,1.54-1.57,2.31.52-.77,1.05-1.54,1.57-2.31.94-1.15,1.87-2.31,2.83-3.44Zm-4.43-8.24c.52.35,1.03.71,1.54,1.07-.51-.36-1.03-.72-1.54-1.07-.04-.1-.08-.2-.12-.3.04.1.08.2.12.3Zm1.13,31.18c1.05.27,2.1.54,3.15.81-1.05-.27-2.1-.54-3.15-.81-.63-.11-1.27-.21-1.9-.32.63.11,1.27.21,1.9.32Zm-1.92,1.43c.4.14.81.29,1.21.43.48.08.96.17,1.44.25,1.2.26,2.41.48,3.6.76-1.19-.28-2.4-.5-3.6-.76,0,0,0,0,0,0-.48-.08-.96-.17-1.44-.25-.4-.14-.81-.29-1.21-.43h0c-.19-.05-.38-.1-.57-.15.19.05.38.1.57.15Zm-.09.96c-.1.63-.29,1.22-.54,1.79.25-.57.43-1.17.54-1.79Zm-3.25-28.33c.29-.04.59-.11.89-.15-.3.05-.59.12-.89.15-.21-.06-.41-.11-.62-.17.21.06.41.11.62.17Zm-.71,78.38c-.09.24-.18.48-.27.71.09-.24.18-.48.27-.71h0c.23-.1.46-.19.7-.29-.23.1-.46.19-.7.29Zm1.42-11.65c-.46-.64-.92-1.28-1.4-1.94.48.67.94,1.31,1.4,1.94.31.34.62.68.93,1.02.76.78,1.52,1.55,2.27,2.33-.76-.78-1.52-1.55-2.27-2.33-.31-.34-.62-.68-.93-1.02Zm-1.4-10.17c.08.04.17.07.24.11.15.19.29.37.44.56-.15-.19-.29-.37-.44-.56-.07-.04-.16-.08-.24-.11Zm4.97,5.66c-.24-.36-.47-.73-.71-1.09-.65-1.44-1.31-2.87-1.96-4.31.65,1.44,1.31,2.87,1.96,4.31.24.36.47.73.71,1.09Zm-.7-11.9h0c.16.22.31.44.45.67-.14-.22-.29-.45-.45-.67Zm-.72,37.87c1.35-.15,2.7-.31,4.05-.46-.07-1.37-.14-2.73-.2-4.1.07,1.37.14,2.73.2,4.1-1.35.15-2.7.31-4.05.46Zm2.4-40.09c-1.2.43-2.4.86-3.6,1.29-.95.31-1.9.62-2.85.93.95-.31,1.9-.62,2.85-.93,1.2-.43,2.4-.86,3.6-1.29,1.29-.38,2.57-.77,3.86-1.15-1.29.38-2.57.77-3.86,1.15Zm3.89,65.24c.38-.08.76-.15,1.15-.23,0,0,0,0,0,0-.38.08-.76.15-1.15.23Zm2.59-1.91h0c-.23-.32-.46-.65-.69-.97.04-.69.41-1.09.86-1.42-.45.34-.82.74-.86,1.42.23.32.46.65.69.97Zm.98-33.61c.7-.53,1.41-1.06,2.11-1.6-.97-.8-1.94-1.6-2.9-2.4-.54.71-1.08,1.42-1.62,2.13.54-.71,1.08-1.42,1.62-2.13.03-.04.04-.08.04-.13,0,0,0,0,0,0,0,.05-.02.09-.04.13.97.8,1.94,1.6,2.9,2.4-.71.53-1.41,1.06-2.11,1.6Zm-.35-7.13c-.69.47-1.38.93-2.07,1.4-1.03-.87-2.06-1.74-3.09-2.62,1.03.87,2.06,1.74,3.09,2.62l2.07-1.4c.98-1.13,1.95-2.25,2.93-3.38-.98,1.13-1.95,2.25-2.93,3.38Zm1.99-26.87c-.63.18-1.27.36-1.9.54.63-.18,1.27-.36,1.9-.54.48-.23.96-.45,1.44-.68-.48.23-.96.45-1.44.68Zm2.42,36.27c-.09-.02-.19-.05-.28-.07.09.02.19.05.28.07h0Zm3.06-28.2s0,0,0,0c-.78-1.54-1.56-3.08-2.34-4.63.78,1.54,1.56,3.08,2.34,4.63Zm-1.91,38.27c.23.19.48.41.75.68.16-.4.33-.79.49-1.19.07-.13.14-.26.21-.39-.07.13-.14.26-.21.39-.16.4-.33.79-.49,1.19-.24.4-.47.8-.71,1.21.24-.4.47-.8.71-1.21-.27-.27-.51-.49-.75-.68Zm.53,22.01h0s0,0,0,0c0,0,0,0,0,0Zm.06-6.5c.05-.39.12-.78.17-1.16.15-.08.31-.17.46-.25.25-1.1.49-2.21.74-3.31.23-.03.46-.06.69-.09h0c-.23.03-.46.06-.69.09-.25,1.1-.49,2.21-.74,3.31-.15.08-.31.17-.46.25-.05.39-.12.78-.17,1.16Zm21.25,6.47c-6.22.35-12.44.7-18.66,1.05-.57.05-1.14.1-1.72.15.57-.05,1.14-.1,1.72-.15-.09-.42-.18-.83-.27-1.25-.64.07-1.28.14-1.91.22.64-.07,1.28-.14,1.91-.22.09.42.18.83.27,1.25,6.22-.35,12.44-.7,18.66-1.05h0Zm5.75-17.69c-1.92.31-3.84.62-5.75.93,1.92-.31,3.84-.62,5.75-.93.12,0,.24,0,.34,0-.1,0-.22.01-.34,0Zm1.19,12.21c-.28.24-.55.49-.82.73.28-.24.55-.49.82-.73.09-.03.18-.07.27-.12-.09.04-.18.08-.27.12Zm.96-22.24c-.8-.09-1.6-.17-2.39-.26h0c-.15-.08-.29-.15-.44-.23.15.08.29.15.44.23.8.09,1.6.17,2.39.26h0Zm-1.67-1.96c-.56,0-1.12,0-1.68,0-.8-.07-1.6-.15-2.41-.22-.08,0-.17,0-.25-.01.08,0,.17,0,.25.01.8.07,1.6.15,2.41.22.56,0,1.12,0,1.68,0,.72,0,1.44,0,2.16,0-.72,0-1.44,0-2.16,0Zm4.06,1.94h0c.9,0,1.35,0,1.56.21-.21-.22-.66-.21-1.56-.21Zm-.73-.05c1.45-.06,2.89-.12,4.34-.18.06.19.13.39.19.58-.06-.19-.13-.39-.19-.58l-4.34.18Zm4.32,12.3c.18-.18.36-.36.53-.54h0c-.18.18-.36.36-.53.54Zm-.2-37.44c-.16-.48-.32-.95-.48-1.43-.09-.16-.18-.29-.28-.4.1.1.19.23.28.4l.48,1.43c.25.4.5.8.74,1.21-.25-.4-.5-.8-.74-1.21Zm-.26-4.49h0c.08-.16.17-.32.25-.47.66-.13.88-.38.88-.69,0,.31-.22.56-.88.69-.08.16-.17.32-.25.47.72-.33,1.22-.33,1.63.02-.41-.35-.9-.36-1.63-.02Zm1.66-48.67c-.39,1.99-.78,3.99-1.17,5.98.39-1.99.78-3.99,1.17-5.98.09-1.2.18-2.41.27-3.61-.09,1.2-.18,2.41-.27,3.61Zm1.7,64.19c-.22.06-.44.13-.66.19.22-.06.44-.13.66-.19.11-.04.22-.08.33-.12-.11.04-.22.08-.33.12Zm-.5-18.19c-.28-.41-.56-.82-.84-1.23.28.41.56.82.84,1.23.39.33.77.66,1.18,1-.41-.34-.79-.67-1.18-1Zm5.3-24.46c.2-.05.41-.11.61-.16-.21.05-.41.11-.61.16-1.3.58-2.59,1.17-3.89,1.75,1.3-.58,2.59-1.17,3.89-1.75Zm-2.84,29.65c-.07.12-.14.21-.21.28.07-.07.14-.16.21-.28h0Zm3.06-14.3c.12.1.24.2.36.31-.12-.1-.24-.21-.36-.31-.88-.62-1.77-1.25-2.65-1.87.88.62,1.77,1.25,2.65,1.87Zm-2.62,46.26h0c2.53-.77,5.05-1.55,7.61-2.33-2.55.78-5.08,1.55-7.61,2.33Zm5.53-15.86s-.05.03-.05.03h0s.05-.03.05-.03c-.42-1.03-.85-2.05-1.27-3.08.42,1.03.85,2.05,1.27,3.08,1.02,2.02,2.1,4.01,3.04,6.06-.94-2.05-2.02-4.04-3.04-6.06Zm3.08,11.7s.01-.09.02-.13c.62-.29,1.24-.58,1.86-.87-.62.29-1.24.58-1.86.87,0,.04-.01.09-.02.13Zm1.75,5.55c-.04-.64-.07-1.27-.11-1.91-.13-.71-.27-1.42-.4-2.13.13.71.27,1.42.4,2.13.04.63.07,1.27.11,1.9Zm.04,6.77c.19-.17.38-.38.58-.53-.43-.36-.86-.7-1.28-1.07.42.37.85.72,1.28,1.07-.2.15-.38.35-.58.53Zm1.36-18.51c.22.34.43.68.65,1.02-.22-.34-.43-.68-.65-1.02-.18-.31-.36-.62-.55-.93.18.31.36.62.55.93Zm-.49,6.04h0c.04.17.07.34.11.52-.04-.17-.07-.34-.11-.52Zm.21,7.87c1.64-.1,3.28-.21,4.98-.32-1.7.11-3.34.21-4.98.32h0Zm6.73,2.44c-.07-.26-.15-.51-.22-.77-.06-.07-.12-.12-.17-.17.05.05.11.1.17.17h0c.07.26.15.51.22.77.31.06.61.12.92.18-.31-.06-.61-.12-.92-.18-.88.23-1.76.46-2.63.68.88-.23,1.76-.46,2.63-.68Zm.43-15.34h0c.09.09.18.17.28.26-.09-.09-.18-.17-.28-.26Zm1.49,17.91c-.96.17-1.91.34-2.87.52.96-.17,1.91-.34,2.87-.52,0-.06,0-.12,0-.17l-2.84-.24s-.06.06-.09.09c.03-.03.06-.06.09-.09.95.08,1.9.16,2.84.24,0,.06,0,.12,0,.17Zm-.23-10.76c-.16-.21-.33-.42-.49-.64.17.22.33.43.49.64.11.13.22.25.33.37-.11-.12-.22-.25-.33-.37Zm-1.41-32.08c.74-1.63,1.56-3.22,2.36-4.82.06-.15.12-.29.18-.44l-.18.44c-.8,1.6-1.62,3.19-2.36,4.82Zm5.5,50.23c.28.01.56,0,.8-.09-.23.09-.51.1-.8.09Zm1.75-.07c.13-.16.19-.41.14-.79-.16-.07-.33-.13-.49-.2,0,0,0,0,0,0,.16.07.33.13.49.2.05.39-.01.63-.14.79Zm.38-3.44c-.1-.05-.24-.1-.35-.16.11.05.25.1.35.16.16.8.32,1.6.49,2.4l-.49-2.4Zm-1.91-8.15c.06.18.08.32.05.42-.07.3-.46.28-.78.33-.21.62-.79,1.15-1.45,1.46-.33.16-.68.26-1.01.28.33-.03.68-.13,1.01-.28.66-.31,1.24-.84,1.45-1.46.32-.05.72-.03.78-.33.02-.1,0-.23-.05-.42-.08-.3-.16-.61-.24-.91.95-.09,1.9-.17,2.84-.26-.95.09-1.9.17-2.84.26.08.3.16.61.24.91,1.13-.1,2.26-.2,3.38-.3-1.13.1-2.26.2-3.38.3Zm4.7,10.36s0,0,0,0c.11-.02.22-.04.33-.06-.11.02-.22.04-.33.06Zm-.39-12.52c-.16-.08-.32-.16-.48-.24.16.08.32.16.48.24.52.61,1.04,1.21,1.56,1.82-.52-.61-1.04-1.21-1.56-1.82Zm1.93,4.78c0-.16,0-.32,0-.47,0,.16,0,.32,0,.47.12.06.23.12.35.18-.12-.06-.23-.12-.35-.18Zm-2.39-21.56c-.57.5-1.12,1.04-1.69,1.55.56-.51,1.11-1.05,1.69-1.55.98-.88,2.01-1.71,2.92-2.67-.91.95-1.94,1.78-2.92,2.67Zm3.83,22.75s0,0,0,0c-.14-.22-.28-.44-.42-.66.22-.07.47-.22.68-.26-.21.04-.46.19-.68.26.14.22.28.44.42.66Zm4.78-42.89c-.15-.21-.32-.42-.48-.63.16.21.32.42.48.63.14-.5.28-.99.43-1.49-.14.5-.28.99-.43,1.49-1.44,2.73-2.86,5.47-4.32,8.18,1.46-2.71,2.89-5.45,4.32-8.18Zm-3.82,27.09c.16.36.34.7.55,1.02-.21-.31-.39-.65-.55-1.02-.17-1.86-.34-3.72-.5-5.57.16,1.86.33,3.72.5,5.57Zm5.5,28.56c-1.94.14-3.87.32-5.81.43,1.94-.1,3.87-.28,5.81-.43.8-.02,1.59-.03,2.39-.05-.8.02-1.59.03-2.39.05Zm2.89-5.56s.04-.07.05-.1c-.02.03-.04.07-.05.1.23,0,.47.01.7.02-.23,0-.47-.01-.7-.02Zm4.08,2.6c0,.09.01.17.02.26,0-.09-.01-.17-.02-.26-.04-.28-.04-.5.02-.65-.05.15-.06.37-.02.65Zm.49-5.04c-.39-.09-.79-.17-1.18-.26-.8-.39-1.6-.77-2.4-1.16-.31-.15-.61-.29-.92-.44-.05-.02-.09-.05-.14-.07.05.02.1.05.14.07.31.15.61.29.92.44l2.4,1.16c.39.09.79.17,1.18.26,0,0,0,0,0,0,.06.29.14.58.21.88-.07-.29-.15-.58-.21-.88Zm5.48,5.8c-1.68.16-3.36.32-5.04.48,1.68-.16,3.36-.32,5.04-.48.17-.28.33-.56.46-.85-.13.29-.29.57-.46.85Zm4.07,1.23h0c.28,0,.56,0,.84,0-.28,0-.56,0-.84,0Zm3.24,2.36c.13-.2.19-.41.2-.67,0,.25-.07.47-.2.67Zm2.52-2.63h0c.12,0,.24.02.35.05-.11-.03-.23-.04-.35-.05Zm1.2-.23s0,0,0,0c-1.28.07-2.56.15-3.84.22.4,0,.8,0,1.2.01.28.64.45,1.17.5,1.62-.04-.45-.22-.99-.5-1.62h-1.2c-.08,0-.16,0-.24.02,0,0,0,0,0,0,.08-.01.16-.02.24-.03,1.28-.07,2.56-.15,3.84-.22.24,0,.48,0,.72,0-.24,0-.48,0-.72,0Zm-3.13-3.6s-.04.1-.07.14c.02-.05.05-.1.07-.14,2.08.65,4.17,1.3,6.25,1.96-2.08-.65-4.17-1.3-6.25-1.96Z"/>
  </g>
</svg>