<?xml version="1.0" encoding="UTF-8"?>
<svg id="Ebene_2" data-name="Ebene 2" xmlns="http://www.w3.org/2000/svg" viewBox="0 0 227.97 205.17">
  <defs>
    <style>
      .cls-1 {
        fill: #252525;
      }
    </style>
  </defs>
  <g id="Ebene_1-2" data-name="Ebene 1">
    <path class="cls-1" d="m227.52,180.05c-.45-5.86-3.35-9.07-9.12-10.06-3.25-.56-6.57-.77-9.87-1-2.74-.19-5.5-.14-8.25-.29-2.02-.11-3.89-.6-4.88-2.66-1.21-2.5-2.14-5.09-2.39-7.87-.3-3.29-.43-6.6-.74-9.89-.35-3.75-1.87-6.82-5.37-8.66-.99-.52-1.92-1.15-2.87-1.74-2.5-1.56-4.92-3.23-7.84-4.06-1.08-.31-2.12-1.27-2.86-2.19-1.12-1.39-2.03-2.96-2.92-4.52-.71-1.24-1.42-2.52-1.84-3.88-2.14-6.86-4.16-13.76-5.18-20.91-.75-5.24-1.5-10.44.22-15.64.34-1.04.32-2.2.42-3.32.33-3.48-.53-6.55-2.74-9.37-3.27-4.16-6.53-8.3-7.53-13.82-1.08-6-2.64-11.92-4-17.87-.09-.4-.26-.78-.44-1.32-.74.64-1.3,1.13-1.86,1.62-.7-3.39-1.26-6.82-2.12-10.17-1.12-4.34-2.86-8.47-6.44-11.36-3.14-2.55-5.08-5.72-6.33-9.48-.94-2.84-2.12-5.62-4.31-7.77-.53-.52-3.29-1.88-4.78-2.38,0-.01-.01-.03-.02-.04-.24-.24-.47-.48-.71-.72-1.51-.01-3.02-.03-4.53-.04-.02-.06-.04-.13-.06-.19.09-.05.17-.11.26-.16-.03-.02-.06-.06-.09-.06-1.83-.09-3.65-.25-5.48-.24-.93,0-1.87.3-2.8.46-.09.06-.17.13-.26.19-1.39.13-2.77.23-4.16.39-1.49.17-2.98.39-4.47.59-.24,0-.47,0-.71.01-.16.96-.31,1.91-.47,2.87-.08.46-.18.91-.25,1.37-.16.99-.32,1.99-.47,2.98-.77.49-1.63.9-2.29,1.51-.72.67-1.03,1.55-.18,2.43.06.06.01.23,0,.35-.16,1.26-.05,2.39-1.32,3.48-1.42,1.22-2.84,2.2-4.57,2.79-.26.22-.52.43-.77.65-1.63.41-2.06,1.97-2.91,3.12-.21.29-.12.8-.17,1.21,0,.17,0,.35,0,.52-.1.38-.21.77-.31,1.15l-1.16.71c-.1.44-.27.87-.28,1.32-.04,1.1-.01,2.2-.01,3.28-.41,0-.85-.12-1.17.03-.53.23-1.06.56-1.43.99-.24.28-.19.81-.27,1.22-.07.43-.14.87-.2,1.3-.06.42-.12.84-.17,1.26,0,.23,0,.46-.01.69-.01.08-.03.16-.04.24-.99,1.42-1,1.98-.16,3.38.05.08.05.19.03.31-.02.12-.04.25-.05.36-.34.17-.69.33-1.03.5h0c-.07,0-.14,0-.21.03-.23.09-.65.16-.67.29-.14.98-.24,1.96-.29,2.95-.08,1.77-.12,3.53-.16,5.3-.02.87-.25,1.38-1.3,1.36-.37,0-.87.5-1.1.9-.15.24,0,.77.17,1.07.38.65.88,1.24,1.33,1.86-.16-.03-.32-.05-.48-.08-.66.7-1.75,1.31-1.91,2.11-.47,2.24-.65,4.55-.77,6.84-.09,1.79.02,1.75-1.74,2.11-.67.14-1.56-.21-1.97.7l-.49-.21c-.3.17-.8.3-.85.53-.18.76-.21,1.56-.29,2.34,0,.64.02,1.27.03,1.91-.46.7-.83,1.9-1.39,2-1.3.22-1.6,1.26-2.26,2-.2.23-.36.66-.29.94.2.83.53,1.64.8,2.46-.15.35-.3.7-.48,1.13.32.13.66.27,1.01.41s.71.29,1.07.43c.07.41.15.81.23,1.22.08.41.15.81.21,1.22.14.96.43,1.95.29,2.88-.47,3.27-1.09,6.51-1.66,9.76-.24,1.19-.51,2.38-.71,3.58-1,5.93-1.95,11.87-2.99,17.8-.43,2.48-1.04,4.93-1.57,7.39-.08.24-.16.47-.24.71-.59.49-1.25.93-1.76,1.5-.61.69-.71,1.93-2.08,1.72-.13-.02-.29.24-.46.35-1.62,1.04-1.88,2.61-1.71,4.34-.24.47-.49.94-.73,1.4-1.08.18-2.22.19-3.23.57-1.52.57-2.94,1.4-4.4,2.11-.17.42-.33.84-.51,1.25-.27.63-.55,1.25-.83,1.86h1.26c-.29.15-.56.41-.86.44-1.53.13-3.07.21-4.61.31-1.95.83-3.08,2.47-4.08,4.21-.16.28.08.85.23,1.25.1.28.34.5.52.75.06.7.26,1.41.16,2.09-.6,4.1-1.27,8.18-1.91,12.27-.07.97-.14,1.93-.21,2.9-2.03.12-2.93,1.31-3.1,3.23-.03.31-.16.62-.24.93-.54,1.98-.54,1.97-2.59,2.07-.47.02-.93.2-1.41.24-5.33.42-10.68.76-16,1.26-2.19.21-4.35.73-6.52,1.12-.61-.12-2.28.9-3.31,1.23-.42.46-.74.68-.86.97-.67,1.7-1.52,3.37-1.87,5.14-.49,2.45-.55,4.99-.86,7.48-.4,3.18-.09,6.31.64,9.38.74,3.12,2.65,5.43,5.88,6.18,2.36.54,4.8,1.01,7.2,1.01,66.84.05,133.68.06,200.53,0,2.52,0,5.06-.57,7.54-1.14,2.11-.49,3.56-1.97,4.57-3.94,1.1-2.13,1.45-4.43,1.44-6.73-.01-4.42-.12-8.86-.45-13.27Z"/>
  </g>
</svg>