<?xml version="1.0" encoding="UTF-8"?>
<svg id="Ebene_2" data-name="Ebene 2" xmlns="http://www.w3.org/2000/svg" viewBox="0 0 33.78 20.84">
  <defs>
    <style>
      .cls-1 {
        fill: #1d173f;
      }

      .cls-1, .cls-2 {
        opacity: .9;
      }
    </style>
  </defs>
  <g id="Ebene_1-2" data-name="Ebene 1">
    <g id="SachsenAlles" class="cls-2">
      <path id="Chemnitz" class="cls-1" d="m33.72,10.63c-.14-.52-.57-1.2-1.93-1.81-.15-.01-.72-.08-1.18-.56-.58-.61-.51-1.38-.5-1.5.58-1.6.38-2.32.06-2.68-1.06-1.18-4.33.63-5.42-.69-.32-.38-.34-.89-.31-1.25-.33-.58-.89-1.35-1.81-1.81-1.73-.87-3.62-.08-9.16,2.12-1.05.42-2.81,1.12-5.05,2h0c.14.21.27.43.39.63-1.66,1.06-3.09,1.74-4.09,2.17C2.12,8.38.38,8.66.13,9.82c-.15.7.38,1.01.38,2.3,0,.92-.27,1.67-.51,2.17.44.17,1.2.44,2.17.64,3.1.62,4.61-.29,6.89.4.74.22,1.86.71,3.07,1.9.16.37,1.1,2.51,3.45,3.32,2.18.75,4.7.05,6.38-1.79.44-.41,1.16-.98,2.17-1.28,1.62-.48,2.63.12,4.21,0,.95-.07,2.33-.43,3.96-1.79.12-.04.27-.08.44-.11,0-.37.04-.77.11-1.21.32-1.94,1.15-2.69.87-3.74Z"/>
    </g>
  </g>
</svg>