<?xml version="1.0" encoding="UTF-8"?>
<svg id="Ebene_2" data-name="Ebene 2" xmlns="http://www.w3.org/2000/svg" viewBox="0 0 45.53 25.02">
  <defs>
    <style>
      .cls-1 {
        fill: #1d173f;
      }

      .cls-1, .cls-2 {
        opacity: .9;
      }
    </style>
  </defs>
  <g id="Ebene_1-2" data-name="Ebene 1">
    <g id="SachsenAlles" class="cls-2">
      <path id="Dresden" class="cls-1" d="m44.21,13.55c-.17.14-1.28.98-2.82.72-1.51-.26-2.27-1.39-2.39-1.58-.93.34-1.85.15-2.15-.33-.37-.59.02-1.87,1.34-2.49.06-.05.65-.5.62-1.24-.02-.44-.24-.75-.33-.86-.15-.28-.33-.71-.38-1.24-.13-1.19.42-2.09.62-2.39.67-.7.92-1.6.62-2.15-.4-.73-1.89-1.06-3.2-.1-.14.13-1.1.98-2.49.81-1.22-.15-1.92-.97-2.06-1.15-1.68-1.4-3.22-1.86-3.78-1.34-.48.45-.14,1.56-.05,1.86-.88-.45-1.9-.4-2.63.14-.69.51-.87,1.27-.91,1.48-.66.3-1.71.72-3.06,1.05-2.27.55-3.48.36-4.4,1.29-.39.39-.84,1.09-.91,2.44-.31.37-.95,1.01-1.96,1.39-1.75.65-3.31.02-3.68-.14-.54-.37-2.32-1.51-4.77-1.32-3.23.24-5.07,2.57-5.36,2.95-.09.58-.24,2,.57,3.3,1.15,1.84,3.76,2.68,6.41,1.91.13.89.46,2.16,1.48,2.92.91.67,1.86.57,3.54.72,1.11.1,2.74.32,4.73.91,1.92,2.12,3.69,2.84,4.97,3.11,1.85.38,2.61-.2,5.69.14,2.7.3,2.68.82,3.97.62,2.05-.31,2.64-1.69,5.36-3.34,1.65-1,3.14-1.54,4.06-1.82.36-.63.9-1.33,1.72-1.86.69-.45,1-.41,1.63-.91.34-.28,1.52-1.22,1.29-2.25-.18-.78-1.08-1.16-1.29-1.24Z"/>
    </g>
  </g>
</svg>