<svg width="29" height="28" viewBox="0 0 29 28" fill="none" xmlns="http://www.w3.org/2000/svg">
<g clip-path="url(#clip0_610_321)">
<path d="M28.1577 28H8.29406C8.23557 27.9657 8.16538 27.9428 8.10689 27.9085C7.80273 27.7714 7.60386 27.5313 7.52197 27.2111C7.48688 27.0854 7.49858 26.9367 7.49858 26.811C7.49858 20.6256 7.49858 14.4402 7.49858 8.25481C7.49858 8.16335 7.49858 8.08331 7.49858 7.99185C7.52197 7.47735 7.94311 7.07719 8.45783 7.05432C8.55142 7.05432 8.6567 7.05432 8.75029 7.05432C15.0791 7.05432 21.3961 7.05432 27.7249 7.05432C27.8185 7.05432 27.9004 7.05432 27.9939 7.05432C28.4034 7.07719 28.6958 7.28299 28.883 7.63742C28.9181 7.69458 28.9415 7.76318 28.9766 7.82035V27.1997C28.8947 27.3598 28.8128 27.5313 28.7075 27.6685C28.5672 27.8514 28.3449 27.9314 28.1343 28.0114L28.1577 28ZM17.4772 16.7611C17.3134 16.7611 17.173 16.7611 17.0444 16.7611C16.6934 16.7611 16.3308 16.7383 15.9915 16.784C14.2251 17.0127 13.0669 18.6019 13.3009 20.1797C13.4764 21.3916 14.1549 22.2491 15.3247 22.6721C16.4945 23.0952 17.5825 22.8779 18.5183 22.0547C19.2085 21.4488 19.5361 20.6713 19.5361 19.7795C19.5361 18.3847 19.5361 16.9784 19.5361 15.5835C19.5361 15.5035 19.5361 15.4235 19.5361 15.3091C19.6414 15.3549 19.7233 15.3892 19.7935 15.4235C20.2029 15.6178 20.6123 15.8236 21.0218 16.018C21.1271 16.0637 21.2323 16.1209 21.3376 16.1552C21.712 16.2581 22.0512 16.1895 22.3437 15.9265C22.6244 15.6636 22.7297 15.3434 22.6478 14.9661C22.5659 14.6346 22.3671 14.4173 22.0629 14.2687C21.4663 13.9829 20.8814 13.6856 20.2848 13.3998C19.8402 13.1825 19.3957 12.9539 18.9395 12.7481C18.4832 12.5423 17.9802 12.6566 17.6761 13.0225C17.5123 13.2283 17.4538 13.4569 17.4538 13.7199C17.4538 14.6346 17.4538 15.5378 17.4538 16.4524C17.4538 16.5439 17.4538 16.6239 17.4538 16.7497L17.4772 16.7611Z" fill="#151515"/>
<path d="M3.8253 4.20743C3.8253 4.20743 3.88379 4.10453 3.91888 4.04737C4.10606 3.67007 4.41021 3.46427 4.84305 3.44141C4.91324 3.44141 4.97173 3.44141 5.04192 3.44141C11.3941 3.44141 17.7579 3.44141 24.1101 3.44141C24.2739 3.44141 24.4376 3.44141 24.5897 3.48714C25.0693 3.62434 25.3618 4.08167 25.3033 4.58473C25.2448 5.05349 24.8237 5.43079 24.3324 5.45366C24.2388 5.45366 24.1335 5.45366 24.0399 5.45366C18.0972 5.45366 12.1428 5.45366 6.20004 5.45366C6.10646 5.45366 6.00117 5.45366 5.88419 5.45366C5.88419 5.56799 5.88419 5.65945 5.88419 5.75092C5.88419 11.5819 5.88419 17.4014 5.88419 23.2323C5.88419 23.3581 5.88419 23.4953 5.8608 23.6096C5.76721 24.0327 5.39286 24.3528 4.97173 24.3985C4.4921 24.4443 4.09436 24.2156 3.89549 23.7926C3.87209 23.7354 3.837 23.6782 3.8136 23.6325C3.8136 17.1613 3.8136 10.6786 3.8136 4.20743H3.8253Z" fill="#151515"/>
<path d="M-2.04854e-05 0.766027C-2.04854e-05 0.766027 0.0584708 0.663128 0.0935656 0.605962C0.26904 0.228665 0.584893 0.0228665 1.01773 0C1.08792 0 1.14641 0 1.2166 0C7.56876 0 13.9326 0 20.2848 0C20.4485 0 20.6123 0 20.7644 0.045733C21.244 0.182932 21.5365 0.640261 21.478 1.14332C21.4195 1.61209 20.9984 1.98938 20.507 2.01225C20.4135 2.01225 20.3082 2.01225 20.2146 2.01225C14.2719 2.01225 8.31745 2.01225 2.37473 2.01225C2.28114 2.01225 2.17586 2.01225 2.05887 2.01225C2.05887 2.12658 2.05887 2.21805 2.05887 2.30951C2.05887 8.14047 2.05887 13.96 2.05887 19.7909C2.05887 19.9167 2.05887 20.0539 2.03548 20.1682C1.94189 20.5913 1.56755 20.9114 1.14641 20.9571C0.666781 21.0029 0.26904 20.7742 0.0701691 20.3512C0.0467726 20.294 0.0116778 20.2368 -0.0117188 20.1911C-2.04854e-05 13.7199 -2.04854e-05 7.23724 -2.04854e-05 0.766027Z" fill="#151515"/>
</g>
<defs>
<clipPath id="clip0_610_321">
<rect width="29" height="28" fill="white"/>
</clipPath>
</defs>
</svg>
