<svg width="156" height="42" viewBox="0 0 156 42" fill="none" xmlns="http://www.w3.org/2000/svg">
<path d="M78.1881 13.7226C78.1881 13.0687 78.1881 12.4189 78.1881 11.765C78.1881 11.111 78.1881 10.4612 78.1881 9.80732C78.1922 9.17384 78.2042 8.53628 78.2042 7.90281C78.2042 6.11274 78.2042 4.31858 78.2042 2.4999C77.6372 2.40999 77.0582 2.54486 76.4912 2.42225V1.54356C77.0542 1.42095 77.6292 1.29426 78.1962 1.17165C78.1962 1.09809 78.2002 1.04904 78.2042 1C78.7833 1 79.3623 1 79.9414 1C79.8207 2.29555 79.8448 3.5952 79.8448 4.89075C79.8448 5.94926 79.8449 7.00777 79.8529 8.07037C79.8529 8.18072 79.8529 8.29107 79.8529 8.46272C80.1223 8.33602 80.3475 8.24202 80.5606 8.13577C81.0512 7.88646 81.5377 7.62081 82.0323 7.37968C82.1248 7.33473 82.2093 7.27343 82.2857 7.23664C82.4787 7.14264 82.6798 7.01186 82.9492 7.10995C83.1784 7.19169 83.4518 7.16308 83.7051 7.16308C84.0389 7.16308 84.3646 7.1876 84.6903 7.26116C84.9316 7.31429 85.1085 7.43282 85.2493 7.64942C85.386 7.86194 85.575 8.04994 85.764 8.2175C86.1098 8.52402 86.3068 8.88367 86.3149 9.36184C86.3229 9.8114 86.4395 10.2691 86.3953 10.7105C86.2505 12.2023 86.339 13.694 86.3109 15.1898C86.3109 15.3492 86.3109 15.5086 86.3109 15.6312C86.5119 15.8355 86.7291 15.8314 86.8778 15.7252C87.2237 15.4759 87.485 15.5985 87.7464 15.8478C87.7585 16.1012 87.7705 16.3505 87.7786 16.6039C87.7384 16.8205 87.5413 16.7551 87.3724 16.7551C86.0857 16.7551 84.7989 16.7551 83.5001 16.7551C83.3875 16.7919 83.3674 17.0861 83.1462 16.9063C83.1824 16.5671 83.2186 16.2238 83.2548 15.8437C83.4277 15.8028 83.6971 15.8192 83.7655 15.7088C83.9062 15.4718 84.0751 15.6353 84.2078 15.5699C84.2641 15.6516 84.3083 15.7129 84.3727 15.8028C84.4812 15.7456 84.5898 15.6884 84.6863 15.6353C84.6863 14.0373 84.6863 12.472 84.6863 10.9067C84.6863 10.825 84.7104 10.7228 84.6702 10.6656C84.3928 10.2528 84.4129 9.75827 84.2882 9.30462C84.1475 8.7815 83.7936 8.55672 83.295 8.54037C82.8366 8.52402 82.3661 8.54037 81.9238 8.63846C81.586 8.71202 81.2804 8.94089 80.9627 9.10028C80.9064 9.12889 80.8582 9.20654 80.8099 9.20654C80.3395 9.19019 80.1263 9.5621 79.8569 9.83593V15.7538H81.4654C81.4814 16.0603 81.4935 16.326 81.5056 16.5916C81.4975 16.7633 81.3528 16.751 81.204 16.751C79.7725 16.751 78.345 16.751 76.8893 16.751C76.8008 16.4445 76.8732 16.138 76.8451 15.7947C77.1869 15.8478 77.408 15.4432 77.774 15.6067C77.8021 15.6516 77.8343 15.7047 77.8785 15.7824C77.971 15.7538 78.0715 15.7211 78.1841 15.6884V14.2089C78.1841 14.0455 78.1841 13.882 78.1841 13.7185L78.1881 13.7226Z" fill="white"/>
<path d="M33.855 1.09808C33.8469 1.99312 33.8509 2.89224 33.8308 3.78728C33.8147 4.48206 33.7584 5.17274 33.7424 5.86752C33.7263 6.55004 33.7424 7.23664 33.7424 7.92324C33.7424 8.08263 33.7424 8.24202 33.7424 8.47089C34.3938 8.27881 34.8643 7.82924 35.4513 7.63716C35.4715 7.54725 35.4875 7.47368 35.5076 7.38786C35.5559 7.37968 35.6001 7.36333 35.6444 7.36333C35.962 7.36742 36.2757 7.36742 36.533 7.13038C36.5732 7.0936 36.6617 7.05273 36.7019 7.07316C36.9995 7.20394 37.3051 7.13855 37.6067 7.13447C37.7555 7.13447 37.9043 7.13038 38.0571 7.09768C38.809 7.37151 39.4082 7.85785 39.8827 8.53219C40.1963 8.97767 40.2807 9.48036 40.2928 9.98305C40.325 11.4176 40.325 12.8521 40.2928 14.2866C40.2807 14.7484 40.1722 15.2102 40.2325 15.6802C40.2566 15.7047 40.2807 15.7252 40.3049 15.7497C40.7673 15.7497 41.2338 15.7497 41.7243 15.7497V16.7306H37.2448V15.7783C37.3654 15.7783 37.4941 15.8028 37.6067 15.7701C37.7072 15.7415 37.7876 15.6475 37.8841 15.574C37.9485 15.6067 38.0168 15.6394 38.0852 15.6761C38.1536 15.7088 38.2259 15.7456 38.3144 15.7865C38.4149 15.7415 38.5275 15.6884 38.6281 15.6434C38.6401 15.5944 38.6522 15.5658 38.6522 15.5331C38.6522 14.1149 38.6683 12.6968 38.6441 11.2786C38.6361 10.735 38.5557 10.1915 38.4672 9.6561C38.3586 8.99402 37.7273 8.4668 37.0839 8.43002C36.4888 8.39733 35.9258 8.50767 35.387 8.77332C34.9849 8.9695 34.5707 9.14932 34.2249 9.44767C34.0962 9.55801 33.9434 9.64384 33.7665 9.76236V15.7456H35.4232C35.5358 16.0726 35.4473 16.3832 35.4875 16.6693C35.4594 16.6938 35.4473 16.706 35.4353 16.7183C35.4232 16.7265 35.4111 16.7428 35.3991 16.7428C33.871 16.7428 32.347 16.7428 30.7949 16.7428C30.7466 16.4486 30.7346 16.1543 30.7949 15.8641C31.0281 15.7701 31.2372 15.6843 31.4704 15.5903C31.5951 15.6475 31.7479 15.717 31.9369 15.8069C32.0052 15.7047 32.0776 15.623 32.1098 15.529C32.1379 15.4554 32.1178 15.3696 32.1178 15.2879C32.1259 11.1151 32.1339 6.9383 32.1419 2.76555C32.1419 2.68381 32.1419 2.60207 32.1419 2.47946H30.4893V1.50269C31.1648 1.39234 31.8363 1.27791 32.524 1.16347C32.5119 1.08991 32.5039 1.04495 32.4958 0.995911C32.5601 0.995911 32.6245 0.995911 32.6888 0.995911C32.6888 1.05721 32.6969 1.11852 32.7009 1.17165C32.8135 1.13487 32.8979 1.10626 32.9783 1.07765C33.0749 1.04904 33.1714 1.02452 33.2679 0.995911C33.4609 0.995911 33.6539 0.995911 33.8469 0.995911C33.855 1.02861 33.863 1.0613 33.867 1.094L33.855 1.09808Z" fill="white"/>
<path d="M76.6638 42C76.6719 41.955 76.6799 41.9101 76.6879 41.8528C76.3944 41.7915 76.1089 41.7302 75.7953 41.6648C75.8395 41.3175 75.7711 40.9987 75.8757 40.6513C75.9802 40.3121 75.8998 39.9116 75.8998 39.5356C75.8274 39.4416 75.7591 39.3557 75.6706 39.2372C75.9963 38.992 75.9923 38.6446 75.9923 38.2809C75.9883 34.8111 75.9923 31.3372 75.9923 27.8674V27.3279C75.4655 27.2952 74.9387 27.3279 74.3919 27.3075C74.3114 26.9764 74.3637 26.6413 74.3597 26.3021C74.6291 26.1468 75.0031 26.3798 75.176 26.0569C75.3047 26.0732 75.4293 26.1264 75.4977 26.0855C75.7148 25.9629 75.936 25.9425 76.1813 25.9465C76.4105 25.9506 76.6799 26.0201 76.8126 25.734C76.9131 25.779 76.9815 25.8076 77.0579 25.8403C77.1825 25.779 77.3072 25.7177 77.4399 25.6482C77.5163 25.685 77.6007 25.7258 77.7133 25.7831C77.5646 26.9397 77.649 28.1167 77.6329 29.2978C77.6208 30.483 77.6329 31.6682 77.6329 32.8984C77.9506 32.8412 78.2361 32.8371 78.417 32.5551C78.4492 32.502 78.4975 32.4325 78.5497 32.4202C78.988 32.314 79.3741 32.0647 79.8365 31.9993C80.3914 31.9216 80.9463 31.9216 81.5013 31.9094C81.5897 31.9094 81.6782 31.8603 81.7868 31.8276C82.1406 31.9502 82.4502 32.2772 82.8282 32.2159C83.1942 32.5755 83.6083 32.8493 83.8255 33.2376C84.0587 33.6545 84.5091 33.9651 84.497 34.5372C84.493 34.7498 84.6779 34.9664 84.7825 35.1993C84.6739 35.3955 84.6257 35.5958 84.7503 35.8246C84.8066 35.9268 84.7745 36.0821 84.7624 36.2088C84.7423 36.4295 84.678 36.6502 84.678 36.8709C84.686 37.3654 84.6377 37.8681 84.4729 38.3095C84.3402 38.6732 84.2397 39.0574 84.0627 39.4048C83.9823 39.5642 83.7491 39.6745 83.729 39.8257C83.6928 40.075 83.5038 40.1118 83.3711 40.2303C83.0494 40.5205 82.7559 40.8475 82.406 41.0968C81.8994 41.4523 81.3283 41.6689 80.701 41.7016C80.4638 41.7139 80.2306 41.7834 79.9973 41.7915C79.2092 41.812 78.4693 41.6076 77.7616 41.2766C77.645 41.2235 77.5364 41.1621 77.3876 41.0845C77.2107 41.3134 77.0297 41.53 76.8689 41.7629C76.8327 41.8161 76.8649 41.9141 76.8649 41.9918H76.6719L76.6638 42ZM77.6369 39.6214C77.7616 39.8911 77.9063 40.0995 78.1637 40.2467C78.7307 40.5695 79.3218 40.7453 79.9813 40.733C80.9745 40.7126 81.6983 40.2385 82.2572 39.4456C82.7357 38.7672 82.8684 37.9784 82.9247 37.1774C82.9609 36.6461 82.9368 36.1189 82.8443 35.5835C82.7317 34.9173 82.5025 34.3206 82.0642 33.818C81.4329 33.0946 80.5885 33.0946 79.7601 33.2417C78.972 33.3766 78.2602 33.7566 77.6369 34.243V39.6214Z" fill="white"/>
<path d="M29.3955 42C29.4156 41.8488 29.3432 41.7548 29.2065 41.7098C29.0014 41.6444 28.7964 41.5872 28.5953 41.5096C27.7549 41.199 27.1557 40.5696 26.5606 39.932C26.3716 39.3721 26.0258 38.8694 25.9293 38.2768C25.7845 37.3859 25.7282 36.499 25.9856 35.6121C26.0379 35.4323 26.0258 35.232 26.0499 34.9909C26.3033 34.7253 26.5646 34.4065 26.5164 33.9733C26.9627 33.536 27.393 33.115 27.8876 32.6328C27.976 32.5919 28.153 32.4979 28.3299 32.4162C28.5109 32.3344 28.6999 32.2772 28.8768 32.1873C29.0497 32.1015 29.299 32.1219 29.3392 31.8644C29.5523 31.8195 29.7494 31.7786 29.9906 31.7296C30.0429 31.7704 30.1314 31.8358 30.24 31.9216C30.5053 31.9216 30.7908 31.9339 31.0804 31.9216C31.4945 31.9012 31.8926 32.0034 32.2948 32.0688C32.5521 32.1096 32.7853 32.126 32.9623 32.3508C33.0065 32.408 33.1513 32.3712 33.2236 32.4202C33.4327 32.5633 33.6378 32.7104 33.8228 32.8821C33.9716 33.021 34.0721 33.2213 34.2249 33.348C34.5747 33.6341 34.7999 33.9774 34.8884 34.4269C34.9125 34.5454 35.009 34.6476 35.0211 34.664C35.198 35.3301 35.1176 35.9309 35.2664 36.5113C35.2905 36.6093 35.2262 36.7238 35.2141 36.8341C35.1779 37.1202 35.1015 37.4145 35.3629 37.6433C35.2825 37.6924 35.2061 37.7414 35.1055 37.8027V38.3422C34.9125 38.6937 34.7517 38.9634 34.6109 39.2495C34.1606 40.1527 33.481 40.8189 32.6164 41.3052C32.2184 41.53 31.7921 41.6281 31.3458 41.7221C30.8069 41.8365 30.2681 41.7589 29.7011 41.8202C29.6971 41.8815 29.6931 41.9387 29.685 42H29.3955ZM33.3483 36.781C33.3483 36.5685 33.3483 36.3559 33.3483 36.1475C33.3483 35.3097 33.1633 34.5209 32.6567 33.8425C32.2385 33.2826 31.7238 32.8616 30.9678 32.8943C30.8471 32.8984 30.7225 32.8453 30.6019 32.8289C30.4933 32.8126 30.3767 32.784 30.2721 32.8085C29.484 32.972 28.8245 33.3316 28.3862 34.0509C27.779 35.0481 27.6423 36.1516 27.6664 37.2878C27.6664 37.4267 27.7509 37.5657 27.7549 37.7046C27.779 38.4525 28.0444 39.1105 28.4666 39.7072C28.9009 40.3203 29.492 40.7576 30.24 40.8148C31.5147 40.9088 32.5762 40.3284 33.0668 38.9552C33.3201 38.2523 33.3925 37.5248 33.3523 36.7851L33.3483 36.781Z" fill="white"/>
<path d="M153.544 42C153.452 41.8897 153.375 41.7711 153.271 41.6771C153.046 41.4769 152.808 41.297 152.591 41.1172V40.0424C152.676 39.8952 152.764 39.7277 152.885 39.5111C153.323 39.2699 153.83 39.2209 154.365 39.3762C154.393 39.3844 154.421 39.4089 154.449 39.4252C154.936 39.7072 155.052 40.1691 154.988 40.6758C154.932 41.0968 154.771 41.4605 154.312 41.6281C154.079 41.7139 153.77 41.7017 153.645 42H153.548H153.544Z" fill="white"/>
<path d="M118.179 25.8689C118.171 26.3716 118.162 26.8784 118.158 27.3811C118.15 30.0539 118.146 32.7227 118.142 35.3955C118.142 35.5427 118.15 35.6898 118.158 35.8328C118.158 35.9309 118.158 36.029 118.158 36.1271V40.1854C118.303 40.4306 118.557 40.5451 118.886 40.5328C119.204 40.5205 119.522 40.5328 119.859 40.5328V41.3747C119.015 41.6731 118.138 41.718 117.238 41.8243C117.121 41.6731 116.996 41.53 116.892 41.3706C116.787 41.2153 116.707 41.0437 116.618 40.8884C116.417 40.729 116.24 40.8516 116.075 40.9333C115.557 41.1908 115.05 41.481 114.491 41.6526C113.856 41.8447 113.204 41.8079 112.557 41.7957C112.485 41.7957 112.416 41.7303 112.344 41.7057C112.082 41.6158 111.821 41.5341 111.511 41.4319C111.407 41.3379 111.27 41.1785 111.105 41.0764C110.55 40.729 110.172 40.2222 109.847 39.6745C109.706 39.4416 109.654 39.1514 109.565 38.8858C109.493 38.6692 109.429 38.4485 109.332 38.146C109.332 38.1583 109.364 38.0725 109.364 37.9866C109.372 37.7578 109.376 37.5289 109.364 37.3041C109.308 36.3274 109.541 35.4241 110 34.5659C110.197 34.1981 110.333 33.8016 110.647 33.5115C110.751 33.0047 111.158 32.8044 111.556 32.5919C111.789 32.4693 112.018 32.3426 112.255 32.2241C112.38 32.1628 112.509 32.1097 112.706 32.0197H113.048C113.144 31.9462 113.233 31.8808 113.333 31.8031C113.695 31.9911 114.081 31.8931 114.459 31.9217C114.708 31.9421 114.966 31.8481 115.211 31.9993C115.271 32.0361 115.408 31.9462 115.48 31.9217C115.758 32.0565 116.007 32.1832 116.264 32.2977C116.297 32.3099 116.361 32.2486 116.413 32.22C116.437 32.1873 116.466 32.1505 116.49 32.1178V27.3402H114.716C114.471 26.9969 114.624 26.6495 114.576 26.3021C114.869 26.2367 115.175 26.2327 115.436 26.0651C115.5 26.0242 115.637 26.106 115.77 26.1346C115.834 26.0855 115.923 26.0201 115.947 26.0038C116.144 26.0038 116.281 26.0242 116.405 25.9997C116.707 25.9384 117.024 25.9384 117.306 25.7668C117.358 25.7341 117.479 25.8117 117.595 25.8444C117.756 25.7381 117.933 25.5093 118.183 25.7422C118.183 25.7831 118.183 25.824 118.183 25.8689H118.179ZM116.401 33.585C115.891 33.3235 115.396 33.066 114.813 33.0946C114.736 33.0946 114.656 33.0742 114.58 33.0578C113.84 32.8984 113.164 33.0742 112.573 33.5237C111.632 34.2389 111.331 35.2934 111.214 36.4009C111.154 36.9527 111.166 37.5207 111.282 38.0888C111.455 38.9552 111.781 39.7113 112.505 40.2304C112.983 40.5737 113.538 40.6881 114.121 40.6227C114.198 40.6145 114.266 40.5451 114.338 40.541C115.135 40.5001 115.754 40.0546 116.373 39.6827C116.518 39.1882 116.526 36.0944 116.401 33.5932V33.585Z" fill="white"/>
<path d="M23.2191 40.5083H24.5259C24.5702 40.8557 24.6104 41.1663 24.6426 41.4728C24.6426 41.4892 24.5983 41.5096 24.5742 41.5259H24.3772C23.1065 41.5259 21.8398 41.5219 20.5691 41.5178C20.4123 41.5178 20.2515 41.5178 20.0625 41.5178C20.0504 41.1826 19.966 40.8679 20.1107 40.5941C20.3842 40.5246 20.6214 40.4633 20.9069 40.3857C20.9833 40.4225 21.1241 40.4838 21.2447 40.541C21.4096 40.5001 21.49 40.4143 21.49 40.2631C21.49 40.1977 21.49 40.1323 21.49 40.0669C21.49 38.6324 21.49 37.1979 21.49 35.747C21.4015 35.6081 21.3131 35.465 21.2407 35.3506C21.297 35.1626 21.3694 35.0073 21.3774 34.8479C21.3814 34.7376 21.297 34.6231 21.2407 34.4883C21.4417 34.0591 20.9471 33.9774 20.8144 33.7077C20.6214 33.3153 20.2394 33.4543 19.9821 33.2663C19.8293 33.3439 19.6885 33.4134 19.5277 33.4911C19.4955 33.442 19.4633 33.3971 19.4151 33.3194C19.1296 33.1518 18.8119 33.3194 18.5385 33.4216C17.9031 33.6545 17.2959 33.957 16.7571 34.382C16.733 34.4065 16.7088 34.4351 16.6847 34.4597C16.6767 35.6408 16.6646 36.8219 16.6606 38.003C16.6606 38.8122 16.6686 39.6214 16.6727 40.4306C16.7008 40.4552 16.7249 40.4797 16.7531 40.5042H18.253C18.2972 40.8557 18.3374 41.1622 18.3696 41.4687C18.3696 41.4851 18.3253 41.5055 18.3012 41.5219H18.1042C16.7852 41.5219 15.4703 41.5178 14.1514 41.5137C13.9785 41.5137 13.8016 41.5137 13.5965 41.5137C13.5804 41.1786 13.5 40.868 13.6407 40.59C13.9142 40.5206 14.1514 40.4552 14.4449 40.3816C14.5696 40.4388 14.7586 40.5328 15.02 40.398C14.9637 36.0372 15.1245 31.6519 14.8993 27.2217H13.3954C13.2064 26.8948 13.319 26.5842 13.2788 26.2613C13.6166 26.2204 13.9262 26.1877 14.2318 26.1346C14.3364 26.1182 14.4329 26.0488 14.5294 25.9997C14.6259 25.9507 14.7425 25.8322 14.8028 25.8567C15.032 25.9548 15.2934 25.7014 15.4904 25.9589C15.595 25.8812 15.6835 25.8199 15.6835 25.8199C16.0614 25.7913 16.3389 25.7668 16.6445 25.7463V32.6205C16.7732 32.7391 16.8938 32.8535 17.0466 32.9884C17.3723 32.829 17.7222 32.6491 18.0801 32.4816C18.3012 32.3753 18.5264 32.2813 18.7516 32.1873C18.9325 32.1097 19.1215 32.0443 19.1859 31.8195C19.7689 31.7909 20.3319 32.0606 20.9069 31.8359C21.3533 31.9339 21.691 32.3753 22.2299 32.3263C22.246 32.453 22.258 32.5592 22.2701 32.6532C22.435 32.7963 22.6159 32.9107 22.7285 33.0742C22.8411 33.2336 22.8813 33.4461 22.9818 33.6218C23.2311 34.9828 23.0864 36.3642 23.1226 37.7415C23.1467 38.6365 23.1387 39.5315 23.1427 40.4306C23.1668 40.4552 23.195 40.4797 23.2191 40.5042V40.5083Z" fill="white"/>
<path d="M144.589 26.8824C144.722 27.0377 144.678 27.2094 144.646 27.3811C144.614 27.5364 144.577 27.6876 144.529 27.896C143.87 27.945 143.178 27.9941 142.478 28.0431C142.474 28.3537 142.478 28.6643 142.748 28.881C142.716 29.2529 142.74 29.588 143.025 29.8414C143.017 30.1847 143.025 30.5157 143.275 30.7977C143.367 30.904 143.423 31.1001 143.403 31.2391C143.343 31.6846 143.608 32.0361 143.705 32.4325C143.938 32.5428 143.906 32.7758 143.918 32.9679C143.966 33.6095 144.256 34.1817 144.445 34.7825C144.513 35.0072 144.674 35.1993 144.787 35.3955C144.694 35.8655 144.891 36.2538 145.032 36.6584C145.301 37.4349 145.559 38.2114 145.824 38.9879C145.88 39.1514 145.965 39.3026 146.069 39.5315C146.403 38.7059 146.556 37.8885 146.958 37.1611C146.938 37.0875 146.914 36.9976 146.914 36.9894C147.042 36.6461 147.143 36.3723 147.251 36.0821C147.34 35.9391 147.533 35.7674 147.529 35.608C147.517 35.2892 147.706 35.0604 147.786 34.7866C147.843 34.5945 147.895 34.3983 147.959 34.2103C147.991 34.104 148.036 34.0019 148.08 33.8997C148.341 33.3316 148.538 32.7472 148.631 32.126C148.659 31.938 148.663 31.7295 148.864 31.6028C148.94 31.5538 148.977 31.4189 149.009 31.3168C149.286 30.4789 149.552 29.6329 149.829 28.7951C149.913 28.5376 149.881 28.2965 149.821 28.0268H148.088C148.003 27.6549 148.056 27.3075 148.044 26.9397H152.933C152.966 27.2584 152.994 27.5527 153.03 27.9083C152.656 28.1412 152.193 27.9164 151.799 28.0268C151.687 28.2516 151.562 28.46 151.478 28.6889C151.401 28.8932 151.381 29.118 151.313 29.3264C151.265 29.4736 151.172 29.6043 151.108 29.7474C151.047 29.8741 150.955 30.0049 150.943 30.1356C150.907 30.5934 150.682 30.9735 150.476 31.3617C150.432 31.4435 150.392 31.5252 150.36 31.611C150.179 32.0728 150.082 32.5592 149.841 33.0128C149.676 33.3275 149.652 33.7362 149.491 34.0836C149.258 34.5986 149.033 35.1135 148.816 35.6366C148.623 36.0985 148.506 36.5971 148.297 37.0425C148.064 37.5411 147.859 38.052 147.67 38.567C147.457 39.135 147.211 39.6909 146.99 40.2589C146.926 40.4183 146.938 40.6104 146.869 40.7657C146.729 41.0845 146.56 41.391 146.411 41.6894H145.088C144.992 41.4564 144.899 41.2275 144.799 40.9987C144.718 40.8148 144.622 40.639 144.549 40.451C144.485 40.2916 144.413 40.1282 144.396 39.9565C144.376 39.7889 144.284 39.6622 144.236 39.5233C144.107 39.1187 143.906 38.7427 143.805 38.3299C143.793 38.285 143.825 38.2114 143.805 38.1869C143.411 37.7659 143.584 37.1038 143.17 36.6829C143.074 36.5848 143.057 36.3845 143.045 36.2292C143.021 35.9186 142.909 35.653 142.752 35.3914C142.679 35.2688 142.583 35.1258 142.591 34.995C142.615 34.5781 142.289 34.3084 142.209 33.9406C142.129 33.5727 142.012 33.2172 141.895 32.8575C141.409 31.329 140.914 29.8005 140.428 28.2761C140.412 28.2311 140.412 28.1821 140.403 28.1412C139.905 27.8633 139.338 28.1208 138.843 27.945C138.867 27.5772 138.887 27.2503 138.908 26.9029C139.089 26.9029 139.245 26.9029 139.402 26.9029C140.978 26.9029 142.551 26.9029 144.127 26.9029C144.24 26.9029 144.352 26.8906 144.461 26.8824C144.505 26.8824 144.545 26.8824 144.589 26.8824Z" fill="white"/>
<path d="M0.769096 16.4731C0.720842 16.142 0.66857 15.811 0.608252 15.4023C0.592168 15.3819 0.523805 15.296 0.479573 15.2388C0.515763 14.9078 0.547932 14.6053 0.580101 14.3152C0.495657 14.2089 0.427304 14.1231 0.391113 14.0781C0.427304 13.6858 0.455448 13.3384 0.487617 12.9624C0.853541 12.7948 1.25968 12.803 1.62962 12.7294C1.73417 12.9338 1.81862 13.1013 1.90306 13.2648C1.88296 13.2648 1.86687 13.2648 1.84677 13.2689C1.86687 13.5918 1.86687 13.9146 1.91111 14.2334C1.9473 14.4827 2.05586 14.7198 2.08803 14.9691C2.12422 15.2511 2.29311 15.3819 2.52231 15.4881C3.37078 15.8845 4.24739 15.999 5.16019 15.7824C5.37331 15.7333 5.59447 15.7129 5.80759 15.6557C6.36653 15.5045 6.79277 15.1407 7.15869 14.7075C7.22705 14.6258 7.27531 14.5195 7.31954 14.4173C7.64928 13.6613 7.70959 12.8725 7.48039 12.0837C7.40398 11.8181 7.23108 11.5524 7.03806 11.3562C6.75256 11.0702 6.44695 10.7841 6.02875 10.6737C5.79955 10.6124 5.59447 10.4449 5.37331 10.3468C5.22051 10.2773 5.05161 10.2446 4.89077 10.1996C4.83045 10.1833 4.75807 10.1874 4.70982 10.1547C3.90559 9.63564 3.06919 9.16156 2.30919 8.58121C1.66581 8.0867 1.22751 7.42053 1.11491 6.5541C1.0546 6.08819 0.998303 5.6468 1.12296 5.1809C1.26772 4.63325 1.50899 4.14282 1.82264 3.68508C2.47809 2.73283 3.43109 2.28736 4.52082 2.07484C4.60929 2.05849 4.6857 1.99718 4.77014 1.9604C4.84252 1.93179 4.93501 1.8664 4.98326 1.88684C5.34114 2.0544 5.68696 1.82145 6.04082 1.87866C6.3223 1.92362 6.60378 1.95631 6.88526 1.97266C7.01796 1.98084 7.15468 1.93588 7.25118 1.91953C7.55679 2.00944 7.83425 2.09118 8.11171 2.17292C8.34896 2.2424 8.5862 2.3037 8.83149 2.37318V3.16604C8.91191 3.26822 8.98027 3.35404 9.05266 3.44804C9.03255 3.51343 9.00038 3.57065 8.99636 3.63195C8.97625 3.87308 8.96419 4.11012 8.94811 4.35125C9.30197 4.75994 8.97223 5.2095 9.02048 5.63454C9.02451 5.67133 8.96821 5.7122 8.92398 5.77759C8.5299 5.68767 8.12377 6.09637 7.72568 5.76124C7.87446 5.35663 7.68144 5.03785 7.50049 4.71907C7.61711 4.43708 7.58092 4.05699 7.3879 3.60743C7.16674 3.47665 6.96568 3.31317 6.73648 3.22735C6.49521 3.13335 6.22579 3.08022 5.96844 3.06387C5.70304 3.04752 5.44167 3.03118 5.16823 3.13743C4.97119 3.211 4.7259 3.15378 4.50876 3.15378C4.38411 3.21917 4.27553 3.28456 4.16294 3.33769C3.3748 3.68917 2.9365 4.31447 2.77163 5.15637C2.76359 5.18907 2.77163 5.22585 2.75554 5.25037C2.57459 5.53237 2.66306 5.76941 2.88422 5.98602C2.84803 6.08411 2.81586 6.16993 2.77967 6.27619C2.95258 7.07723 3.57184 7.49818 4.23533 7.84557C4.93098 8.21339 5.67087 8.49539 6.37055 8.85913C7.1788 9.28008 7.9951 9.70921 8.57816 10.4489C8.99234 10.9721 9.26175 11.5524 9.24165 12.2554C9.23361 12.5169 9.22556 12.7785 9.23361 13.04C9.25371 13.8043 8.99234 14.4909 8.57012 15.0999C8.07552 15.8151 7.39193 16.2769 6.57965 16.5957C6.09712 16.7837 5.57437 16.8082 5.10791 17.033C5.02749 17.0698 4.91892 17.0452 4.82241 17.0452C4.54897 17.0452 4.27554 17.0452 4.0021 17.0452C2.92041 17.0289 1.85481 16.9921 0.761058 16.4731H0.769096Z" fill="white"/>
<path d="M11.2483 41.015C10.4923 41.1417 9.07287 41.5831 8.83563 41.7589C8.70293 41.7384 8.58229 41.7016 8.46567 41.7098C8.05552 41.7343 7.64536 41.6689 7.23521 41.7915C7.03817 41.8488 6.80093 41.7548 6.57976 41.7343C6.31437 41.7098 6.04495 41.6485 5.79966 41.7875C5.39755 41.6281 4.99141 41.4769 4.59332 41.3134C4.21131 41.1581 3.83734 40.9864 3.45935 40.823C3.40306 40.7984 3.34274 40.7657 3.30253 40.7208C2.79184 40.1731 2.28518 39.6173 1.77852 39.0656C1.67799 38.9593 1.5855 38.849 1.52116 38.7754C1.27185 38.1828 1.0346 37.6229 0.789312 37.0385C0.805397 36.9976 0.853654 36.924 0.849633 36.8586C0.829527 36.6543 0.801377 36.4499 0.753123 36.2538C0.548045 35.4364 0.716932 34.6067 0.664657 33.7853C0.660636 33.7117 0.712913 33.6341 0.728997 33.5605C0.765188 33.4174 0.801377 33.2744 0.70889 33.1886C0.793334 32.972 0.877781 32.7717 0.950161 32.5674C1.04265 32.2935 1.1673 32.0156 1.19947 31.7336C1.23164 31.4353 1.39651 31.2309 1.52518 30.9939C1.61365 30.8345 1.61767 30.6261 1.65788 30.4422C1.77047 30.3318 1.93936 30.2337 1.99968 30.0907C2.12434 29.7964 2.34147 29.5962 2.54253 29.3755C2.62698 29.2815 2.71544 29.1834 2.77576 29.0771C2.86824 28.9137 3.00094 28.7992 3.15375 28.693C3.4674 28.4764 3.74083 28.2107 4.01427 27.8184C4.31184 27.7121 4.6858 27.5772 5.05977 27.4342C5.1603 27.3974 5.30506 27.3688 5.34929 27.2912C5.58251 26.8661 5.97257 26.9438 6.34251 26.9397C6.40685 26.9397 6.47119 26.9397 6.55161 26.9397C6.63204 26.8784 6.7205 26.813 6.74463 26.7966C6.99796 26.7394 7.18293 26.6985 7.36388 26.6577C7.37997 26.6577 7.40008 26.6413 7.40812 26.6495C7.79415 26.8498 8.17615 26.5759 8.56218 26.6495C8.79541 26.6904 9.02864 26.7312 9.26187 26.7394C9.43075 26.7476 9.59964 26.6985 9.83689 26.6659C10.1425 26.8579 10.5285 26.9315 10.9628 26.7599C11.1438 26.8171 11.3488 26.8825 11.5057 26.9356C11.4856 27.2993 11.4655 27.614 11.4494 27.9042C11.5298 28.0595 11.5941 28.1862 11.6062 28.2107C11.5821 28.7257 11.562 29.1425 11.5419 29.5757C11.6987 29.7719 11.8354 29.9599 11.6746 30.2542C11.5861 30.4176 11.6585 30.667 11.6585 30.9122C11.2523 30.9939 10.8502 31.0797 10.5004 31.1492C10.1867 30.7977 10.4602 30.3359 10.1505 30.0335C10.3194 29.5676 10.1063 29.1589 9.98567 28.648C9.98165 28.6644 10.0098 28.5744 10.0379 28.4968C9.51922 27.9982 8.24451 27.8429 7.54484 28.1862C7.52875 28.1412 7.50864 28.0963 7.4805 28.0309H6.88939C6.84918 28.0922 6.79288 28.1821 6.74463 28.2557C6.18569 28.3129 5.6549 28.3864 5.24474 28.8074C5.16432 28.8932 5.07987 28.9791 4.97934 29.0363C4.30379 29.4286 3.87755 30.0376 3.55184 30.7283C3.50359 30.8263 3.48348 30.9449 3.41914 31.0266C2.96878 31.5906 2.82803 32.2731 2.69131 32.9597C2.63904 33.2172 2.46613 33.4788 2.72751 33.7362C2.37767 34.1776 2.53449 34.6762 2.49428 35.1462C2.64976 35.3833 2.67925 35.6394 2.58274 35.9146C2.76772 36.2824 2.93258 36.6788 2.88031 37.1284C3.06126 37.3777 3.0492 37.721 3.21004 37.9621C3.66845 38.6446 4.10676 39.3517 4.89892 39.7236C5.09596 39.8176 5.25681 39.977 5.49807 39.9606C5.76347 40.2671 6.16156 40.2426 6.4913 40.3857C6.67225 40.4674 6.75267 40.3243 6.9296 40.3489C7.39203 40.6186 7.8987 40.639 8.40536 40.3407C8.73107 40.4551 9.04472 40.3611 9.35033 40.2835C9.98567 40.12 10.6291 39.981 11.2282 39.6786C11.3328 39.6255 11.4695 39.6418 11.6263 39.6255C11.7027 39.9565 11.7751 40.263 11.8555 40.6063C11.7349 40.6799 11.6022 40.7616 11.4695 40.8434C11.3126 40.7943 11.2644 40.8802 11.2644 41.0191L11.2483 41.015Z" fill="white"/>
<path d="M107.82 41.53H103.63C103.522 41.2439 103.602 40.9578 103.57 40.6431C104.02 40.6431 104.446 40.6309 104.82 40.3979C104.873 40.4102 104.929 40.4265 105.021 40.4511C105.005 40.3121 104.997 40.2222 104.989 40.1323C104.997 38.6324 105.042 37.1325 104.993 35.6367C104.977 35.1421 104.953 34.5863 104.587 34.149C104.527 34.0795 104.555 33.9365 104.535 33.7771C104.298 33.6136 104.04 33.4379 103.827 33.2867H102.468C101.66 33.6055 100.92 33.9569 100.228 34.4964C100.22 34.5618 100.208 34.6681 100.2 34.7784C100.196 34.8765 100.2 34.9746 100.2 35.0727C100.168 36.7279 100.136 38.3831 100.104 40.0342C100.1 40.2998 100.104 40.3039 100.26 40.5328C100.393 40.4674 100.53 40.402 100.703 40.3203C100.96 40.5941 101.31 40.6472 101.704 40.6186C101.78 40.9088 101.732 41.1908 101.74 41.4932H97.0636C96.9591 41.3175 97.0516 41.1009 97.0033 40.8679C96.9631 40.8189 96.8988 40.7453 96.8344 40.6677C97.0476 40.3897 97.3491 40.6023 97.6025 40.5328C97.703 40.4592 97.7995 40.3857 97.9041 40.3039C98.0488 40.3693 98.1735 40.4265 98.3223 40.4919C98.3665 40.4715 98.4308 40.4347 98.5475 40.3734C98.5233 38.1133 98.4992 35.8206 98.4791 33.5033C98.3303 33.491 98.1936 33.4788 98.0649 33.4706C98.0006 33.5523 97.9483 33.6218 97.9202 33.6545C97.514 33.5278 97.1481 33.4134 96.75 33.2867V32.5102C96.7942 32.4693 96.8787 32.3916 96.943 32.3303C97.4979 32.2527 98.0247 32.1832 98.5515 32.1096C98.6118 32.1015 98.6761 32.0933 98.7364 32.0729C99.152 31.9176 99.5782 31.8808 100.015 31.9625C99.8302 32.2568 99.991 32.5306 100.063 32.8085C100.096 32.927 100.216 33.021 100.281 33.1069C100.51 33.0864 100.57 32.8943 100.767 32.878C100.964 32.8616 101.181 32.7186 101.33 32.5715C101.704 32.1955 102.183 32.0688 102.657 31.9176C102.866 31.8522 103.055 31.8481 103.288 31.893C103.65 31.9625 104.044 31.9789 104.463 31.844C105.122 32.126 105.741 32.5347 106.159 33.2131C106.477 33.724 106.662 34.2675 106.662 34.8765C106.662 36.5562 106.662 38.2319 106.662 39.9116V40.353C106.706 40.402 106.714 40.4224 106.726 40.4224C106.956 40.4061 107.181 40.3897 107.41 40.3734C107.523 40.635 107.808 40.5573 107.965 40.6595C108.013 40.9292 108.066 41.1744 108.102 41.4237C108.106 41.4523 108.045 41.4891 108.013 41.5218C107.949 41.5218 107.881 41.5218 107.816 41.5218L107.82 41.53Z" fill="white"/>
<path d="M87.6137 34.6762C87.3282 34.3697 87.0668 34.0877 86.8095 33.8139C86.918 33.5482 86.9944 33.3071 87.3202 33.2867C87.4126 33.2826 87.5172 33.1886 87.5896 33.1109C88.0078 32.6777 88.5305 32.4243 89.0774 32.2159C89.1256 32.1954 89.1658 32.1423 89.2061 32.1014C89.3347 31.9707 89.4835 31.9134 89.6645 31.9175C90.2274 31.9257 90.7904 31.8971 91.3493 31.9298C91.6228 31.9461 91.8922 32.0647 92.1576 32.1505C92.3064 32.1995 92.4391 32.2813 92.5396 32.3794C92.7246 32.551 92.9055 32.7186 93.1588 32.9556C93.2433 33.1722 93.384 33.4624 93.6012 33.7321C93.7419 33.9079 93.8424 34.2266 93.7821 34.431C93.6695 34.8111 93.8545 35.1176 93.8867 35.4568C93.8947 35.5672 93.947 35.6857 93.9229 35.7879C93.5931 37.1447 93.7861 38.5261 93.7379 39.8952C93.7258 40.2222 93.943 40.4183 94.1923 40.6431H95.4549V41.4809C94.6386 41.6321 93.8183 41.861 92.8854 41.7997C92.6763 41.5136 92.431 41.1826 92.1978 40.8679C91.9847 40.7698 91.8118 40.8556 91.6429 40.9496C91.0799 41.2684 90.4928 41.53 89.8535 41.6648C89.2985 41.7834 88.7477 41.9101 88.1807 41.7139C87.5855 41.5095 87.0226 41.2684 86.6888 40.6799C86.5561 40.4469 86.3832 40.2344 86.2666 40.0628C86.2867 39.8911 86.3068 39.7726 86.3108 39.6541C86.3189 39.4252 86.3189 39.1963 86.3149 38.9716C86.3108 38.7345 86.3832 38.5302 86.5642 38.3749C86.7371 38.2277 86.8336 38.0357 86.914 37.8231C86.9582 37.7046 87.0829 37.5616 87.1955 37.533C87.481 37.4594 87.682 37.3327 87.8751 37.0957C88.0078 36.9281 88.237 36.7605 88.5345 36.8586C88.6471 36.8954 88.816 36.7932 88.9447 36.7278C89.2141 36.593 89.4634 36.4336 89.7811 36.6093C89.8816 36.6625 90.0425 36.6502 90.1591 36.6134C90.71 36.4499 91.2689 36.5521 91.8238 36.5235C91.9002 36.5235 91.9766 36.5235 92.1053 36.5235C91.9726 36.1066 92.1455 35.7265 92.0892 35.3424C92.0651 35.1952 92.0168 35.0481 91.9646 34.8519C92.0209 34.7579 91.9887 34.6108 91.9364 34.431C91.7997 33.9446 91.6027 33.5605 91.0558 33.4542C90.8306 33.4093 90.6255 33.2703 90.4003 33.2213C90.0666 33.1436 89.7449 33.2049 89.4393 33.3766C89.1819 33.5196 88.9045 33.6259 88.6552 33.7812C88.4139 33.9324 88.1927 34.1163 87.9756 34.2961C87.8509 34.3983 87.7504 34.5291 87.6056 34.6803L87.6137 34.6762ZM92.1656 37.5084C91.2287 37.5248 90.34 37.4063 89.4715 37.6924C88.8844 37.8844 88.426 38.2155 88.1887 38.804C88.1083 39.0043 88.0279 39.2495 88.0681 39.4497C88.1445 39.8666 88.3576 40.2303 88.7718 40.4142C89.1659 40.59 89.5639 40.7289 90.0063 40.5532C90.1953 40.4796 90.4084 40.4837 90.6054 40.4224C91.1885 40.2467 91.7313 39.9933 92.1697 39.605V37.5003L92.1656 37.5084Z" fill="white"/>
<path d="M18.7114 15.8192C19.2422 15.9377 19.769 15.8233 20.3038 15.8928V16.796C19.5036 16.9717 18.7114 17.0739 17.8388 17.0412C17.6056 16.7101 17.3523 16.3464 17.0869 15.9704C16.7652 16.1135 16.4596 16.2647 16.1419 16.3873C15.6433 16.5834 15.1406 16.7633 14.634 16.9431C14.5897 16.9594 14.5375 16.9472 14.4892 16.9513C14.0147 16.9676 13.5442 16.9881 13.0577 17.0044C12.8687 16.89 12.6515 16.7551 12.4384 16.6243C11.9438 16.326 11.5055 15.9868 11.3447 15.3819C11.2079 14.8588 11.1637 14.3479 11.4492 13.8493C11.5296 13.7103 11.5739 13.551 11.6342 13.3956C11.9237 13.081 12.2293 12.7458 12.5671 12.3821C12.7561 12.3412 12.9974 12.2922 13.2507 12.2391C13.2668 12.1532 13.2829 12.0797 13.303 11.9775H14.1474C14.3766 11.7936 14.6018 11.6424 14.8873 11.8385C14.9436 11.8753 15.0522 11.8753 15.1205 11.8508C15.6835 11.6669 16.2625 11.7936 16.8295 11.7568C16.8898 11.7568 16.9501 11.7527 17.0225 11.7486V10.5307C16.9783 10.4776 16.918 10.404 16.8376 10.31C16.8697 10.2528 16.9381 10.1833 16.9341 10.1179C16.9019 9.73785 16.8778 9.34551 16.6244 9.0349C16.3791 8.72838 16.0816 8.5036 15.6594 8.52813C15.595 8.52813 15.5226 8.54039 15.4704 8.51586C15.0723 8.32787 14.6983 8.43821 14.3243 8.58943C13.7855 8.80604 13.315 9.1289 12.9049 9.53759C12.7802 9.6602 12.6515 9.78281 12.4907 9.9422C12.3821 9.85637 12.2253 9.79507 12.2092 9.70516C12.1489 9.35777 11.8674 9.23108 11.6181 9.02264C12.1931 8.72021 12.6395 8.25839 13.1461 7.88239C13.5121 7.60857 13.9906 7.49413 14.4208 7.30614C14.5938 7.23257 14.7667 7.15901 14.9677 7.07318C15.5387 7.26527 16.166 7.09362 16.7893 7.17944C16.8416 7.23257 16.8938 7.3184 16.9703 7.347C17.9032 7.73526 18.3616 8.50769 18.5827 9.44768C18.6591 9.77055 18.6752 10.1139 18.6792 10.449C18.6873 12.1614 18.6833 13.8697 18.6833 15.5822C18.6833 15.6312 18.6913 15.6762 18.7074 15.811L18.7114 15.8192ZM17.0346 12.799C16.4194 12.705 15.1929 12.709 14.646 12.8521C14.1876 12.9747 13.7413 13.1463 13.4236 13.5305C13.0939 13.9269 12.8928 14.3642 13.0376 14.8996C13.2346 15.6353 14.1434 15.9581 14.7586 15.8601C15.0924 15.8069 15.4181 15.6843 15.7478 15.5822C16.2344 15.4268 16.6847 15.2062 17.0386 14.8588V12.799H17.0346Z" fill="white"/>
<path d="M58.4483 36.9118C58.4966 37.1243 58.5408 37.3327 58.6051 37.6229C58.5971 37.6433 58.5569 37.7455 58.5287 37.8109C58.5287 37.8681 58.5207 37.8926 58.5287 37.9008C58.7941 38.2482 58.7258 38.7264 58.9711 39.0819C59.0595 39.2127 59.1118 39.368 59.2003 39.4947C59.3249 39.6745 59.4415 39.8871 59.6144 40.0015C59.9281 40.2099 60.2779 40.3571 60.6157 40.5246C60.6398 40.5369 60.6801 40.5246 60.7524 40.5246C60.8409 40.4756 60.9655 40.4143 61.1224 40.3325C61.3556 40.541 61.6532 40.353 61.9266 40.4102C62.2282 40.4756 62.4815 40.3162 62.759 40.2876C63.0525 40.2549 63.3501 40.2099 63.6356 40.1364C63.905 40.0669 64.1583 39.9484 64.472 39.8298C64.5484 40.0996 64.6369 40.3611 64.6931 40.635C64.7293 40.8066 64.6931 40.8434 64.4639 41.109C64.1784 41.0845 63.913 41.1581 63.6396 41.3338C63.3742 41.5014 63.0284 41.5423 62.7107 41.6076C62.0432 41.7384 61.3717 41.861 60.6921 41.7997C60.294 41.763 59.8959 41.6649 59.5059 41.5709C58.9831 41.4442 58.5247 41.1908 58.1467 40.7944C58.0623 40.7085 57.9497 40.6472 57.7929 40.5287C57.7044 40.3897 57.5797 40.1691 57.435 39.9647C56.9605 39.2904 56.7072 38.5425 56.6911 37.7128C56.683 37.3695 56.6911 37.0262 56.6911 36.687C56.6911 36.1557 56.8197 35.653 56.9886 35.1585C57.0771 34.8928 57.1495 34.619 57.246 34.288C57.3425 34.1858 57.5275 34.0468 57.628 33.8629C57.8733 33.397 58.3116 33.1273 58.6453 32.7513C58.7378 32.6491 58.8866 32.6001 58.9751 32.4979C59.2244 32.2159 59.5139 32.0565 59.8879 32.1383C59.9764 32.0647 60.0487 32.0034 60.1251 31.938C60.1734 31.938 60.2216 31.9298 60.2699 31.9298C60.7203 31.9298 61.1706 31.9462 61.621 31.9298C62.5298 31.8889 63.2898 32.2077 63.9251 32.8575C64.0216 32.9556 64.1503 33.0251 64.2468 33.0946C64.6127 33.6422 64.657 34.2635 64.8017 34.8601C64.854 35.0686 64.9626 35.2607 65.0671 35.5018C65.0349 35.5467 64.9666 35.6326 64.8942 35.7266C64.9304 35.9023 64.9706 36.0821 64.9947 36.2129C64.6851 36.4213 64.4157 36.6012 64.0578 36.8423H60.0729C59.8798 36.8423 59.6868 36.8423 59.4938 36.8423H58.9148C58.8504 36.8423 58.7861 36.8423 58.7217 36.8423C58.6574 36.8423 58.5931 36.8423 58.5287 36.8423C58.5046 36.8668 58.4765 36.8954 58.4523 36.9199L58.4483 36.9118ZM63.2496 35.6326C63.2415 35.1094 63.1531 34.6027 62.96 34.1122C62.5941 33.1763 61.5044 32.6409 60.5594 32.9434C60.1975 33.0578 59.8437 33.209 59.5984 33.5319C59.3651 33.8384 59.0957 34.1245 58.9268 34.4637C58.7258 34.8683 58.5488 35.3056 58.6453 35.8247C58.955 35.8247 59.2525 35.8247 59.5541 35.8247C60.1292 35.8247 60.7082 35.8492 61.2832 35.8328C61.8703 35.8165 62.4534 35.7715 63.0405 35.7307C63.0968 35.7307 63.153 35.6775 63.2455 35.6326H63.2496Z" fill="white"/>
<path d="M91.2288 12.0756C91.1323 12.0756 91.0358 12.0756 90.9393 12.0756L90.8629 12.1532C90.9513 12.3657 90.7945 12.5864 90.9192 12.8153C91.0277 13.0156 91.0599 13.2608 91.1041 13.4896C91.1323 13.6286 91.1323 13.7798 91.1443 13.931C91.2569 14.1231 91.3896 14.3193 91.4861 14.5359C91.832 15.3165 92.4794 15.6516 93.2595 15.762C93.6053 15.811 93.9632 15.7742 94.317 15.7742C94.3974 15.7742 94.494 15.7865 94.5502 15.7497C94.8357 15.5617 95.1534 15.5658 95.4872 15.5862C95.6279 15.4718 95.7687 15.3819 95.9818 15.3655C96.1265 15.3574 96.3316 15.3655 96.4643 15.1571C96.5407 15.0386 96.7579 14.8996 96.9227 15.0427C96.9871 15.3941 97.0434 15.7007 97.0997 16.0194C96.8544 16.187 96.6091 16.3546 96.3316 16.5467C96.034 16.5467 95.7124 16.5916 95.4269 16.8C95.3062 16.8859 95.1373 16.9186 94.9845 16.9431C94.1803 17.078 93.36 17.1025 92.5558 17.0248C92.0813 16.9799 91.6028 16.7674 91.2006 16.4649C90.7342 16.1134 90.2838 15.7415 89.8375 15.3655C89.7611 15.3002 89.7369 15.1775 89.6847 15.0795C89.5359 14.8015 89.3911 14.5236 89.2102 14.1803C89.17 13.7063 89.1539 13.1463 89.0091 12.6069C89.0051 12.5905 89.0091 12.5742 89.0091 12.5578C89.0413 12.3208 89.0734 12.0878 89.1056 11.8508C89.1378 11.6137 89.1217 11.3808 89.174 11.1356C89.2906 10.6084 89.4595 10.1138 89.7168 9.64385C89.753 9.57846 89.7852 9.49672 89.7852 9.42316C89.7812 9.16568 89.934 8.96542 90.1109 8.86733C90.3562 8.73247 90.4044 8.52403 90.505 8.27882C90.7221 8.14395 91.0639 8.11943 91.1564 7.80882C91.7797 7.55952 92.3788 7.31839 93.0182 7.065C93.4243 7.23665 93.9149 7.23257 94.3412 7.12222C94.8156 6.99552 95.1414 7.20396 95.4671 7.41648C95.6923 7.56769 95.8973 7.67395 96.1949 7.65352C96.219 7.73526 96.215 7.85378 96.2713 7.90282C96.6935 8.25838 96.7257 8.85099 97.0755 9.25151C97.1358 9.32098 97.1519 9.50898 97.1399 9.67246C97.1157 10.0117 97.1881 10.3672 97.2726 10.7024C97.3932 11.156 97.1801 11.4625 96.8986 11.7527C96.7981 11.8549 96.6815 11.9407 96.5327 12.0633H92.3829C91.9968 12.0633 91.6108 12.0633 91.2248 12.0633L91.2288 12.0756ZM90.9433 10.9067C91.0358 11.0988 91.1845 11.0743 91.3293 11.0824C92.7005 11.1438 94.0677 10.9884 95.4349 10.9721C95.4631 10.9721 95.4912 10.9476 95.5676 10.9108C95.5676 10.7146 95.5676 10.4898 95.5676 10.2691C95.5596 9.26785 94.9363 8.4096 93.9873 8.18891C93.3439 8.03769 92.7126 8.13578 92.1858 8.58534C91.6912 9.01038 91.3333 9.5335 91.1323 10.1629C91.0559 10.3999 91.0036 10.6492 90.9393 10.9067H90.9433Z" fill="white"/>
<path d="M128.095 36.9118V37.4635C128.143 37.5248 128.207 37.5984 128.263 37.6679C128.288 38.9512 128.979 40.2917 130.367 40.5369C130.467 40.4878 130.596 40.4306 130.736 40.3612C130.978 40.6064 131.239 40.6268 131.472 40.3816C131.601 40.402 131.706 40.4388 131.806 40.4265C132.132 40.3898 132.458 40.3366 132.783 40.2835C132.807 40.2794 132.823 40.2059 132.86 40.1364C133.338 40.2753 133.668 39.883 134.05 39.744C134.376 39.8912 134.179 40.1691 134.315 40.4592C134.323 40.4756 134.392 40.5778 134.46 40.684C134.432 40.7453 134.424 40.8066 134.392 40.8271C134.134 40.9701 133.873 41.1172 133.604 41.2358C133.451 41.3011 133.27 41.3093 133.105 41.3584C132.836 41.436 132.578 41.5464 132.305 41.6077C131.722 41.7384 131.127 41.8202 130.527 41.8079C130.254 41.7998 129.98 41.8079 129.695 41.8079C129.651 41.7548 129.607 41.6935 129.546 41.6158C129.015 41.6404 128.581 41.3543 128.167 41.0518C127.817 40.7985 127.487 40.5001 127.206 40.1732C126.824 39.7277 126.603 39.18 126.454 38.616C126.249 37.8395 126.341 37.0426 126.357 36.2538C126.365 35.8492 126.51 35.4528 126.607 34.995C126.86 34.8029 126.981 34.4351 127.105 34.0918C127.178 33.8875 127.274 33.7526 127.431 33.6096C127.588 33.4665 127.813 33.348 127.817 33.1273C128.006 32.9679 128.203 32.8535 128.336 32.6859C128.537 32.4366 128.75 32.265 129.003 32.3099C129.188 32.1955 129.305 32.0729 129.442 32.0484C129.763 31.9871 130.093 31.9666 130.423 31.9298C130.893 31.8808 131.372 32.0075 131.846 31.8522C131.987 31.8072 132.196 31.938 132.361 32.0197C132.586 32.1301 132.791 32.2936 133.02 32.3835C133.398 32.5306 133.616 32.784 133.813 33.1437C133.973 33.4379 134.058 33.7812 134.319 34.0264C134.392 34.0918 134.46 34.2798 134.428 34.3166C134.251 34.5169 134.46 34.6803 134.452 34.8561C134.432 35.1667 134.452 35.465 134.637 35.7348C134.673 35.7879 134.641 35.8941 134.641 35.9677C134.388 36.2415 134.138 36.5113 133.833 36.8382H129.723C129.53 36.8382 129.337 36.8382 129.144 36.8382H128.565C128.501 36.8382 128.436 36.8382 128.372 36.8382C128.308 36.8382 128.243 36.8382 128.179 36.8382C128.155 36.8628 128.127 36.8914 128.103 36.9159L128.095 36.9118ZM128.199 35.698C128.292 35.9064 128.493 35.8328 128.658 35.8328C129.265 35.841 129.876 35.8492 130.483 35.8328C131.086 35.8165 131.685 35.7756 132.285 35.7348C132.453 35.7225 132.638 35.7961 132.787 35.6653C132.836 35.0727 132.771 34.5209 132.518 33.9733C131.939 32.7145 130.318 32.596 129.426 33.3357C128.871 33.7976 128.525 34.4065 128.296 35.0849C128.235 35.2607 128.231 35.4528 128.195 35.6939L128.199 35.698Z" fill="white"/>
<path d="M52.477 38.6855C52.3041 38.8286 52.1995 39.0942 52.1513 39.413C52.1151 39.6337 52.0065 39.8666 51.8698 40.0465C51.5441 40.4633 51.331 40.9333 51.1339 41.4156C51.0977 41.5055 51.0455 41.5872 50.9771 41.718H49.6863C49.5898 41.4892 49.3445 41.2562 49.3727 40.9088C48.9706 40.4593 49.063 39.7931 48.6931 39.3272C48.6368 39.2577 48.6247 39.1514 48.6046 39.0574C48.5926 39.0125 48.6207 38.9471 48.6006 38.9144C48.3352 38.4853 48.2468 37.9867 48.0779 37.5208C47.9854 37.2633 47.8849 37.014 47.8085 36.7483C47.6838 36.3192 47.5551 35.8819 47.3541 35.4691C47.2214 35.1953 47.0686 34.9092 47.0324 34.5618C46.9841 34.0755 46.763 33.6055 46.6303 33.1682C46.2121 33.0006 45.8421 33.0742 45.4561 33.1069C45.3716 32.7881 45.436 32.4857 45.4159 32.1832C45.7456 32.077 49.3043 32.0443 50.1286 32.1383C50.0522 32.4039 49.9759 32.6655 49.8834 32.9884C49.6823 33.0292 49.425 33.0824 49.1153 33.1437C49.0349 33.1886 48.8982 33.2622 48.7092 33.3603C48.6087 33.7117 48.7414 34.0837 48.9223 34.4433C49.0068 34.615 49.0791 34.7784 49.0872 34.9828C49.0952 35.1503 49.1515 35.3383 49.248 35.4691C49.3847 35.6571 49.3968 35.8492 49.4008 36.0658C49.4008 36.2007 49.4451 36.3396 49.4853 36.4704C49.8512 37.5861 50.2252 38.6978 50.6031 39.834C50.9289 39.8544 50.7881 39.5029 50.949 39.4048C50.8967 39.2904 50.8605 39.2087 50.8122 39.1065C51.0937 38.9634 51.1943 38.7101 51.2867 38.4444C51.4516 37.9744 51.5642 37.484 51.8537 37.0589C51.9985 36.8464 52.0387 36.5644 52.1272 36.3192C52.4529 35.4323 52.7786 34.5496 53.1003 33.6668C53.1445 33.5483 53.1405 33.5442 53.0279 33.3357C52.5976 33.4829 52.3322 32.9843 51.9342 33.0864C51.7411 32.4979 51.7411 32.4816 51.906 32.1301H55.907C55.9191 32.2609 55.9352 32.3998 55.9513 32.5715C56.0156 32.6205 56.1001 32.6859 56.2167 32.7758C56.2167 32.8371 56.2488 32.9516 56.2086 33.0211C56.1563 33.1028 56.0116 33.2091 55.9593 33.1845C55.5572 33.0088 55.1993 33.1559 54.7771 33.3725C54.761 33.4257 54.7329 33.5646 54.6766 33.6913C54.4755 34.149 54.2664 34.5986 54.0573 35.0523C54.0372 35.0931 53.9729 35.1176 53.9608 35.1585C53.8804 35.3956 53.8241 35.6449 53.7316 35.8778C53.6471 36.0985 53.4139 36.2497 53.422 36.5195C53.422 36.5808 53.4139 36.6502 53.3858 36.7034C53.2732 36.9241 53.0922 37.1325 53.052 37.3655C53.0078 37.627 52.855 37.7864 52.7303 37.9867C52.6177 38.1665 52.5856 38.3994 52.4931 38.6896L52.477 38.6855Z" fill="white"/>
<path d="M61.7056 7.27752C61.8222 7.18761 61.9107 7.12222 61.9831 7.06909C62.6827 7.22031 63.3583 7.17126 64.0379 7.12222C64.3193 7.18353 64.6209 7.24483 65.019 7.33065C65.0954 7.41239 65.2482 7.5677 65.389 7.71074C65.204 8.08265 65.2402 8.39734 65.4774 8.70386C65.2965 9.03899 65.3407 9.37003 65.582 9.70107C65.5136 9.8155 65.4372 9.93811 65.3648 10.0607C64.9909 10.1057 64.625 10.1506 64.2027 10.1997C64.2671 10.0076 64.2992 9.86455 64.2349 9.6929C64.1505 9.47629 64.1545 9.22699 64.1263 8.98994C64.0942 8.68343 63.9896 8.43821 63.684 8.30743C63.1814 8.09491 62.6747 8.07856 62.1479 8.21343C61.6855 8.32786 61.2753 8.5363 60.8411 8.85508C60.8008 9.30872 60.7606 9.79915 60.7204 10.2487C60.9496 10.6615 61.2874 10.8454 61.6493 10.9721C62.1801 11.1601 62.7229 11.3072 63.2578 11.4789C63.676 11.6137 64.0901 11.7609 64.5043 11.9121C64.6048 11.9489 64.6893 12.0224 64.7778 12.0837C64.9185 12.1859 65.0552 12.2922 65.2402 12.4352C65.2482 12.4557 65.2603 12.5701 65.3246 12.6273C65.6503 12.9338 65.6343 13.3466 65.6624 13.7349C65.7026 14.2498 65.6664 14.7607 65.4051 15.2266C65.3528 15.3165 65.3648 15.4432 65.3488 15.5454C65.0311 15.8028 64.7215 16.044 64.4239 16.3055C64.0781 16.608 63.6478 16.7061 63.2336 16.845C62.3329 17.1434 61.404 17.0289 60.4872 17.0371C60.3344 17.0371 60.1735 16.9962 60.0328 16.939C59.8197 16.8573 59.6186 16.8082 59.4578 16.939C59.2366 16.7919 59.0517 16.6652 58.8426 16.5262C58.7943 16.1175 58.746 15.6925 58.6897 15.2225C58.6616 15.198 58.5932 15.1448 58.5369 15.0999C58.5691 14.9037 58.6254 14.7321 58.6214 14.5645C58.6174 14.3969 58.553 14.2335 58.5088 14.0373C58.6938 13.9883 58.8426 13.9556 58.9833 13.9065C59.1281 13.8575 59.2688 13.7962 59.4296 13.7308C59.5462 13.7757 59.691 13.8329 59.8317 13.8902C59.9242 14.3397 60.0167 14.7729 60.1213 15.2797C60.2861 15.4963 60.5234 15.6843 60.9054 15.6843C61.1065 15.6843 61.3075 15.8315 61.5126 15.905C61.585 15.9336 61.6654 15.9745 61.7378 15.9663C62.2203 15.9091 62.7109 15.8846 63.1733 15.7579C63.684 15.6189 64.0137 15.0263 64.0419 14.4991C64.0861 13.6572 63.6076 13.1872 62.8195 12.9297C62.4254 12.803 62.0313 12.6763 61.6131 12.6069C61.2673 12.5497 60.9215 12.3739 60.5877 12.1818C60.2379 11.9775 59.884 11.8058 59.5865 11.5157C58.9511 10.8945 58.9109 10.1629 59.1079 9.35368C59.2648 8.70795 59.7272 8.2543 60.0569 7.71891C60.3947 7.57587 60.6883 7.31431 61.0662 7.27344C61.2874 7.24892 61.5126 7.26935 61.7096 7.26935L61.7056 7.27752Z" fill="white"/>
<path d="M45.8904 10.7555C46.2764 11.0334 46.7469 11.0947 47.1731 11.2704C47.342 11.3399 47.527 11.3849 47.6878 11.438C47.8728 11.4094 48.0578 11.3808 48.2428 11.3481C48.484 11.6464 48.7534 11.8549 49.1355 11.8671C49.2239 11.8671 49.3325 11.908 49.3888 11.9652C49.6984 12.2881 50.004 12.615 50.2895 12.9624C50.3458 13.0278 50.4464 13.1422 50.3499 13.2935C50.3177 13.3466 50.4504 13.5019 50.5228 13.6449C50.4464 13.882 50.3257 14.1599 50.5388 14.4337C50.4504 14.634 50.3338 14.8097 50.3136 15.0427C50.2935 15.2388 50.189 15.4391 49.992 15.5862C49.6864 15.811 49.429 16.1012 49.1355 16.3505C48.9264 16.5221 48.6771 16.5998 48.4117 16.6733C48.1503 16.7469 47.8768 16.8246 47.6235 16.9267C47.3943 17.0166 47.1731 17.0534 46.9319 17.0493C46.6263 17.0412 46.3207 17.0493 46.0151 17.0493C45.5245 17.0493 45.05 17.0126 44.5634 16.8899C44.1975 16.7959 43.8477 16.702 43.538 16.5385C43.5541 16.33 43.5702 16.1339 43.5863 15.9418C43.5099 15.8968 43.4576 15.8641 43.4415 15.8519C43.4616 15.6148 43.4777 15.3982 43.4938 15.1734C43.4214 15.1244 43.3611 15.0794 43.3128 15.0467C43.345 14.822 43.3732 14.6054 43.4013 14.4051C43.3209 14.307 43.2606 14.2334 43.1641 14.1068C43.4536 14.0209 43.715 13.9474 44.0366 13.8534C44.0366 13.8534 44.0809 13.788 44.1211 13.7267C44.294 13.7226 44.5031 13.9433 44.5473 14.1599C44.6117 14.4991 44.6961 14.8383 44.7404 15.1816C44.7725 15.4227 44.9213 15.574 45.1023 15.6639C45.4159 15.8233 45.7295 15.999 46.1075 15.9745C46.2402 15.9663 46.381 16.0685 46.5137 16.0603C47.1088 16.0276 47.7039 15.9622 48.2106 15.6067C48.3473 15.5127 48.4438 15.3492 48.5323 15.2021C48.6328 15.0427 48.7012 14.8628 48.7937 14.683C48.7534 14.4501 48.8862 14.164 48.6167 13.9801C48.3956 13.273 48.3915 13.2812 47.7401 13.0319C47.2777 12.8562 46.8193 12.6559 46.3689 12.4475C46.1558 12.3494 45.9387 12.2922 45.7094 12.239C45.3395 12.1573 44.9897 11.9652 44.7484 11.8671C44.4709 11.5688 44.2618 11.3726 44.0889 11.1437C43.9361 10.9435 43.8276 10.7105 43.6908 10.4776C43.8276 10.0975 43.8155 9.68879 43.6747 9.27193C43.8798 9.07984 44.1533 8.91636 44.0889 8.54445C44.3543 8.34011 44.7001 8.19707 44.7564 7.78429C45.0741 7.69029 45.4199 7.67394 45.7135 7.45325C45.8663 7.33881 46.0915 7.3102 46.2885 7.26116C46.4453 7.22438 46.6383 7.31838 46.7268 7.08542C46.7389 7.05273 46.8836 7.04047 46.952 7.06908C47.4345 7.25299 47.9331 7.12221 48.4237 7.1549C48.5403 7.16307 48.661 7.08951 48.7736 7.05681C49.0832 7.26525 49.1797 7.29794 49.5336 7.26116C49.7024 7.24481 49.803 7.29794 49.8552 7.46959C49.8834 7.55951 49.9518 7.63716 50.0241 7.75977C50.0724 8.39324 50.1287 9.07167 50.185 9.80731C50.1528 9.86044 50.0925 9.9667 50.0282 10.077H49.1475C49.0872 9.86862 49.0309 9.67244 48.9786 9.47219C48.9304 9.27601 48.8861 9.07167 48.8379 8.85506C48.7454 8.75289 48.6449 8.61802 48.5242 8.50767C48.2428 8.26246 47.8929 8.16846 47.535 8.14394C47.2013 8.11941 46.8595 8.13985 46.4895 8.13985C46.2282 8.33602 45.9306 8.51176 45.6773 8.77741C45.3877 9.07984 45.3877 9.44766 45.3757 9.78279C45.3676 10.1016 45.4239 10.4898 45.7858 10.6819C45.822 10.7064 45.8582 10.7269 45.8944 10.7514L45.8904 10.7555Z" fill="white"/>
<path d="M37.9686 33.491C37.7193 33.3603 37.4459 33.393 37.1805 33.3848C37.0116 33.3807 36.8467 33.3603 36.6577 33.348V32.4571C37.0357 32.3631 37.4097 32.2731 37.7877 32.1791C38.0008 32.126 38.2179 32.2241 38.4431 32.126C38.7688 31.9871 39.1227 31.9176 39.4484 31.8277C39.5369 31.8726 39.6052 31.9053 39.7057 31.9584C39.6213 32.3181 39.9912 32.5837 39.8746 33.0333C39.7258 33.6096 39.7419 34.243 39.9189 34.8642C40.1722 34.6476 40.2446 34.4024 40.2003 34.1204C40.5542 33.8916 40.7915 33.5932 40.896 33.1927C40.9563 32.9475 41.1333 32.784 41.3182 32.6246C41.467 32.4938 41.6118 32.359 41.8329 32.1587C42.219 31.983 42.7176 31.8604 43.2524 31.9176C43.3368 31.9258 43.4293 31.8726 43.5218 31.8481C43.8837 31.7582 44.2175 31.9176 44.318 32.2486C44.3461 32.3467 44.3502 32.4816 44.31 32.5715C44.1451 32.9311 43.9561 33.2785 43.7711 33.6382C43.6585 33.675 43.5419 33.7158 43.4374 33.7485C43.1197 33.6463 42.806 33.5442 42.4723 33.585C42.0099 33.6382 41.6922 33.9161 41.459 34.3084C41.3946 34.4147 41.3303 34.5209 41.2539 34.6149C41.1373 34.758 40.9644 34.8316 40.8719 35.0114C40.7955 35.1667 40.7512 35.3383 40.6226 35.4773C40.4979 35.6122 40.3491 35.7961 40.3411 35.9677C40.329 36.3069 40.1601 36.5644 40.0435 36.8546C40.0033 36.9486 40.0676 37.0916 40.0918 37.2551C39.9229 37.439 39.9229 37.6965 39.9309 37.9826C39.9551 38.7305 39.939 39.4825 39.935 40.2304V40.5205C39.9631 40.5287 39.9912 40.5328 40.0194 40.541C40.0516 40.4756 40.0837 40.4102 40.1119 40.3448C40.1441 40.3407 40.1843 40.3203 40.2044 40.3325C40.7593 40.6677 41.3826 40.6186 42.0139 40.6227V41.4851H36.8588C36.8266 41.1745 36.7985 40.8679 36.7623 40.5083C37.273 40.729 37.7394 40.6145 38.1737 40.3162C38.2018 40.402 38.2622 40.4674 38.3305 40.3816C38.4029 40.2958 38.415 40.1772 38.2662 40.1282C38.2662 38.0112 38.2662 35.8901 38.2662 33.773C38.4632 33.6831 38.3506 33.5401 38.3426 33.4338C38.2099 33.4502 38.0892 33.4665 37.9686 33.4829V33.491Z" fill="white"/>
<path d="M69.9169 40.3489C69.9652 40.3489 70.0295 40.3203 70.0577 40.3407C70.5161 40.684 71.0469 40.6227 71.5656 40.6309C71.642 40.6309 71.7224 40.639 71.7747 40.639C71.7586 40.9251 71.7425 41.1908 71.7264 41.4891H66.6638C66.5914 41.2275 66.6437 40.9455 66.6317 40.6472C67.074 40.6022 67.4801 40.5573 67.8863 40.5123H68.0552V33.3847C67.9506 33.3929 67.8702 33.397 67.7898 33.4011H66.4668V32.4366C66.7684 32.457 67.0257 32.2894 67.3072 32.2241C67.6892 32.1382 68.0873 32.1341 68.3688 32.1055C68.7146 31.9829 68.9639 31.893 69.2092 31.8072C69.3178 31.8603 69.4143 31.9094 69.5309 31.9666C69.5028 32.3875 69.5872 32.784 69.8446 33.1477C69.7722 33.258 69.7038 33.3602 69.6153 33.4869C69.7038 33.8547 69.4827 34.292 69.8124 34.7293C69.929 34.5659 70.0577 34.4596 70.0939 34.3247C70.1381 34.1694 70.2306 34.0468 70.2869 33.912C70.6005 33.1314 71.2319 32.6205 71.6501 32.1709C72.3095 31.7459 72.9087 32.0401 73.4596 31.8358C73.5923 31.7868 73.7853 31.9094 73.9703 31.9584C74.0306 32.0647 74.0989 32.1873 74.1753 32.3221C73.9703 32.8289 73.7933 33.348 73.4314 33.7934C72.8443 33.5973 72.2693 33.6586 71.7546 33.7771C71.2359 34.0509 71.1434 34.5945 70.8177 34.9582C70.6769 35.1176 70.5322 35.2811 70.4317 35.465C70.3432 35.6244 70.1823 35.7511 70.1904 35.9759C70.1944 36.0821 70.0818 36.1965 70.0577 36.311C69.9652 36.6625 69.8727 37.0098 69.7802 37.3613C69.7561 37.4512 69.7239 37.5452 69.7239 37.6392C69.7239 38.5016 69.732 39.3639 69.74 40.2263V40.5123L69.8285 40.5328L69.921 40.3366L69.9169 40.3489Z" fill="white"/>
<path d="M100.469 15.3819C100.473 13.7675 100.481 12.1532 100.481 10.5389C100.481 9.93402 100.473 9.33324 100.465 8.72837C100.441 8.69977 100.413 8.67524 100.389 8.64664C99.8781 8.63846 99.3674 8.63438 98.8568 8.6262C98.8487 8.43003 98.8407 8.23794 98.8286 8.04177C98.8407 7.91508 98.8568 7.78838 98.8728 7.63717C99.1463 7.60038 99.3634 7.38378 99.6811 7.52682C99.8098 7.58404 100.035 7.52682 100.172 7.44508C100.554 7.20804 100.968 7.27343 101.366 7.25708C101.475 7.18352 101.579 7.11404 101.664 7.05682C101.905 7.08952 101.929 7.23256 101.937 7.41239C101.965 8.1889 102.001 8.96133 102.033 9.73784C102.033 9.79915 102.054 9.86045 102.062 9.92584C102.347 9.9708 102.411 9.75011 102.516 9.57437C102.653 9.3455 102.765 9.09211 102.874 8.85507C103.003 8.56898 103.188 8.34012 103.377 8.12351C103.682 7.78021 104.048 7.49004 104.39 7.17943C104.519 7.06091 104.655 7.05274 104.828 7.10587C105.182 7.21621 105.54 7.17943 105.95 7.09361C105.99 7.1263 106.075 7.19578 106.163 7.26934C106.223 7.24074 106.276 7.21621 106.336 7.18352C106.404 7.24891 106.473 7.3143 106.541 7.37969C106.252 7.85377 106.3 8.41777 106.051 8.98176C105.801 9.19837 105.492 8.83464 105.166 8.91637C104.848 8.99811 104.515 9.01037 104.153 9.05533C104.084 9.16976 104.008 9.30054 103.903 9.48037C103.714 9.54985 103.505 9.66837 103.397 9.92584C103.252 10.2732 102.866 10.4858 102.862 10.9271C102.862 11.013 102.669 11.0947 102.6 11.1519C102.476 11.5197 102.347 11.859 102.247 12.2063C102.19 12.4025 102.15 12.611 102.146 12.8112C102.134 13.6572 102.134 14.5032 102.134 15.3533C102.134 15.48 102.134 15.6067 102.134 15.7783C102.5 15.7783 102.834 15.762 103.167 15.7824C103.481 15.8028 103.791 15.8641 104.124 15.9132C104.161 16.1625 104.197 16.4363 104.233 16.7142C104.233 16.7306 104.189 16.751 104.161 16.7674C104.096 16.7674 104.028 16.7674 103.964 16.7674C102.492 16.7674 101.02 16.7633 99.5484 16.7592C99.3916 16.7592 99.2388 16.7592 99.0659 16.7592V15.9336C99.4881 15.8437 99.8942 15.7538 100.304 15.668C100.345 15.7007 100.389 15.7334 100.477 15.8028V15.3778L100.469 15.3819ZM102.058 10.0934C102.058 10.1179 102.058 10.1465 102.058 10.1711C102.106 10.167 102.154 10.1629 102.198 10.1547V10.122C102.154 10.1098 102.106 10.1057 102.062 10.0975L102.058 10.0934Z" fill="white"/>
<path d="M75.3129 16.3505C75.1681 16.3505 75.0435 16.3505 74.9188 16.3505C74.8223 16.3505 74.7017 16.3219 74.6333 16.3709C74.3317 16.5793 73.9819 16.6488 73.6441 16.7633C73.5878 16.7837 73.5557 16.8818 73.5034 16.9513C73.3305 16.9104 73.1495 16.8736 72.9847 16.8368C72.9163 16.9267 72.8721 16.988 72.8238 17.0493C72.3011 17.0493 71.7904 17.0453 71.2757 17.0493C70.8736 17.0534 70.5036 16.9635 70.1457 16.7714C69.9608 16.6693 69.7396 16.6284 69.5546 16.5262C69.3415 16.4118 69.1123 16.3219 68.9756 16.0685C68.8389 15.8192 68.6257 15.6107 68.4247 15.4064C68.2719 15.2552 68.1995 15.0794 68.1271 14.8833C68.0708 14.728 67.9301 14.6013 67.7893 14.4174C67.5843 13.4978 67.6969 12.5047 67.6969 11.5238C67.6969 11.1723 67.8537 10.8209 67.9421 10.4735C67.9824 10.3223 68.0266 10.171 68.0748 10.0239C68.103 9.93401 68.1231 9.80322 68.1834 9.77053C68.481 9.6234 68.489 9.26375 68.7303 9.06349C68.9555 8.87549 68.9072 8.47498 69.2731 8.33602C69.5586 8.22976 69.7999 8.00907 70.0613 7.83333C70.1618 7.76794 70.2543 7.69437 70.4312 7.56359C71.0425 7.51864 71.6899 7.08951 72.4257 7.15899C73.1455 7.22438 73.8693 6.98325 74.6615 7.19577C74.7942 7.38785 74.9631 7.6249 75.14 7.87828C74.8746 8.2788 74.6333 8.64254 74.384 9.02262C74.1629 8.94088 73.9135 8.97767 73.7808 8.72428C73.7567 8.67932 73.6723 8.64254 73.616 8.64254C73.0932 8.65071 72.6147 8.32785 72.0799 8.42593C71.8185 8.47089 71.5572 8.51176 71.2717 8.5608C71.2596 8.61802 71.2435 8.69158 71.2194 8.79784H70.8414C70.0734 9.49262 69.6873 10.3304 69.4943 11.3072C69.4018 11.7772 69.4139 12.239 69.43 12.7009C69.438 12.9869 69.6351 13.2648 69.6511 13.5509C69.6672 13.8125 69.6793 14.0577 69.7999 14.2907C69.8683 14.4296 69.9125 14.5686 70.0774 14.6462C70.1699 14.6912 70.2181 14.8424 70.2824 14.9446C70.3347 15.0222 70.3669 15.1326 70.4393 15.1734C70.773 15.3533 71.0425 15.668 71.4365 15.7088C71.6376 15.7293 71.8427 15.7456 72.0437 15.7456C72.6871 15.7497 73.3184 15.5944 73.9457 15.4677C74.0221 15.4514 74.1025 15.4309 74.1588 15.386C74.4283 15.1653 74.7298 15.1285 75.0475 15.1857C75.1319 15.5617 75.2124 15.9254 75.3008 16.33L75.3129 16.3505Z" fill="white"/>
<path d="M21.7796 10.9925C21.7273 10.7514 21.6951 10.6002 21.6589 10.4449C21.864 10.2855 22.1012 10.1956 22.1696 9.94219C22.2138 9.76236 22.2621 9.58254 22.3264 9.32915C22.9256 8.79376 23.5489 8.16029 24.3089 7.69438C24.4375 7.61673 24.5903 7.57995 24.7351 7.52273C24.7673 7.42465 24.7994 7.32247 24.8276 7.23665C25.1091 7.253 25.3664 7.26526 25.6318 7.27752C25.8489 7.09769 26.0581 7.01595 26.3637 7.13039C26.6049 7.2203 26.9025 7.17534 27.1719 7.16308C27.8595 7.13447 28.4587 7.27752 29.0618 7.58812C28.9613 7.8456 28.8889 8.11125 28.7603 8.34829C28.6396 8.5649 28.4587 8.74881 28.3018 8.95315C27.7831 8.70385 27.2845 8.52811 26.7416 8.52403C26.5406 8.52403 26.3395 8.44229 26.1385 8.44229C25.1372 8.45046 24.4174 8.91228 23.955 9.81549C23.6655 10.3795 23.4926 10.968 23.4081 11.6015C23.2634 12.6886 23.4081 13.6572 23.8826 14.5604C24.148 15.0672 24.5541 15.4064 25.0568 15.623C25.2136 15.6884 25.4066 15.6516 25.664 15.668C25.8007 15.7906 26.0259 15.9377 26.3878 15.8355C26.4401 15.7865 26.5486 15.6884 26.6612 15.5821C27.0191 15.6189 27.3931 15.6516 27.751 15.5617C28.1289 15.4677 28.4908 15.3124 28.8849 15.1734C29.0257 15.4759 29.1302 15.7661 29.1021 16.1175C28.4627 16.4649 27.7469 16.612 27.0593 16.8532C26.3797 17.0902 25.6881 17.0412 24.9924 17.0453C24.8959 17.0453 24.7874 17.0575 24.711 17.0167C24.0113 16.6243 23.2071 16.42 22.6682 15.7456C22.3345 15.3247 22.0731 14.8751 21.8801 14.3806C21.6469 13.7757 21.5544 13.1463 21.5785 12.4965C21.5906 12.1655 21.6388 11.8222 21.5142 11.4952C21.6066 11.3236 21.6991 11.1437 21.7796 10.9966V10.9925Z" fill="white"/>
<path d="M55.4689 15.7048C55.7745 15.9091 55.9474 15.5576 56.1324 15.574C56.434 15.7129 56.6833 15.8315 56.9688 15.9622C56.9809 16.1421 56.997 16.375 57.0171 16.6693C56.9809 16.6815 56.8844 16.751 56.7879 16.751C55.2639 16.7592 53.7398 16.7551 52.1917 16.7551C52.1595 16.4282 52.1314 16.1216 52.0992 15.7947H52.7507C52.8029 15.7211 52.8431 15.6598 52.8914 15.5944C53.0643 15.5863 53.2171 15.5495 53.3779 15.7375C53.4905 15.8723 53.7077 15.7783 53.8042 15.6189V8.6344H52.1676C51.9705 8.28292 52.1032 7.93962 52.059 7.60858C52.4611 7.52684 52.8431 7.37971 53.2171 7.39197C53.4463 7.40015 53.6634 7.37563 53.8846 7.35519C54.0495 7.33884 54.2063 7.26937 54.4315 7.20398C54.5789 7.25574 54.7357 7.21896 54.902 7.09363C55.107 7.13041 55.292 7.15902 55.5011 7.1958C55.5092 7.23667 55.5413 7.30615 55.5252 7.35519C55.3925 7.74754 55.4368 8.15214 55.4368 8.55266C55.4368 9.93813 55.4368 11.3236 55.4368 12.705C55.4368 13.6327 55.4448 14.5604 55.4529 15.4882C55.4529 15.5658 55.4609 15.6435 55.4649 15.7048H55.4689Z" fill="white"/>
<path d="M136.76 40.921C136.76 40.684 136.732 40.4347 136.768 40.1976C136.8 39.9688 136.901 39.7522 136.977 39.511C137.279 39.4334 137.588 39.2944 137.906 39.2822C138.212 39.2699 138.525 39.3843 138.911 39.4579C139.265 39.7481 139.032 40.3121 139.249 40.7044C139.128 41.3174 138.758 41.6444 138.167 41.7139C137.516 41.7915 137.021 41.5668 136.752 40.921H136.76Z" fill="white"/>
<path d="M55.4082 4.70683C54.99 4.79265 54.5919 4.87439 54.2501 4.94796C53.1483 4.31857 53.3213 4.44526 53.2368 3.52162C53.3373 3.35406 53.4258 3.18241 53.5344 3.0271C53.84 2.58163 54.2944 2.51215 54.7729 2.56937C55.179 2.61841 55.4766 2.85954 55.5811 3.25597C55.6455 3.4971 55.6495 3.77092 55.6214 4.02431C55.5972 4.24092 55.4927 4.44526 55.4082 4.70683Z" fill="white"/>
<path d="M13.9823 5.66726C13.1579 5.79804 12.792 5.30352 12.6191 4.82126C12.5226 4.54744 12.8925 3.97527 13.2343 3.81588C13.6485 3.61971 14.1391 3.74232 14.3844 4.11423C14.5653 4.38805 14.6297 4.70683 14.497 4.99291C14.3803 5.2463 14.1552 5.45065 13.9823 5.66726Z" fill="white"/>
<path d="M18.0361 4.35126C18.0241 4.5883 18.016 4.78856 17.9999 5.07056C17.8592 5.21769 17.6782 5.40977 17.5295 5.56916C17.2761 5.60186 17.0751 5.63047 16.7856 5.66725C16.2306 5.45473 16.1382 4.92752 16.1904 4.31039C16.2427 4.2123 16.303 4.10196 16.3553 3.99978C16.6689 3.79544 16.9947 3.66057 17.3606 3.75457C17.6984 3.84039 17.8632 4.15509 18.0361 4.35126Z" fill="white"/>
<path d="M37.9688 33.4911C38.0894 33.4747 38.21 33.4584 38.3427 33.442C38.3508 33.5483 38.4633 33.6954 38.2663 33.7812C38.1537 33.6995 37.9647 33.6954 37.9728 33.4911H37.9688Z" fill="white"/>
<path d="M100.469 15.3819V15.8069C100.381 15.7374 100.337 15.7047 100.296 15.672C100.305 15.5454 100.24 15.3737 100.469 15.3819Z" fill="white"/>
<path d="M40.1076 40.3489C40.0754 40.4143 40.0433 40.4797 40.0151 40.545C39.987 40.5369 39.9588 40.5328 39.9307 40.5246V40.2344C39.991 40.2753 40.0473 40.3121 40.1076 40.353V40.3489Z" fill="white"/>
<path d="M69.9163 40.3489L69.8238 40.545L69.7354 40.5246V40.2385C69.7957 40.2753 69.856 40.3121 69.9163 40.3489Z" fill="white"/>
<path d="M104.989 40.1323C104.997 40.2222 105.009 40.3162 105.021 40.4511C104.925 40.4265 104.873 40.4143 104.82 40.3979C104.832 40.2794 104.792 40.1282 104.989 40.1323Z" fill="white"/>
<path d="M38.2624 40.1364C38.4112 40.1895 38.3991 40.3039 38.3267 40.3897C38.2584 40.4756 38.1981 40.4102 38.1699 40.3244C38.2021 40.263 38.2302 40.1977 38.2624 40.1364Z" fill="white"/>
<path d="M24.3771 41.53H24.5741C24.5419 41.5872 24.5098 41.6404 24.4736 41.6976L24.373 41.53H24.3771Z" fill="white"/>
<path d="M18.1085 41.53H18.3055C18.2734 41.5872 18.2412 41.6404 18.205 41.6976C18.1729 41.6404 18.1407 41.5872 18.1045 41.53H18.1085Z" fill="white"/>
<path d="M103.96 16.7714C104.024 16.7714 104.092 16.7714 104.157 16.7714C104.124 16.8286 104.092 16.8818 104.056 16.939C104.024 16.8818 103.992 16.8286 103.956 16.7714H103.96Z" fill="white"/>
<path d="M107.82 41.53H108.017C107.985 41.5872 107.953 41.6404 107.916 41.6976C107.884 41.6404 107.852 41.5872 107.816 41.53H107.82Z" fill="white"/>
<path d="M144.589 26.8825C144.545 26.8825 144.505 26.8825 144.46 26.8825C144.473 26.8416 144.485 26.8007 144.517 26.6985C144.553 26.7925 144.569 26.8375 144.589 26.8825Z" fill="white"/>
<path d="M118.178 25.8689C118.178 25.8281 118.178 25.7872 118.178 25.7422C118.222 25.7545 118.263 25.7668 118.375 25.7954C118.271 25.8322 118.226 25.8485 118.178 25.8649V25.8689Z" fill="white"/>
</svg>
