<svg width="49" height="41" viewBox="0 0 49 41" fill="none" xmlns="http://www.w3.org/2000/svg">
<path d="M26.1615 16.7196C26.3505 16.4458 26.9135 16.1924 27.5609 16.1474C27.6333 16.4948 27.7097 16.8463 27.782 17.1978C27.9389 17.9702 28.0917 18.7467 28.2485 19.5191C28.2887 19.7194 28.3168 19.9237 28.3651 20.124C28.3973 20.2589 28.4576 20.3855 28.5139 20.5286C28.3772 20.6839 28.4616 20.8269 28.6144 20.9414C28.5943 21.0599 28.5501 21.1702 28.5702 21.2642C28.6868 21.8732 28.8235 22.474 28.9401 23.0829C29.0768 23.7981 29.1935 24.5215 29.3342 25.2367C29.3543 25.3389 29.4508 25.4206 29.5232 25.531C29.4991 25.5759 29.4669 25.6332 29.4186 25.719C29.4548 25.8702 29.7122 25.9887 29.5634 26.2176C29.7564 26.3688 29.7524 26.5405 29.5915 26.708C29.676 26.8184 29.7444 26.9042 29.8127 26.9941C29.7765 27.0595 29.7444 27.1126 29.6961 27.1944C29.7604 27.2843 29.8328 27.3864 29.9052 27.4886C29.869 27.5499 29.8409 27.6071 29.7926 27.6889C29.8489 27.7665 29.9173 27.8524 29.9977 27.9586C29.9776 27.9995 29.9132 28.0771 29.9293 28.1017C30.0902 28.3469 29.9615 28.6779 30.1304 28.8659C30.1223 29.009 30.0982 29.1193 30.1183 29.2174C30.2309 29.7773 30.3676 30.329 30.4722 30.893C30.6451 31.7962 30.7939 32.7076 30.9628 33.6108C30.9829 33.7293 31.0794 33.8315 31.1477 33.9623C31.1236 33.9991 31.0955 34.0522 31.0472 34.134C31.1115 34.2811 31.3247 34.4119 31.2 34.6366C31.4011 34.7879 31.3729 34.9636 31.2241 35.1312C31.3046 35.2252 31.3649 35.2987 31.4413 35.3968C31.4131 35.454 31.3769 35.5235 31.3287 35.6216C31.385 35.6952 31.4533 35.781 31.5378 35.8872C31.5096 35.9445 31.4734 36.0139 31.4252 36.112C31.4855 36.1856 31.5539 36.2714 31.6343 36.3695C31.6142 36.4185 31.5901 36.4758 31.574 36.5125C31.6423 36.7945 31.7067 37.0643 31.7549 37.2564C31.7549 37.8653 31.9319 38.3721 32.0203 38.8952C32.1088 39.4183 32.2174 39.9415 32.3219 40.4932H13.1612C12.7027 40.1213 12.2283 39.7535 11.7658 39.3611C11.5044 39.1363 11.2752 38.8707 11.0219 38.6337C10.7565 38.3803 10.4791 38.1391 10.2056 37.8939C10.1694 37.8612 10.1332 37.8285 10.1051 37.7877C9.78339 37.334 9.46572 36.8763 9.13599 36.4308C8.8907 36.0957 8.61726 35.7851 8.37599 35.4459C8.19102 35.1925 8.02615 34.9227 7.87335 34.6448C7.22595 33.4719 6.56648 32.303 6.2287 30.9789C6.12415 30.5702 5.99146 30.1533 5.79844 29.7609C5.62151 29.4013 5.5813 28.9763 5.48479 28.5798C5.35612 28.0281 5.22342 27.4804 5.1068 26.9246C5.07464 26.7693 5.10278 26.6018 5.10278 26.4178C5.05453 26.3238 4.99823 26.2094 4.96606 26.1399C5.03442 25.5065 5.00628 24.9098 4.99823 24.3172C4.99019 23.7246 5.05453 23.1238 4.97009 22.617C5.02236 22.3309 5.06257 22.1143 5.09876 21.9018C5.19125 21.3419 5.20733 20.7697 5.36014 20.218C5.41643 20.0218 5.46469 19.8175 5.48479 19.6131C5.56119 18.8693 5.78236 18.1623 5.98743 17.4511C6.15632 16.8749 6.31315 16.2986 6.51823 15.7346C6.86404 14.766 7.26214 13.8179 7.70446 12.8901C8.29959 11.6477 8.97514 10.4502 9.74318 9.31408C10.4348 8.29643 11.1626 7.30331 11.8784 6.30202C12.2644 5.76254 12.6585 5.22716 13.0646 4.69994C13.2898 4.40977 13.5512 4.1523 13.7885 3.8703C14.0619 3.53926 14.3233 3.20004 14.5887 2.86492C14.6088 2.84039 14.6289 2.81587 14.649 2.79135C15.2401 2.15379 15.8272 1.51623 16.4062 0.89502H24.4686C24.8305 2.81587 25.1884 4.73264 25.5423 6.64941C25.5583 6.73932 25.5342 6.8374 25.5262 6.94366C25.1401 7.11123 24.7622 7.26244 24.3962 7.44227C24.0142 7.63027 23.6322 7.82235 23.2743 8.04713C22.5103 8.52939 21.7463 9.01982 21.0868 9.64921C20.4917 10.2173 19.8644 10.7527 19.3215 11.3698C18.5736 12.2199 17.9061 13.1354 17.315 14.1162C16.8646 14.8682 16.4303 15.6284 16.0483 16.4212C15.5377 17.4838 15.1597 18.6037 14.8541 19.7398C14.6972 20.3242 14.645 20.9332 14.5485 21.534C14.4318 22.2492 14.3313 22.9644 14.3595 23.6878C14.4077 24.9343 14.5364 26.1726 14.8862 27.3824C15.3688 29.0703 16.1368 30.6069 17.13 32.0455C17.7332 32.9161 18.4289 33.7007 19.2009 34.4119C20.2343 35.3641 21.3804 36.1406 22.6631 36.7169C23.5236 37.1011 24.4003 37.4117 25.3492 37.6855C25.5865 37.5711 25.8519 37.4403 26.0932 37.3218C26.1897 36.8313 25.9966 36.5371 25.6388 36.3491C25.3734 36.2101 25.0838 36.1161 24.8104 35.9894C23.0331 35.1679 21.694 33.8724 20.7491 32.1477C20.1378 31.032 19.6352 29.8754 19.3497 28.6248C19.2733 28.2815 19.1768 27.9464 19.1808 27.5908C19.1808 27.084 19.1808 26.5813 19.1808 26.0745C19.1808 25.6209 19.2813 25.1877 19.3819 24.7545C19.595 23.79 19.9529 22.8786 20.4434 22.0244C20.9501 21.1457 21.4849 20.2875 22.2128 19.5763C22.6068 19.1922 22.9768 18.7835 23.3749 18.4075C23.6161 18.1827 23.8896 17.9865 24.163 17.8026C24.6053 17.5043 25.0557 17.2141 25.5141 16.9403C25.675 16.8463 25.876 16.8136 26.1495 16.7196H26.1615Z" fill="#F8C300"/>
<path d="M35.7881 17.0098C36.4757 17.2836 37.1191 17.6473 37.7062 18.105L37.8148 18.1827C38.0399 18.3298 38.2651 18.477 38.4903 18.6241C38.4782 18.763 38.5547 18.8039 38.6793 18.7957C39.194 19.3556 39.7127 19.9156 40.2274 20.4796C40.2274 20.6512 40.3119 20.7493 40.4848 20.7534C40.6899 21.0476 40.9633 21.301 41.0638 21.6648C41.084 21.7424 41.1885 21.7915 41.2408 21.865C41.3252 21.9795 41.4619 22.098 41.466 22.2165C41.474 22.4862 41.6469 22.6415 41.7756 22.8295C41.7997 22.8541 41.8198 22.8745 41.8439 22.899C41.9405 23.0788 42.037 23.2505 42.0731 23.463C42.1053 23.651 42.2541 23.8186 42.3546 23.9984C42.3788 24.0229 42.4029 24.0515 42.427 24.076C42.4351 24.3417 42.4471 24.6073 42.6361 24.8239C42.6683 24.8607 42.6482 24.9425 42.6562 25.0038C42.7004 25.0487 42.7407 25.0978 42.7849 25.1427C42.9297 25.8539 43.0704 26.5691 43.2272 27.2761C43.2513 27.3946 43.3479 27.4968 43.4202 27.6276C43.3559 27.8319 43.3157 28.0322 43.3881 28.2897C43.4806 28.6207 43.4243 29.0008 43.4162 29.3563C43.4082 29.6915 43.4243 30.0225 43.3358 30.3658C43.2674 30.6274 43.3559 30.9298 43.38 31.2772C43.2393 31.4202 43.1347 31.6328 43.2594 31.9188C43.2835 31.972 43.3438 32.1681 43.1589 32.2213C43.1347 32.2295 43.1026 32.3643 43.1307 32.397C43.3318 32.6667 43.0624 32.9161 43.1066 33.1817C43.1186 33.2594 42.99 33.3574 42.9256 33.4392V34.0359C42.9256 34.0359 42.8935 34.0277 42.8774 34.0236C42.813 34.2443 42.7487 34.4691 42.6844 34.6898C42.7004 34.6939 42.7165 34.698 42.7286 34.702C42.6602 34.8246 42.5798 34.9432 42.5235 35.0739C42.3426 35.5194 42.1656 35.9649 41.9967 36.4145C41.9646 36.5003 41.9726 36.6025 41.9646 36.6965C41.8681 36.7046 41.7434 36.6842 41.7917 36.8558C41.7836 36.9335 41.7796 37.0111 41.7716 37.0847C41.7193 37.1011 41.667 37.1133 41.6107 37.1297L41.6188 37.1828H41.8399C41.7394 37.2564 41.6389 37.334 41.5504 37.4035C41.4257 37.6242 41.2971 37.8449 41.1724 38.0656C41.1483 38.0983 41.1201 38.1351 41.096 38.1677C41.0075 38.2086 40.9151 38.2495 40.8266 38.2904C40.8547 38.3476 40.8789 38.4007 40.907 38.4579C40.8628 38.5887 40.8186 38.7154 40.7743 38.8462C40.7502 38.8462 40.722 38.8462 40.6979 38.8462C40.6255 38.9075 40.5491 38.9688 40.4768 39.0342C40.3601 39.0342 40.3038 39.0955 40.3159 39.2181C40.0907 39.4633 39.8736 39.7208 39.6404 39.9578C39.4393 40.1622 39.2181 40.3461 39.0251 40.5177C37.7866 40.5177 36.5883 40.5177 35.39 40.5177C35.2975 40.5177 35.201 40.5014 35.1085 40.4891C35.1206 40.3583 35.0563 40.3052 34.9316 40.3134L34.6823 39.2344C34.5777 39.0669 34.9638 38.8217 34.5295 38.7113C34.7587 38.4743 34.5858 38.3231 34.4571 38.1637C34.5094 38.1391 34.5617 38.1146 34.6139 38.0901C34.5617 38.0492 34.5094 38.0084 34.4571 37.9675C34.4491 37.8694 34.445 37.7713 34.437 37.6732C34.4651 37.6283 34.4933 37.5833 34.5214 37.5424C34.4692 37.522 34.4169 37.5016 34.3606 37.4811C34.3606 36.7741 34.1274 36.1039 34.0309 35.4091C33.9545 34.8492 33.7614 34.3056 33.677 33.7416C33.6046 33.2675 33.5242 32.8057 33.2829 32.3888C33.2709 32.3684 33.291 32.3275 33.295 32.2948C33.3473 32.2621 33.4036 32.2295 33.4558 32.1968C33.4036 32.1641 33.3473 32.1314 33.295 32.0987C33.1703 31.4325 33.0457 30.7704 32.917 30.1043C32.8125 29.5648 32.7079 29.0253 32.5993 28.4858C32.4747 27.8564 32.342 27.2311 32.2213 26.6018C32.2093 26.5405 32.2374 26.4751 32.2455 26.4097C32.3902 26.238 32.2535 26.238 32.1369 26.2258C32.1369 26.1236 32.1449 26.0214 32.149 25.9233C32.3018 25.7476 32.161 25.7517 32.0404 25.7394C31.8514 24.8975 31.7589 24.0352 31.4694 23.2178C31.389 23.038 31.7509 22.8009 31.3689 22.662C31.5498 22.4372 31.4292 22.2737 31.2724 22.1184C31.3246 22.0939 31.3769 22.0694 31.4292 22.0448C31.3769 22.004 31.3246 21.9631 31.2724 21.9222C31.2643 21.8241 31.2563 21.7261 31.2523 21.628C31.2804 21.583 31.3085 21.5381 31.3367 21.4972C31.2844 21.4768 31.2281 21.4563 31.1758 21.4359C31.1678 20.7166 30.9386 20.03 30.83 19.327C30.7456 18.7671 30.5968 18.2154 30.4802 17.6637C30.3837 17.2018 30.2832 16.74 30.1987 16.2741C30.1746 16.1311 30.1987 15.9839 30.1987 15.7959C30.9426 15.6447 31.7107 16.0289 32.4787 15.8C32.72 16.0125 33.0296 16.0902 33.3553 16.1597C33.8499 16.27 34.3284 16.4376 34.815 16.5847C34.9919 16.6378 35.197 16.646 35.3096 16.834C35.4182 17.0057 35.4302 17.0098 35.4986 16.9239C35.5267 16.9321 35.5589 16.9362 35.587 16.9362C35.6554 16.9607 35.7238 16.9852 35.7921 17.0138L35.7881 17.0098Z" fill="#008433"/>
<path d="M27.3961 0.899099C27.5247 0.895012 27.6534 0.882751 27.7781 0.882751C34.5336 0.882751 41.2851 0.882751 48.0406 0.882751C48.1693 0.882751 48.298 0.890925 48.4226 0.899099C48.4508 0.923621 48.4789 0.952229 48.5031 0.976751C48.5071 1.14023 48.5191 1.3037 48.5191 1.46309C48.5191 7.85504 48.5191 14.2429 48.5191 20.6348C48.5191 20.7942 48.5191 20.9536 48.5191 21.113C48.491 21.1171 48.4628 21.1212 48.4347 21.1253C48.3663 20.8515 48.306 20.5776 48.2296 20.3079C48.0446 19.6662 47.8838 19.0123 47.6506 18.3911C47.3651 17.635 47.0675 16.8831 46.7177 16.1515C46.0502 14.7579 45.2419 13.4623 44.305 12.2526C43.8144 11.6191 43.2273 11.0592 42.6764 10.4707C42.592 10.3808 42.4673 10.3317 42.3628 10.2582C42.2823 10.205 42.1698 10.1642 42.1376 10.0906C41.9124 9.57155 41.4258 9.33042 41.0197 9.0239C40.501 8.62747 39.9621 8.23921 39.3791 7.95721C38.4783 7.51991 37.6178 6.98861 36.6326 6.73931C36.0576 6.59218 35.4906 6.42053 34.9156 6.2734C34.6743 6.2121 34.425 6.26523 34.1677 6.18349C33.8138 6.07314 33.4157 6.12627 33.0418 6.06497C32.3461 5.95053 31.6464 5.95053 30.9508 5.98323C30.4843 6.00775 30.0179 6.05271 29.5514 6.15079C29.1734 6.22845 28.7753 6.22845 28.3933 6.26114C28.2807 6.09766 28.1842 5.95462 28.0877 5.81158C28.1159 5.69306 28.1802 5.56636 28.1601 5.45193C28.0475 4.79802 27.955 4.13594 27.7741 3.50247C27.577 2.81587 27.5408 2.10065 27.3237 1.41814C27.2795 1.28736 27.3116 1.12797 27.3076 0.984925C27.3398 0.960403 27.3679 0.931795 27.4001 0.907273L27.3961 0.899099Z" fill="#008433"/>
<path d="M0.0964954 40.5095C0.0964954 35.3723 0.0964954 30.235 0.100517 25.0978C0.100517 24.9547 -0.0120755 24.7708 0.188982 24.6646C0.168876 24.9547 0.265383 25.1999 0.450356 25.3838C0.494589 26.1318 0.723794 26.7938 1.07765 27.4151C1.10178 27.4559 1.13797 27.4886 1.15004 27.5295C1.21839 27.787 1.25861 28.0526 1.35511 28.2978C1.45162 28.5471 1.64866 28.7596 1.70897 29.013C1.92209 29.9326 2.38855 30.7377 2.80273 31.5592C3.10833 32.1681 3.36569 32.8098 3.82812 33.3288C3.94875 33.8111 4.31065 34.1544 4.55192 34.5672C4.71679 34.8532 4.98621 35.078 5.15107 35.3641C5.31594 35.6543 5.4607 35.9485 5.74218 36.1447C5.7462 36.5085 6.20059 36.5616 6.25287 36.9049C6.26493 36.9744 6.39763 37.0193 6.46197 37.0929C6.56249 37.2073 6.64694 37.3381 6.74747 37.4525C6.94048 37.665 7.13752 37.8694 7.33455 38.0737C7.41096 38.1514 7.53561 38.2086 7.57582 38.3026C7.80503 38.8298 8.27952 39.1363 8.64545 39.5328C8.75402 39.6513 8.93497 39.7044 9.11994 39.8066C9.2647 40.0069 9.44565 40.248 9.63867 40.5136H0.0964954V40.5095Z" fill="#F8C300"/>
<path d="M0.0964355 11.145C0.0964355 7.806 0.0964355 4.46698 0.0964355 1.13206C0.0964355 1.05032 0.104478 0.968579 0.108499 0.886841H4.32266C4.12562 1.24649 3.94467 1.57753 3.76774 1.91266C2.7906 3.73134 1.94214 5.61132 1.22638 7.5567C0.844368 8.59478 0.554846 9.66146 0.209028 10.7118C0.160774 10.8548 0.293472 11.0428 0.100457 11.145H0.0964355Z" fill="#F8C300"/>
<path d="M48.4226 40.5341C46.8463 40.53 45.274 40.5259 43.6977 40.5218C43.6897 40.485 43.6816 40.4482 43.6736 40.4115C43.7419 40.2398 43.8063 40.0641 43.8706 39.8965C44.0878 39.7371 44.3893 39.6145 44.522 39.3938C44.6628 39.1568 44.9684 39.0342 44.9805 38.7154C45.3504 38.4906 45.4027 38.0329 45.6962 37.7386C45.9335 37.4975 46.0782 37.1664 46.2954 36.8272C46.2994 36.7373 46.3074 36.5943 46.3155 36.4349C46.8342 36.0752 47.1117 35.5194 47.2444 34.9432C47.3489 34.4895 47.558 34.0972 47.7068 33.6721C47.8113 33.3738 47.936 33.0959 47.9601 32.7689C47.9762 32.5441 48.121 32.3316 48.2215 32.0823C48.2014 32.0374 48.1652 31.9515 48.133 31.8739C48.2496 31.6818 48.3542 31.5101 48.4587 31.3344C48.4829 31.3385 48.507 31.3426 48.5271 31.3467C48.5271 31.4856 48.5271 31.6205 48.5271 31.7595C48.5271 34.465 48.5271 37.1746 48.5271 39.8802C48.5271 40.06 48.5351 40.2398 48.5432 40.4156C48.5351 40.4482 48.5271 40.4809 48.5191 40.5096C48.4869 40.5136 48.4547 40.5259 48.4266 40.5341H48.4226Z" fill="#008433"/>
</svg>
