<svg width="32" height="41" viewBox="0 0 32 41" fill="white" xmlns="http://www.w3.org/2000/svg">
    <g>
        <path d="M8.59998 20.11C8.54998 14 13.52 8.61001 20.14 8.62001C26.7 8.62001 31.64 14 31.64 20.12C31.64 26.29 26.64 31.63 20.09 31.61C13.52 31.59 8.54998 26.24 8.59998 20.11ZM20.1 11.47C16.63 11.68 13.97 13.16 12.43 16.25C10.79 19.56 11.21 22.76 13.52 25.65C15.29 27.88 18.27 28.87 20.1 28.67V11.47Z"/>
        <path d="M21.5498 2.88C21.5498 3.37 21.5598 3.87 21.5498 4.36C21.5298 4.97 21.1498 5.48 20.5698 5.67C20.0098 5.86 19.4298 5.7 19.0298 5.25C18.7998 4.99 18.6798 4.69 18.6798 4.35C18.6798 3.36 18.6598 2.38 18.6798 1.39C18.6998 0.61 19.3298 0 20.0998 0C20.8798 0 21.5298 0.6 21.5498 1.4C21.5698 1.89 21.5498 2.39 21.5498 2.88Z"/>
        <path d="M2.91 18.68C3.39 18.68 3.87 18.68 4.34 18.68C4.97 18.7 5.48 19.09 5.67 19.69C5.86 20.27 5.67 20.86 5.18 21.25C4.94 21.44 4.66 21.55 4.35 21.55C3.36 21.55 2.38 21.56 1.39 21.55C0.61 21.54 0 20.88 0 20.1C0 19.32 0.62 18.7 1.43 18.68C1.92 18.67 2.42 18.68 2.91 18.68Z"/>
        <path d="M18.6801 37.32C18.6801 36.87 18.6901 36.42 18.6801 35.98C18.6601 35.19 19.3001 34.51 20.1001 34.5C20.9401 34.49 21.5801 35.22 21.5601 35.99C21.5401 36.93 21.5601 37.87 21.5601 38.81C21.5601 39.46 21.1701 39.97 20.5801 40.17C19.9901 40.37 19.3801 40.19 18.9801 39.68C18.7801 39.42 18.6801 39.13 18.6801 38.81C18.6801 38.8 18.6801 38.78 18.6801 38.77C18.6801 38.29 18.6801 37.81 18.6801 37.34V37.32Z"/>
        <path d="M6.76982 34.76C6.30982 34.75 5.84982 34.47 5.59982 33.92C5.34982 33.37 5.41982 32.82 5.83982 32.38C6.53982 31.65 7.25982 30.93 7.98982 30.23C8.42982 29.82 8.95982 29.73 9.52982 29.98C10.0798 30.22 10.3498 30.66 10.3898 31.24C10.4198 31.63 10.2798 31.98 9.99982 32.26C9.28982 32.98 8.56982 33.7 7.84982 34.41C7.58982 34.66 7.26982 34.77 6.76982 34.77V34.76Z"/>
        <path d="M8.75016 10.35C8.52016 10.35 8.20016 10.22 7.93016 9.95998C7.24016 9.27998 6.54016 8.59998 5.87016 7.89998C5.32016 7.32998 5.35016 6.46998 5.89016 5.91998C6.45016 5.34998 7.32016 5.32998 7.90016 5.88998C8.60016 6.55998 9.29016 7.24998 9.96016 7.94998C10.4002 8.40998 10.4602 8.96998 10.2202 9.52998C9.98016 10.09 9.51016 10.35 8.75016 10.35Z"/>
    </g>
</svg>