<svg width="20" height="20" viewBox="0 0 20 20" fill="none" xmlns="http://www.w3.org/2000/svg">
<path d="M20 9.41327V10.5867C20 10.5867 19.9745 10.6548 19.966 10.6973C19.949 10.8503 19.9405 11.0119 19.9235 11.165C19.864 11.7857 19.7279 12.398 19.5408 12.9932C18.8606 15.1276 17.6106 16.8537 15.7908 18.1548C14.2007 19.2942 12.4235 19.8895 10.4677 20C9.86396 20.034 9.26021 20 8.65647 19.9235C7.85715 19.8129 7.07484 19.6088 6.32654 19.3112C4.71089 18.6735 3.35885 17.6786 2.26191 16.3435C1.59015 15.5272 1.07144 14.6259 0.680282 13.648C0.289126 12.6105 0.0680371 11.5561 0.00851333 10.4592C-0.0255003 9.72789 0.0255201 9.0051 0.144568 8.28231C0.306132 7.34694 0.586745 6.45408 1.01191 5.60374C1.76021 4.08163 2.83164 2.82313 4.2177 1.83673C5.73981 0.77381 7.42348 0.161565 9.28572 0.0340136C9.32824 0.0340136 9.37076 0.0170068 9.41327 0C9.80443 0 10.1956 0 10.5867 0C10.6208 0.0085034 10.6548 0.0255102 10.6973 0.0340136C10.8674 0.0510204 11.0374 0.0595238 11.199 0.0765306C11.6837 0.127551 12.1599 0.221088 12.6276 0.348639C14.4388 0.85034 15.9864 1.77721 17.2789 3.14626C18.0442 3.95408 18.6565 4.87245 19.1157 5.88435C19.6003 6.95578 19.8895 8.08674 19.966 9.26021C19.966 9.31122 19.9915 9.35374 20 9.40476V9.41327ZM13.8691 7.28742C13.8691 6.31803 13.4439 5.53571 12.7721 4.9915C12.2449 4.56633 11.6412 4.31973 10.9694 4.20918C10.3316 4.09864 9.70239 4.10714 9.07314 4.23469C8.41838 4.37075 7.83164 4.65136 7.31294 5.07653C6.70069 5.58673 6.30103 6.22449 6.14797 7.0068C6.07994 7.36395 6.11396 7.69558 6.36906 7.9932C6.76872 8.45238 7.63606 8.5034 7.9847 7.83163C8.05273 7.70408 8.10375 7.56803 8.14627 7.44048C8.26532 7.10884 8.40137 6.78571 8.59695 6.4881C8.77552 6.21599 9.00511 5.9949 9.31974 5.88435C9.60885 5.78231 9.90647 5.76531 10.2041 5.77381C10.7058 5.79082 11.1225 5.98639 11.4371 6.37755C11.7517 6.7602 11.8112 7.39796 11.5901 7.78912C11.4796 7.9932 11.3435 8.18878 11.165 8.35034C10.8333 8.65646 10.4932 8.95408 10.1701 9.26021C9.92348 9.4898 9.67688 9.72789 9.4643 9.98299C9.07314 10.4422 8.87756 10.9949 8.86055 11.5901C8.86055 11.7772 8.86055 11.9728 8.90307 12.1514C8.9881 12.568 9.36225 12.8401 9.80443 12.8401C10.2721 12.8401 10.5782 12.619 10.6888 12.1769C10.7398 11.9983 10.7823 11.8112 10.8248 11.6327C10.9014 11.2925 11.0629 11.0034 11.318 10.7653C11.7857 10.3316 12.2534 9.89796 12.7126 9.45578C12.8997 9.27721 13.0867 9.09864 13.2483 8.89456C13.6395 8.40986 13.8691 7.86565 13.8521 7.28742H13.8691ZM11.0544 14.7194C11.0799 14.0646 10.5357 13.5544 9.90647 13.5544C9.35375 13.5544 8.74151 13.9626 8.733 14.7024C8.7245 15.3656 9.2177 15.8588 9.89797 15.8673C10.4167 15.8759 11.0714 15.4932 11.0544 14.7194Z" fill="white"/>
</svg>
