<?xml version="1.0" encoding="UTF-8"?>
<svg id="Ebene_1" data-name="Ebene 1" xmlns="http://www.w3.org/2000/svg" viewBox="0 0 221.35 85.31">
  <defs>
    <style>
      .cls-1 {
        fill: #000;
        stroke-width: 0px;
      }
    </style>
  </defs>
  <path class="cls-1" d="M42.2,12.52S36.76,0,21.48,0-.79,13.04.07,22.71s3.11,16.49,16.58,21.32,22.95-4.91,24.86-9.15c.07-.15.13-.29.17-.43,1.38-3.97,115.77,47.4,120.6,49.55s15.71-2.68,21.5-1.47,12.78,4.58,14.94,1.55,17.35-19.42,21.41-21.15-2.5-7.08-12.52-10.01-37.29-12.6-37.29-12.6c0,0,3.71-5.27-5.53-8.2-8.52-2.71-32.72-18.65-122.59-19.6Z"/>
</svg>