<?xml version="1.0" encoding="UTF-8"?>
<svg id="Ebene_2" data-name="Ebene 2" xmlns="http://www.w3.org/2000/svg" viewBox="0 0 119.76 130.55">
  <defs>
    <style>
      .cls-1 {
        fill: #c3c3c3;
      }
    </style>
  </defs>
  <g id="Ebene_1-2" data-name="Ebene 1">
    <path class="cls-1" d="m119.42,43.84c-.67-1.31-1.28-2.64-1.99-3.92-.84-1.5-1.88-2.82-3.52-3.59-.96-.45-1.88-.99-2.63-1.78-.16-.17-.41-.24-.59-.39-.29-.24-.6-.46-.84-.75-.51-.63-1.11-1.1-1.92-1.3-1.41-.35-2.81-.75-4.21-1.13-.8-.22-1.19,0-1.44.85-1.44,0-2.87,0-4.31.01-.25-.92-.59-1.19-1.37-1.06-.31.05-.62.16-.93.22-1.27.25-2.54.49-3.86.74-.21-1.03-.37-1.93-.56-2.82-.19-.9-.75-1.52-1.61-1.77-.87-.25-1.78-.42-2.68-.54-.94-.13-1.3-.6-1.06-1.57.11-.44.21-.95-.26-1.17-.6-.28-1.26-.52-1.91-.59-.87-.1-1.07.14-1.33,1.13-.72,0-1.44,0-2.16,0,.22-.4.42-.82.66-1.21.24-.4.62-.74.76-1.17.49-1.5.57-3.01.15-4.57-.31-1.15-.94-1.81-2.04-2.06-.96-.22-1.93-.42-2.9-.63,0-.2,0-.36,0-.51.03-1.44-.15-1.67-1.53-2.06-.15-.04-.29-.14-.44-.18-1.23-.28-2.45-.59-3.68-.83-1-.19-2.01-.31-3.02-.45-.19-.03-.39-.06-.58-.07-1.08-.09-2.17-.14-3.25-.26-.87-.1-1.72-.34-2.58-.4-1.45-.09-2.91-.05-4.34-.39-.3-.07-.63.02-.95.03-.19.01-.44.12-.58.04-1.01-.59-2.17-.21-3.23-.54-.77-.23-1.64-.11-2.46-.15-.12,0-.23-.02-.35-.04-.94-.19-1.88-.38-2.83-.56-.19-.04-.41-.03-.6,0-1.08.24-2.11-.71-3.21-.15-.06.03-.2-.1-.31-.16-1.31-.76-2.63-1.49-3.91-2.29-1.24-.78-2.79-1.08-3.71-2.38-.15-.21-.45-.32-.69-.47-.65-.41-1.27-.44-1.82.17-1.13-.7-2.26-1.41-3.39-2.11-1.16-.72-2.38-1.18-3.78-.99-.23.03-.48.01-.69.1-2.73,1.1-5.43,2.24-8.17,3.3-1.34.52-2.52,1.52-4.07,1.39-1.72-.18-3.45-.32-5.17-.53-2.1-.27-4.19-.59-6.29-.91-.59-.09-.54.28-.51.66,0,8.15,0,16.31,0,24.46,0,3.51,0,7.03,0,10.54,0,.56,0,1.12,0,1.68,0,1.2,0,2.39,0,3.59,0,.48,0,.97-.01,1.45,0,.22.01.44.02.66,0,.33,0,.66,0,1,0,.4,0,.8,0,1.2,0,1.68,0,3.36,0,5.04v3.83c0,.89,0,1.77,0,2.66,0,.14,0,.29,0,.43.55.1,1.1.2,1.66.3.03.69.06,1.37.08,2.06-.03-.69-.06-1.38-.08-2.06-.55-.1-1.1-.2-1.66-.3,0,.33,0,.66,0,.99,0,.4-.03.8-.03,1.2,0,13.17,0,26.34,0,39.52,0,.4.02.8.03,1.2,0,1.93,0,3.85,0,5.78,0,.23,0,.45,0,.68-.25.08-.5.17-.74.25v5.99c.08.08.16.16.24.24.17,1.09.58,2.02,1.77,2.29.73.17,1.49.32,2.24.33,1.11,0,2.22-.15,3.33-.21,3.34-.17,6.67-.33,10.01-.49,1.47-.07,2.94-.17,4.41-.23,2.11-.09,4.22-.12,6.32-.26,2.73-.18,5.27-.87,7.18-3.02.36-.41.78-.77,1.17-1.15.1.43.01.76-.02,1.1-.09.99-.22,1.98-.21,2.97,0,.88.29,1.11,1.2,1.31.32.48.65.94,1,1.39-.04.84-.06,1.49-.09,1.5.04.62.03,1.26.14,1.87.28,1.56,1.03,2.89,1.94,4.17.99,1.39,2.25,2.24,3.93,2.37,1.38.11,2.78.27,4.15.13,1.59-.17,2.85-1.02,3.26-2.71.16-.65.29-1.34.22-1.99-.16-1.59-2.6-7.43-4.51-10,.11-.11.22-.22.31-.34,2.2-2.93,4.54-5.73,7.38-8.07,2.08-1.72,4.08-3.54,6.14-5.28.09-.08.56-.31,1.19-.62-.08.83-.16,1.66-.24,2.5,0,.48,0,.96,0,1.44-.48.08-.71.34-.59.84.13.54.3,1.07.41,1.61.06.29.09.61.05.9-.07.54-.29,1.07-.29,1.61,0,1.8.36,3.53.84,5.27.7,2.55,2.17,4.58,3.82,6.54,1.38,1.64,3.12,2.85,4.95,3.92,2.18,1.28,4.48,2.29,7.12,2.07.39-.03.8,0,1.19.05,2.27.3,4.51-.07,6.75-.26.42-.04.83-.26,1.23-.42.52-.21,1.02-.45,1.54-.66,1.78-.73,3.37-1.75,4.07-3.63.35-.95.43-2.01.56-3.02.09-.71-.01-1.44.09-2.15.3-2.12-.05-4.08-1.15-5.94-.73-1.22-1.82-1.71-3.13-1.92-.27-.04-.6.03-.82-.09-.24-.13-.49-.42-.54-.67-.3-1.65-1.52-2.82-3.16-2.81-.69,0-1.38.3-2.08.4-.67.1-.71.52-.68,1.04-.34.31-.67.62-1.01.93-.33.09-.9.1-.96.29-.32.88-.82,1.77-.69,2.74.13.93.43,1.84.62,2.66-.5.52-.92.98-1.38,1.41-.38.36-.75.59-1.37.3-.7-.33-1.5-.51-2.27-.64-1.45-.24-2.73-.68-3.22-2.27-.03-.11-.14-.19-.2-.3-.79-1.58-1.84-3.06-1.29-5.04.59-2.11,1.09-4.26,2.34-6.09,1.23-1.81,2.55-3.55,3.85-5.31,1.03-1.39,2.2-2.62,3.73-3.47.14-.08.28-.16.4-.26,1.27-.96,2.51-1.93,4.09-2.4.66-.2,1.27-.67,1.83-1.11.93-.73,1.75-1.61,2.71-2.3,2.49-1.78,5.06-3.46,7.56-5.24,2.91-2.08,5.8-4.2,8.67-6.33.79-.59,1.46-1.35,2.25-1.96,1.67-1.3,3.21-2.75,4.51-4.4,1.94-2.47,3.72-5.07,5.52-7.64.54-.78.95-1.65,1.43-2.48v-14.85c-.12-.16-.26-.31-.34-.48Zm-67.48,34.46c.09.09.19.18.28.28-.09-.09-.19-.18-.28-.28h0Zm-6.67-9.31c.09.06.21.16.31.24-.1-.08-.22-.18-.31-.24h0Z"/>
  </g>
</svg>