<?xml version="1.0" encoding="UTF-8"?>
<svg id="Ebene_2" data-name="Ebene 2" xmlns="http://www.w3.org/2000/svg" viewBox="0 0 117.1 103.56">
  <defs>
    <style>
      .cls-1 {
        fill: #393939;
      }
    </style>
  </defs>
  <g id="Ebene_1-2" data-name="Ebene 1">
    <path class="cls-1" d="m117.06,69.46c-.46-3.04-1.68-5.71-3.96-7.84-.99-.92-2.01-1.81-2.98-2.75-1.31-1.26-2.84-2.18-4.47-2.93-.43-.2-.85-.4-1.44-.06-2.73-1.29-5.09-2.18-7.16-2.77.1-.27.32-.6.3-.9-.22-2.37-.52-4.73-1.26-7.02-.8-2.5-1.5-5.05-1.27-7.73.05-.63.15-1.26.23-1.89.26-1.94.71-3.84,1.41-5.66.73-1.9,1.46-3.78,1.82-5.8.33-1.89.51-3.76.19-5.69-.17-1-.05-2.07.11-3.08.29-1.8.62-3.61,1.08-5.37.66-2.54-.5-6.26-3.87-8-.39-.2-.74-.22-1.16.21-.73-.01-1.47,0-1.38-.24.26-.75-.03-1.26-.35-1.93-.36.12-.69.22-1.01.32-.34.11-.7.17-1.02.33-1.41.72-2.8,1.46-4.2,2.19-.33.17-.68.28-1.12.46l-1.46.99c-2.31,1.28-4.58,2.63-6.88,3.93-.85.48-1.73.91-2.44,1.28-1.97-.65-3.72-1.25-5.49-1.81-1.46-.47-2.91-.96-4.4-1.33-1.51-.38-3.08-.52-4.52-1.18-.74.33-1.45-.19-2.19-.08-.45-.43-.93-.2-1.52-.13.1.61.19,1.13.28,1.65-.4.21-.81.42-1.06.56-.38,1.01.48,1.83-.07,2.73-1.24-.49-2.43-1-3.65-1.43-.86-.31-1.76-.45-2.6.15v1.1c.21.51,1.04.75.6,1.6h-2.57c-.88.87-.9.9-.9,1.93.48.11.95.3,1.43.33.05,0,.09,0,.14,0-.66.82-1.1,2.12-1.09,2.98.02,1.19.13,2.37.25,3.55.01.13.21,1.89.43,3.61-.93,1.04-1.74,2.14-2.42,3.34-.5.89-1.07,1.77-.94,2.88.03.22-.06.48-.16.68-.75,1.54-1.46,3.09-2.29,4.58-1.05,1.87-2.2,3.68-3.31,5.52-.72,1.06-1.43,2.11-2.15,3.17-1.56.92-5.21,2.14-6.1,2.03-.1-.61-.2-1.22-.31-1.83-.09-.49-.35-.86-.78-1.11-.16-.09-.31-.24-.48-.27-.89-.12-1.71.06-2.39.68-.88.4-.98,1.16-.88,1.98.23,1.83.48,3.65.73,5.47.16,1.36.32,2.73.48,4.09-.49.25-.98.49-1.47.74-.71,0-1.33.22-1.63.88-.31.68.34,1.03.65,1.5-.03.19-.06.37-.1.62-.43.03-.83.02-1.2.11-.23.06-.41.27-.62.42-1.96.15-3.84.58-5.75,1.37-.15-.25-.33-.54-.51-.84-.2-.33-.4-.67-.61-1-.18-.28-.35-.57-.56-.9-1.58.93-2.9,1.97-3.34,3.81-.38,1.49-1.63,2.2-2.62,3.19-1.22-1.56-1.47-1.68-2.86-1.37-.8,1.72-1.37,3.48-.73,5.44.07.22-.05.54-.16.78-.17.4-.45.75-.6,1.16-.33.9-.6,1.83-.91,2.81-.51,0-1.03,0-1.54,0-.44,0-.68.21-.6.68-.57,1.24-1.32,6.41-1.46,7.52-.03.2-.07,2.03-.08,3.51-.07.15-.15.28-.13.4.05.44.09.89.14,1.33,0,.07,0,.13.01.15,0,0,0,0,0,0,.07.65.16,1.3.31,1.93.31,1.31.6,2.67,1.21,3.85,1.95,3.77,4.86,6.66,8.51,8.82,1.32.78,2.75,1.3,4.27,1.44,1.94.18,3.89.25,5.84.25,1.95,0,3.9-.32,5.74-.93,4.08-1.35,7.5-3.67,9.81-7.39.97-1.55,1.89-3.13,2.84-4.7.5-.83,1.06-1.6,2.25-1.81.42.24.93.55,1.45.83.49.26.97.54,1.48.75,2,.82,4.08.66,6.1.2,3.1-.72,6.16-1.59,9.23-2.42,4.49-1.22,8.96-2.54,13.47-3.68,4.86-1.23,9.74-2.35,14.63-3.43,2.83-.63,5.69-1.11,8.54-1.61,1.68-.29,3.37-.49,5.06-.74,1.49-.22,2.97-.51,4.47-.66,1.82-.18,3.61-.5,5.4-.9,2.78-.62,4.71-2.2,5.8-4.82.37-.89.62-1.82.47-2.79ZM90.76,7.31s-.03-.01-.05-.02c.05-.03.06-.01.05.02Z"/>
  </g>
</svg>