<?xml version="1.0" encoding="UTF-8"?>
<svg id="Ebene_2" data-name="Ebene 2" xmlns="http://www.w3.org/2000/svg" viewBox="0 0 108.21 118.82">
  <defs>
    <style>
      .cls-1 {
        fill: #a1a1a1;
      }
    </style>
  </defs>
  <g id="Ebene_1-2" data-name="Ebene 1">
    <path class="cls-1" d="m108.01,112.84c-.38-.03.26-3.02-.1-3.05,0,0,0,0,0,0-.02-.17-.06-.32-.14-.44-1.12-1.58-2.11-3.31-3.49-4.64-3.18-3.07-6.67-5.82-9.82-8.91-3.18-3.13-6.13-6.49-9.1-9.81-1.16-1.3-2.21-2.72-3.15-4.19-.81-1.26-.55-1.72.88-2.13,1.46-.42,2.93-.78,4.37-1.25,1.58-.52,2.71-1.56,3.53-3.03,1.84-3.3,1.87-6.87,1.28-10.37-.86-5.19-2.11-10.31-3.21-15.46-.56-2.61-.28-5.02,1.74-6.97,1.32-1.27,2.68-2.5,4.06-3.7,3.59-3.12,6.72-6.52,7.07-11.61.23-3.24-.73-6.75-4.34-8.09-.34-.13-.62-.2-.86-.26,0,0,0,0,0,0-.17-.08-3.81-.91-3.87-.85-.34.27-.62.61-.92.92-1.09.98-2.19,1.95-3.28,2.93-1.04,1.04-2.08,2.08-3.11,3.11-.84-1.92-2.01-4.52-2.26-5.51-.36-1.46-.44-2.98-.65-4.48-.4-2.79-.71-5.6-1.26-8.37-.45-2.3-1.81-4.02-4.01-5.02-.52-.24-.97-.41-1.35-.49-1.1-.8-3.62-1.32-4.4-1.08-.95,1.2-1.89,2.4-2.88,3.65-.07-.01-.3-.06-.72-.14.01.05.02.1.04.15-.35.39-1.2,1.68-1.27,1.57-.12.12-.27.24-.4.36-.13.12-.24.24-.27.39-.36,1.59-.82,3.18-.92,4.79-.23,3.75.76,7.35,1.57,10.97.51,2.29-1.22,4.65-3.74,6.28-.85-.07-1.7-.15-2.55-.21-1.89-.14-3.83.03-5.67-.34-1.33-.27-2.06.21-2.85,1.01-1.3.88-2.62,1.72-3.9,2.63-.79.57-.84,1.26-.11,1.96-.78.84-1.55,1.69-2.33,2.53h0c-4.24,3.45-3.46,8.21-4.5,11.7-.86,1.36-1.64,3.2-2.62,3.69-.12.06-.16.34-.18.52-.24,1.74-.35,3.51-.76,5.21-.12.48-.07,1.04-.13,1.55-.03.26-.09.51-.21.74-.06.11-.14.22-.23.33-.1.1-.21.2-.35.28-.8.56-1.6,1.12-2.4,1.68-.8.56-1.6,1.12-2.38,1.71-2.19,1.65-4.34,3.35-6.5,5.04-.31.31-.62.61-.93.92-.17.09-.34.18-.51.26-1.19.64-2.39,1.28-3.58,1.91-2.54,2.48-5.08,4.97-7.62,7.45-.16.16-.33.31-.49.47-.48.55-.96,1.11-1.44,1.66-.32.32-.64.64-.96.96-2.87,2.96-5.75,5.91-8.62,8.87.01,0,.03.02.04.03.01,0,.02.02.04.02-1,1.2-1.43,3.06-1.23,4.44.44,2.98,1.95,5.17,4.9,6.23,3.37,1.22,6.93.93,10.4,1.23,5.79.5,11.62.59,17.38,1.27,8.18.96,16.36,2.11,24.48,3.53,11.61,2.03,22.92,5.26,34.09,9,2.57.86,5.2,1.56,7.84,2.12,2.35.5,4.76.63,6.92-.84,1.68-1.15,2.57-3.44,1.96-4.8Z"/>
  </g>
</svg>