<?xml version="1.0" encoding="UTF-8"?>
<svg id="Ebene_2" data-name="Ebene 2" xmlns="http://www.w3.org/2000/svg" viewBox="0 0 188.64 85.46">
  <defs>
    <style>
      .cls-1 {
        fill: #b9447d;
      }
    </style>
  </defs>
  <g id="Ebene_1-2" data-name="Ebene 1">
    <path class="cls-1" d="m188.63,56.73c-.08-.17-.16-.35-.25-.54.04-.11.08-.22.12-.34-.21-.33-.35-.67-.12-1.04-.08-.17-.16-.33-.23-.49v-.47c.08-.17.16-.33.23-.48v-.85c-.08-.11-.16-.22-.24-.33v-.96c-.08-.17-.16-.33-.24-.5v-.84c-.29-.27-.29-.67-.43-1.01-.15-.35-.23-.75-.16-1.14-.09-.15-.15-.31-.27-.41-.24-.22-.39-.49-.52-.76-.23-.16-.44-.3-.64-.43-.11-.25-.21-.48-.49-.59-.1-.04-.18-.16-.26-.24-.33-.32-.65-.65-.97-.97-.25-.25-.48-.53-.84-.65-.1-.04-.19-.14-.27-.23-.21-.21-.42-.42-.64-.63-.07-.07-.15-.18-.23-.18-.28-.01-.4-.23-.58-.39-.37-.32-.62-.78-1.14-.91-.07-.02-.12-.1-.17-.16-.16-.15-.31-.31-.47-.46-.09-.08-.17-.21-.27-.22-.3-.03-.43-.26-.62-.43-.12-.1-.23-.28-.36-.29-.25-.04-.37-.22-.53-.36-.13-.12-.25-.31-.4-.35-.37-.08-.55-.37-.76-.62-.04-.04-.07-.11-.12-.12-.29-.03-.46-.29-.73-.38-.41-.14-.68-.47-.86-.73-.24-.14-.41-.24-.57-.34-.63-.4-1.33-.71-1.83-1.29-.03-.03-.05-.06-.09-.08-.53-.27-1.01-.62-1.51-.92-.3-.18-.54-.4-.76-.67.04-.09.09-.18.11-.27.02-.09,0-.19,0-.32-.13-.09-.25-.24-.38-.25-.21-.02-.37-.13-.56-.18-.2-.06-.42-.09-.63-.14-.3-.07-.63-.06-.9-.27-.01,0-.04,0-.05,0-.11.04-.22.08-.35.12-.55-.4-1.21-.44-1.83-.61-.14-.04-.31.03-.46.05-.13.02-.26.03-.4.05-.12-.21,0-.5-.37-.6-.56.04-1.22-.1-1.86.11-.1-.12-.2-.23-.3-.34h-1.14c-.18.08-.34.16-.48.23-.84,0-1.66,0-2.48,0-.14,0-.28,0-.42.02-.17.03-.34.08-.51.13-5.25-.28-11.31-.59-11.35-.63h-.72c-.11-.08-.21-.15-.34-.25-.19.04-.39.09-.6.14-.11-.12-.21-.24-.31-.35-.21.05-.38.18-.59.08-.13-.11-.27-.22-.4-.33h-.61c-.17-.08-.33-.16-.5-.24h-.46c-.17-.08-.33-.16-.5-.24h-.84c-.11-.08-.22-.16-.33-.24h-.72c-.17-.08-.33-.16-.5-.24h-.71c-.18-.08-.3-.29-.52-.26-.45-.28-.94-.5-1.31-.91-.17-.18-.22-.43-.38-.6-.31-.32-.45-.74-.67-1.11-.09-.15-.18-.3-.27-.46-.18-.3-.38-.6-.54-.92-.34-.7-.79-1.32-1.24-1.94-.27-.37-.55-.72-.81-1.09-.36-.5-.75-.97-1.2-1.39-.08-.08-.18-.16-.29-.2-.28-.12-.49-.33-.7-.54-.17-.17-.31-.36-.55-.45-.29-.1-.47-.36-.69-.55-.24-.21-.57-.27-.78-.53-.15-.19-.33-.34-.5-.51-.07-.07-.13-.17-.22-.2-.34-.14-.46-.47-.63-.75-.14-.24-.26-.49-.36-.68-.14-.11-.26-.16-.32-.26-.21-.33-.42-.67-.6-1.02-.1-.19-.15-.4-.24-.66,0-.12.01-.31-.04-.47-.1-.34-.23-.67-.37-.99-.09-.22-.2-.42-.21-.67,0-.19-.07-.4-.18-.55-.27-.39-.55-.77-.87-1.12-.5-.54-1.04-1.05-1.56-1.57-.1-.1-.21-.16-.35-.21-.25-.09-.48-.24-.72-.38-.17-.1-.32-.23-.5-.32-.62-.3-1.25-.59-1.8-1.02-.05-.04-.09-.1-.14-.11-.4-.08-.62-.4-.89-.66-.22-.21-.43-.42-.64-.63-.08-.08-.19-.16-.24-.26-.27-.53-.65-.98-.97-1.48-.37-.56-.85-1.03-1.2-1.61-.05-.08-.14-.18-.22-.19-.3-.02-.43-.26-.62-.43-.12-.1-.23-.27-.36-.3-.35-.09-.65-.3-.97-.44-.14-.06-.28-.09-.4-.04-.45.19-.9.06-1.36.09-.13-.21-.26-.41-.37-.58-.23,0-.46-.06-.63.01-.3.13-.58.08-.86.09-.17-.13-.35-.23-.34-.48h-6.35c0,.15-.05.27-.26.36h-1.37c-.11.16-.21.3-.3.42-.48.17-.94.27-1.41.07-.07-.03-.17-.03-.24,0-.51.19-1.09.2-1.56.52-.15.1-.29.2-.43.3-.16.11-.32.23-.48.34-.27.19-.61.3-.78.61-.49.25-.94.49-1.36.73-.09-.1-.16-.2-.15-.34,0-.02-.05-.05-.07-.07-.04-.39-.14-.49-.56-.54l-.62-.59c.02-.13-.03-.25-.15-.3-.25-.11-.47-.28-.76-.31-.23-.02-.44-.19-.67-.21-.23-.02-.46.07-.69.1q-.22.01-.25.23-.31.01-.36.24c-.13.14-.3.21-.48.25-.04.03-.08.06-.12.1-.04,0-.08.02-.12.02-.04-.03-.08-.1-.12-.1-.13,0-.11.12-.13.21-.04.13-.14.11-.24.12-.04-.03-.09-.1-.12-.09-.1.01-.11.09-.11.16,0,.02,0,.05,0,.07-.25.19-.51.37-.76.57-.26.21-.52.43-.77.66-.23.21-.53.33-.69.62-.04.08-.14.16-.23.18-.36.1-.51.48-.85.6-.19.34-.54.52-.85.73-.74.5-1.47,1.01-2.27,1.42-.34.18-.64.44-.96.65-.38.26-.78.47-1.17.71-.37.23-.8.34-1.12.64-.55.14-1.02.42-1.47.75-.06.04-.15.06-.22.09-.29.15-.59.28-.89.42-.73.35-1.35.9-2.11,1.2-.51.2-.97.52-1.44.81-.22.14-.46.3-.74.33-.2-.04-.37.05-.52.15-.05.03-.06.13-.08.19-.04.01-.08.03-.12.04-.08-.02-.11.02-.11.1-.05.01-.09.03-.14.04-.09-.04-.1,0-.1.08l-.14.05c-.08-.05-.1,0-.11.07-.13.09-.25.2-.39.25-.39.14-.75.35-1.14.51-.3.12-.49.38-.75.55-.23.15-.49.22-.68.44-.18.21-.42.36-.63.54-.18.15-.37.3-.54.45-.12.1-.21.26-.35.32-.24.12-.4.32-.58.5-.45.44-.7,1.06-1.25,1.41-.01,0-.02.04-.03.05-.19.28-.34.59-.58.82-.26.25-.43.55-.65.83-.2.25-.35.54-.57.76-.22.23-.35.51-.5.78-.2.34-.41.67-.54,1.04-.15.4-.32.78-.5,1.16-.07.25-.09.26-.29.19-.07-.03-.14-.05-.21-.08-.37-.34-.77-.6-1.29-.64-.31-.02-.77.05-1.1.18h-.12c-.18.09-.35.21-.53.22-.23.01-.4.15-.6.22-.2.07-.42.11-.63.16-.06.01-.11.02-.16.05-.43.24-.81.52-.82,1.08-.13.23-.14.48-.15.74,0,.07-.03.14-.06.21-2.8,1.48-7.89,4.29-8.07,4.24-.43.27-.95.26-1.39.24-.7.29-1.37.46-2.06.48-.46.01-.89.11-1.29.34-.02.06-1.4.13-3,.21-.32-.1-.65-.16-1-.18-.94-.05-1.85.17-2.78.24-.02,0-.04.01-.05.02-.25.09-.52.12-.78.17-.11.01-.19.03-.2.04-.33.08-.68.07-.99.16-.56.18-1.15.22-1.71.41-.17.06-.35-.03-.52.11-.22.18-.51.18-.79.15-.37.29-.88.22-1.26.48-.58.04-1.08.34-1.63.5-.24.07-.5.12-.73.23-.66.32-1.35.55-1.98.94-.23.14-.49.22-.63.48-.08.15-.24.19-.39.25-.56.23-1.12.47-1.67.73-.39.19-.76.42-1.15.61-.37.19-.76.35-1.13.54-.68.34-1.35.69-2.02,1.05-.59.32-1.21.58-1.65,1.12-.04.05-.09.09-.14.11-.4.16-.69.48-1.07.66-.6.3-1.15.7-1.78.94-.62.24-1.24.5-1.84.79-.38.07-.75.16-1.08.36-.11.06-.29-.04-.35.14-.06.01-.14,0-.17.04-.22.29-.54.43-.85.59-.18.1-.41.13-.54.32-.04,0-.07.01-.11.02-.04.03-.08.07-.13.11-.04,0-.08.02-.11.02-.04.03-.08.07-.12.1-.23-.05-.31.18-.48.25-.04.03-.08.07-.13.1-.04,0-.08.02-.11.02-.04.03-.08.07-.12.1-.04,0-.08.01-.12.02-.08-.01-.11.03-.12.1-.04,0-.09,0-.11.02-.23.22-.49.36-.81.4-.09.01-.18.08-.26.12-.55.25-1.05.58-1.53.93-.14.1-.34.12-.4.32-.27.02-.48.18-.7.3-.58.33-1.15.67-1.71,1.03-.26.17-.54.33-.82.59.45,0,.83,0,1.2,0,.16,0,.34.05.47-.02.29-.14.58-.09.88-.11.31-.02.62-.03.94-.08.44-.07.92-.05,1.36.02.26.04.51.05.76.05.04,0,.09-.07.13-.1.39,0,.78,0,1.17,0,.35,0,.68-.11.99-.25.42,0,.83,0,1.25.01.04,0,.16.57.3,1.24-.04.01-.07.01-.11.03.04.18.08.36.12.55-.17.18-.33.36-.47.53.08.28.14.55.2.75-.12.35-.29.64-.31.94-.02.33-.13.61-.27.9.1.26.21.52.08.8-.21.43-.2.88-.17,1.33.23.35.45.7.68,1.06.15,0,.31.02.42.03.32.18.19.39.1.6.14.23.37.42.35.76-.08.06-.18.12-.26.2-.06.06-.07.16-.09.21.22.2.41.38.55.51.05.29.09.52.14.78-.07.05-.14.13-.23.15-.13.03-.28,0-.42.02-.05,0-.1.04-.15.07v.48c.12.09.22.17.34.27-.09.14-.18.27-.26.38.05.18.1.33.14.46-.1.1-.17.18-.24.25.17.35.4.22.61.11.2.16.39.31.57.45.15.24-.25.24-.19.46.03.03.07.11.11.12.29.04.55.24.86.15.05-.1.09-.21.14-.31h.7c.08.11.09.2,0,.3-.12.03-.25.05-.38.08.03.1.05.14.08.18.03.04.07.07.16.12.22-.03.42-.09.61-.18.19-.08.37-.19.54-.29.29,0,.56-.03.81,0,.23.04.45.15.67.22.06.02.12.02.17.04.27.14.55.11.82.05.55-.11.63-.12,1.22,0,.15.03.32.03.47,0,.57-.12,1.2-.13,1.69.04.23.08.46.11.7.11,1.4,0,2.8,0,4.19,0,.26,0,.52-.03.75-.13.23-.1.46-.11.7-.11,1.84,0,3.67,0,5.51,0,.24,0,.47,0,.7.11.25.12.53.13.81.13,1.6,0,3.2,0,4.8,0,.11.08.22.16.35.25h2.67c.12.08.21.15.31.23h1.79c.19.09.37.17.55.25h1.62c.25.14.45.26.57.33.37-.05.64-.09.86-.12.16.11.28.19.41.28.25-.04.5-.08.82-.13.24.09.55.22.89.35.09-.03.2-.07.34-.12.3.14.62.29,1,.48.15,0,.39,0,.63,0,.12,0,.25,0,.35.06.23.12.42.03.65-.05.13.09.28.19.43.27.14.08.28.15.43.19.27.06.54.09.81.14.11.02.23.11.33.1.27-.03.5.11.75.15.11.02.22.1.34.1.4,0,.78.07,1.15.23.27-.05.44.13.63.25h.74c.11.08.23.16.33.23.82.01,1.29.11,1.82.37.45-.1.81.17,1.2.36h.48c.26.13.49.29.79.24.04,0,.09,0,.11.03.17.22.44.14.65.23.23.09.49.02.69.14.36.22.77.29,1.16.4.34.09.68.21,1.02.26.26.03.51.09.73.21.46.24.99.25,1.44.52.32-.05.56.18.83.27.29.1.6.17.89.31.32.15.7.14.99.37.3-.03.52.21.78.24.27.02.47.23.72.24.14,0,.26.05.37.11.11.05.23.11.35.14.02,0,.04,0,.06,0,.36,0,.71-.02.96.33.06.09.24.11.38.15.3.09.61.15.91.24.16.05.31.21.47.22.28,0,.47.2.76.26h.58c.26.4.77.43,1.15.72h.76c.16.15.32.3.46.43.51.11.99.21,1.52.32.19.32.56.43.92.53.34.09.69.12,1.07.18.11.1.25.21.39.33.34-.04.63.06.87.3.07.07.15.13.24.17.65.23,1.3.44,1.88.83.02.01.04,0,.1.02h.7c.29.35.71.37,1.09.37.18.16.31.32.48.42.17.09.37.11.56.17.58.18,1.18.3,1.72.58.15.08.36.08.5.18.25.18.52.26.81.31.13.02.27.07.38.16.24.19.51.29.81.32.11.01.24.05.33.12.34.28.73.36,1.17.37.23.36.58.52.99.59.13.02.27.06.39.11.25.11.54.1.79.23.28.14.58.24.87.36.07.03.17.03.22.08.18.18.42.23.64.27.24.05.45.13.64.28.19.15.41.24.66.22.1,0,.19.01.29.02.26.34.6.52,1,.59.13.02.27.06.39.11.29.11.61.12.9.28.19.11.4.16.6.25.18.08.37.11.53.25.16.14.38.21.61.18.1-.01.19.01.29.02.25.35.61.5,1,.59.15.04.31.06.45.12.28.1.58.11.84.27.27.16.57.26.88.33.04,0,.08.03.1.06.21.27.53.32.83.41.06.02.11.07.16.07.39,0,.66.21.85.5.15.02.27.03.35.05.08.11.12.24.2.26.41.13.78.38,1.22.3.36-.26.45-.32.72-.34.09,0,.2,0,.34,0,.16.08.32.16.48.23.5,0,1,0,1.5,0,.2,0,.39,0,.58.08.2.09.42.05.64,0,.34-.08.69-.19,1.04-.18.63,0,1.27-.13,1.89.1.07.03.16,0,.24,0,.36,0,.72,0,1.05,0,.28-.14.54-.34.81-.22.41.18.88,0,1.27.22.46-.01.9.03,1.35.12.25.05.52,0,.79,0,.25-.22.64-.2.88-.46.37.01.61-.25.88-.43.05-.03.11-.05.16-.07.4-.15.79-.32,1.14-.59.64-.48,1.39-.79,2.09-1.17.75-.41,1.53-.74,2.28-1.14.76-.41,1.58-.7,2.31-1.16.6-.18,1.11-.53,1.68-.79.58-.26,1.15-.58,1.72-.91h.45c.44-.26.8-.5,1.19-.69.46-.23.92-.44,1.37-.68.35-.19.72-.31,1.1-.3.2-.14.37-.28.56-.39.36-.21.72-.4,1.08-.61.02,0,.03-.03.05-.03.04-.01.07-.03.11-.03.29-.05.58-.11.87-.16.39-.29.77-.52,1.13-.68s.69-.25.99-.25c.19-.14.39-.27.59-.39.61-.36,1.26-.63,1.96-.79.15-.04.3-.11.42-.2.28-.2.58-.33.9-.43.26-.08.55-.14.76-.29.28-.19.55-.3.88-.27.2-.17.36-.38.65-.41.35-.05.68-.19.99-.36.17-.09.37-.13.56-.18.38-.1.76-.22,1.09-.43.17-.11.35-.21.53-.23.44-.07.78-.23.97-.64.59.17.76.13,1.16-.38.38.04.76-.04,1.13-.19.21-.09.45-.11.67-.22.23-.11.48-.16.72-.23.3-.09.58-.24.89-.3.35-.06.65-.25,1.01-.32.4-.08.77-.29,1.16-.41.33-.1.63-.22.84-.47.81-.04,1.68-.25,2.12-.81.13-.05.26-.09.39-.14.38-.16.77-.31,1.13-.51.38-.2.86-.15,1.2-.47.02-.02.08,0,.12-.01.24-.08.49-.14.72-.24.29-.12.6-.19.91-.24.36-.06.68-.16.98-.37.14-.1.31-.17.47-.26.33.24.64.14.97.03.32-.1.63-.22.84-.48.26,0,.5-.05.72.1.04.03.12.02.18,0,.45-.12.91-.23,1.36-.38.16-.05.3-.1.46-.08.29.04.55-.06.81-.14.09-.03.19-.11.27-.1.3.03.54-.12.81-.26h.49c.31-.23.65-.44,1-.33.32.11.59.04.85-.04.3-.1.59-.08.89-.11.46-.28,1-.29,1.52-.39.12-.1.24-.21.35-.31h.3c.11.13.21.24.29.33h.34c.05-.12.09-.22.15-.35.16.04.3.07.48.11.19-.6.63-1,1.06-1.42.36-.36.77-.69,1.04-1.15.04-.06.12-.11.13-.12.34-.18.51.14.74.17.13-.16.08-.28-.02-.39-.1-.11-.18-.22-.08-.4.15-.06.33-.14.53-.22-.03-.14-.07-.29-.11-.46.19-.18.38-.35.61-.56.15-.3.13-.68.12-1.06Z"/>
  </g>
</svg>